<?xml version="1.0" encoding="utf-8" standalone="no"?>
<!DOCTYPE svg PUBLIC "-//W3C//DTD SVG 1.1//EN"
  "http://www.w3.org/Graphics/SVG/1.1/DTD/svg11.dtd">
<svg xmlns:xlink="http://www.w3.org/1999/xlink" width="460.8pt" height="345.6pt" viewBox="0 0 460.8 345.6" xmlns="http://www.w3.org/2000/svg" version="1.1">
 <metadata>
  <rdf:RDF xmlns:dc="http://purl.org/dc/elements/1.1/" xmlns:cc="http://creativecommons.org/ns#" xmlns:rdf="http://www.w3.org/1999/02/22-rdf-syntax-ns#">
   <cc:Work>
    <dc:type rdf:resource="http://purl.org/dc/dcmitype/StillImage"/>
    <dc:date>2022-06-09T19:24:48.454804</dc:date>
    <dc:format>image/svg+xml</dc:format>
    <dc:creator>
     <cc:Agent>
      <dc:title>Matplotlib v3.5.2, https://matplotlib.org/</dc:title>
     </cc:Agent>
    </dc:creator>
   </cc:Work>
  </rdf:RDF>
 </metadata>
 <defs>
  <style type="text/css">*{stroke-linejoin: round; stroke-linecap: butt}</style>
 </defs>
 <g id="figure_1">
  <g id="patch_1">
   <path d="M 0 345.6 
L 460.8 345.6 
L 460.8 0 
L 0 0 
L 0 345.6 
z
" style="fill: none; opacity: 0"/>
  </g>
  <g id="axes_1">
   <g id="patch_2">
    <path d="M 57.6 307.584 
L 162.635294 307.584 
L 162.635294 41.472 
L 57.6 41.472 
L 57.6 307.584 
z
" style="fill: none; opacity: 0"/>
   </g>
   <g id="patch_3">
    <path d="M 57.6 53.568 
L 141.628235 53.568 
L 141.628235 104.498526 
L 57.6 104.498526 
z
" clip-path="url(#pe614b7374d)" style="fill: #0293e5"/>
   </g>
   <g id="patch_4">
    <path d="M 57.6 117.231158 
L 141.628235 117.231158 
L 141.628235 168.161684 
L 57.6 168.161684 
z
" clip-path="url(#pe614b7374d)" style="fill: #0293e5"/>
   </g>
   <g id="patch_5">
    <path d="M 57.6 180.894316 
L 162.635294 180.894316 
L 162.635294 231.824842 
L 57.6 231.824842 
z
" clip-path="url(#pe614b7374d)" style="fill: #7702e5"/>
   </g>
   <g id="patch_6">
    <path d="M 57.6 244.557474 
L 120.621176 244.557474 
L 120.621176 295.488 
L 57.6 295.488 
z
" clip-path="url(#pe614b7374d)" style="fill: #06e502"/>
   </g>
   <g id="matplotlib.axis_1"/>
   <g id="matplotlib.axis_2">
    <g id="ytick_1">
     <g id="line2d_1">
      <defs>
       <path id="mf9042f0f10" d="M 0 0 
L -3.5 0 
" style="stroke: #000000; stroke-width: 0.8"/>
      </defs>
      <g>
       <use xlink:href="#mf9042f0f10" x="57.6" y="79.033263" style="stroke: #000000; stroke-width: 0.8"/>
      </g>
     </g>
    </g>
    <g id="ytick_2">
     <g id="line2d_2">
      <g>
       <use xlink:href="#mf9042f0f10" x="57.6" y="142.696421" style="stroke: #000000; stroke-width: 0.8"/>
      </g>
     </g>
    </g>
    <g id="ytick_3">
     <g id="line2d_3">
      <g>
       <use xlink:href="#mf9042f0f10" x="57.6" y="206.359579" style="stroke: #000000; stroke-width: 0.8"/>
      </g>
     </g>
    </g>
    <g id="ytick_4">
     <g id="line2d_4">
      <g>
       <use xlink:href="#mf9042f0f10" x="57.6" y="270.022737" style="stroke: #000000; stroke-width: 0.8"/>
      </g>
     </g>
    </g>
   </g>
   <g id="patch_7">
    <path d="M 57.6 307.584 
L 57.6 41.472 
" style="fill: none; stroke: #000000; stroke-width: 0.8; stroke-linejoin: miter; stroke-linecap: square"/>
   </g>
  </g>
  <g id="axes_2">
   <g id="patch_8">
    <path d="M 183.642353 307.584 
L 288.677647 307.584 
L 288.677647 41.472 
L 183.642353 41.472 
L 183.642353 307.584 
z
" style="fill: none; opacity: 0"/>
   </g>
   <g id="patch_9">
    <path d="M 183.642353 53.568 
L 246.663529 53.568 
L 246.663529 104.498526 
L 183.642353 104.498526 
z
" clip-path="url(#p79e868951d)" style="fill: #06e502"/>
   </g>
   <g id="patch_10">
    <path d="M 183.642353 117.231158 
L 225.656471 117.231158 
L 225.656471 168.161684 
L 183.642353 168.161684 
z
" clip-path="url(#p79e868951d)" style="fill: #ff9633"/>
   </g>
   <g id="patch_11">
    <path d="M 183.642353 180.894316 
L 267.670588 180.894316 
L 267.670588 231.824842 
L 183.642353 231.824842 
z
" clip-path="url(#p79e868951d)" style="fill: #0293e5"/>
   </g>
   <g id="patch_12">
    <path d="M 183.642353 244.557474 
L 246.663529 244.557474 
L 246.663529 295.488 
L 183.642353 295.488 
z
" clip-path="url(#p79e868951d)" style="fill: #06e502"/>
   </g>
   <g id="matplotlib.axis_3"/>
   <g id="patch_13">
    <path d="M 183.642353 307.584 
L 183.642353 41.472 
" style="fill: none; stroke: #000000; stroke-width: 0.8; stroke-linejoin: miter; stroke-linecap: square"/>
   </g>
  </g>
  <g id="axes_3">
   <g id="patch_14">
    <path d="M 309.684706 307.584 
L 414.72 307.584 
L 414.72 41.472 
L 309.684706 41.472 
L 309.684706 307.584 
z
" style="fill: none; opacity: 0"/>
   </g>
   <g id="patch_15">
    <path d="M 309.684706 53.568 
L 393.712941 53.568 
L 393.712941 104.498526 
L 309.684706 104.498526 
z
" clip-path="url(#p0a80a21a38)" style="fill: #0293e5"/>
   </g>
   <g id="patch_16">
    <path d="M 309.684706 117.231158 
L 414.72 117.231158 
L 414.72 168.161684 
L 309.684706 168.161684 
z
" clip-path="url(#p0a80a21a38)" style="fill: #7702e5"/>
   </g>
   <g id="patch_17">
    <path d="M 309.684706 180.894316 
L 414.72 180.894316 
L 414.72 231.824842 
L 309.684706 231.824842 
z
" clip-path="url(#p0a80a21a38)" style="fill: #7702e5"/>
   </g>
   <g id="patch_18">
    <path d="M 309.684706 244.557474 
L 372.705882 244.557474 
L 372.705882 295.488 
L 309.684706 295.488 
z
" clip-path="url(#p0a80a21a38)" style="fill: #06e502"/>
   </g>
   <g id="matplotlib.axis_4"/>
   <g id="patch_19">
    <path d="M 309.684706 307.584 
L 309.684706 41.472 
" style="fill: none; stroke: #000000; stroke-width: 0.8; stroke-linejoin: miter; stroke-linecap: square"/>
   </g>
  </g>
 </g>
 <defs>
  <clipPath id="pe614b7374d">
   <rect x="57.6" y="41.472" width="105.035294" height="266.112"/>
  </clipPath>
  <clipPath id="p79e868951d">
   <rect x="183.642353" y="41.472" width="105.035294" height="266.112"/>
  </clipPath>
  <clipPath id="p0a80a21a38">
   <rect x="309.684706" y="41.472" width="105.035294" height="266.112"/>
  </clipPath>
 </defs>
</svg>
