<?xml version="1.0" encoding="utf-8"?>
<!-- Generator: Adobe Illustrator 26.5.0, SVG Export Plug-In . SVG Version: 6.00 Build 0)  -->
<svg version="1.1" id="Capa_1" xmlns="http://www.w3.org/2000/svg" xmlns:xlink="http://www.w3.org/1999/xlink" x="0px" y="0px"
	 viewBox="0 0 300 20" style="enable-background:new 0 0 300 20;" xml:space="preserve">
<style type="text/css">
	.st0{fill:#FF6666;}
	.st1{fill:#FFAB66;}
	.st2{fill:#5EE25A;}
	.st3{fill:#5AB8E2;}
	.st4{fill:#995AE2;}
</style>
<rect y="1.2" class="st0" width="58.3" height="17.6"/>
<rect x="60.4" y="1.2" class="st1" width="58.3" height="17.6"/>
<rect x="120.8" y="1.2" class="st2" width="58.3" height="17.6"/>
<rect x="181.3" y="1.2" class="st3" width="58.3" height="17.6"/>
<rect x="241.7" y="1.2" class="st4" width="58.3" height="17.6"/>
<g>
	<path d="M5.8,5.7h2.8L9.7,10l1.1-4.2h2.8v6.9h-1.8V7.3l-1.3,5.3H8.9L7.6,7.3v5.3H5.8V5.7z"/>
	<path d="M20.1,12.7h-1.8v-0.8c-0.3,0.4-0.5,0.5-0.8,0.7s-0.6,0.2-1,0.2c-0.5,0-1-0.2-1.2-0.4C15,12,14.9,11.6,14.9,11V7.7h1.9v2.7
		c0,0.4,0.1,0.5,0.2,0.7c0.1,0.1,0.3,0.2,0.5,0.2c0.3,0,0.4-0.1,0.5-0.3s0.2-0.5,0.2-1V7.7h1.9L20.1,12.7L20.1,12.7z"/>
	<path d="M20.6,7.7h2l1.1,3.3l1-3.3h1.8L24.6,13c-0.3,0.6-0.4,1.1-0.7,1.2c-0.4,0.4-0.9,0.5-1.5,0.5c-0.3,0-0.7,0-1.2-0.1L21,13.3
		c0.3,0.1,0.6,0.1,0.9,0.1s0.4-0.1,0.5-0.2c0.2-0.1,0.3-0.3,0.4-0.5L20.6,7.7z"/>
	<path d="M30.4,5.7h4c0.7,0,1.1,0.2,1.5,0.5c0.4,0.4,0.6,0.7,0.6,1.2c0,0.4-0.1,0.8-0.4,1.1c-0.2,0.2-0.4,0.4-0.7,0.4
		c0.5,0.1,0.9,0.4,1.1,0.6c0.2,0.3,0.4,0.6,0.4,1.1c0,0.4-0.1,0.7-0.3,1s-0.4,0.5-0.7,0.7c-0.2,0.1-0.4,0.2-0.8,0.3
		c-0.4,0.1-0.8,0.1-1,0.1h-3.7C30.4,12.7,30.4,5.7,30.4,5.7z M32.6,8.5h0.9c0.4,0,0.5-0.1,0.7-0.2c0.1-0.1,0.2-0.3,0.2-0.5
		s-0.1-0.4-0.2-0.4c-0.1-0.1-0.4-0.2-0.7-0.2h-1L32.6,8.5L32.6,8.5z M32.6,11.2h1.1c0.4,0,0.6-0.1,0.8-0.2c0.2-0.1,0.3-0.3,0.3-0.5
		s-0.1-0.4-0.3-0.5c-0.2-0.2-0.4-0.2-0.8-0.2h-1.1V11.2z"/>
	<path d="M39.4,9.3l-1.8-0.2c0.1-0.4,0.2-0.5,0.3-0.8s0.4-0.4,0.5-0.4c0.3-0.1,0.5-0.2,0.9-0.2c0.3-0.1,0.6-0.1,1-0.1
		c0.5,0,1.1,0,1.4,0.1c0.4,0.1,0.6,0.2,0.9,0.4c0.2,0.2,0.3,0.4,0.4,0.6c-0.1,0.3,0,0.6,0,0.7v2.2c0,0.3,0,0.4,0.1,0.5
		s0.1,0.3,0.2,0.5h-1.8c-0.1-0.1-0.1-0.3-0.2-0.3c0-0.1,0-0.2-0.1-0.4c-0.3,0.3-0.5,0.4-0.7,0.5c-0.4,0.2-0.7,0.2-1.1,0.2
		c-0.6,0-1.1-0.2-1.3-0.4c-0.3-0.3-0.4-0.6-0.4-1.1c0-0.4,0.1-0.7,0.4-1c0.3-0.3,0.6-0.4,1.2-0.5c0.7-0.2,1.1-0.3,1.4-0.3
		c0.3,0,0.2-0.1,0.4-0.2c0-0.3-0.1-0.4-0.2-0.5c-0.1-0.1-0.3-0.2-0.5-0.2c-0.4,0-0.5,0.1-0.7,0.2C39.6,8.9,39.5,9.1,39.4,9.3z
		 M41.1,10.3c-0.3,0.1-0.5,0.2-0.8,0.3c-0.4,0.1-0.6,0.2-0.7,0.3c-0.1,0.1-0.2,0.3-0.2,0.4c0,0.2,0.1,0.3,0.2,0.4
		c0.1,0.1,0.3,0.2,0.4,0.2c0.2,0,0.4-0.1,0.6-0.2s0.4-0.3,0.4-0.4c0.1-0.2,0.1-0.4,0.1-0.6V10.3z"/>
	<path d="M44.2,7.7h1.9v4.8c0,0.6-0.1,1.1-0.2,1.3c-0.1,0.3-0.3,0.4-0.5,0.6c-0.3,0.2-0.5,0.3-1,0.3c-0.4,0-0.8-0.1-1.4-0.2l0.3-1.4
		c0.2,0,0.3,0.1,0.4,0.1c0.2,0,0.3-0.1,0.4-0.2c0.1-0.1,0.1-0.4,0.1-0.7V7.7L44.2,7.7z M44.2,5.7h1.9V7h-1.9V5.7z"/>
	<path d="M47.1,10.1c0-0.8,0.3-1.4,0.8-1.8c0.5-0.4,1.2-0.7,2.1-0.7c1,0,1.8,0.3,2.3,0.9c0.4,0.4,0.6,1.1,0.6,1.8
		c0,0.8-0.3,1.4-0.8,1.8c-0.5,0.5-1.2,0.7-2.1,0.7c-0.8,0-1.4-0.2-1.9-0.6C47.3,11.6,47.1,11,47.1,10.1z M49,10.1
		c0,0.4,0.1,0.8,0.3,1s0.4,0.4,0.7,0.4s0.5-0.1,0.7-0.4c0.2-0.2,0.3-0.5,0.3-1c0-0.4-0.1-0.8-0.3-1C50.5,9,50.2,8.8,50,8.8
		c-0.3,0-0.5,0.1-0.7,0.4C49.1,9.4,49,9.7,49,10.1z"/>
</g>
<g>
	<path d="M78.5,5.7h4c0.7,0,1.1,0.2,1.5,0.5c0.4,0.4,0.5,0.7,0.5,1.2c0,0.4-0.1,0.8-0.4,1.1C84,8.7,83.7,8.9,83.4,9
		c0.5,0.1,0.9,0.4,1.1,0.6c0.2,0.3,0.4,0.6,0.4,1.1c0,0.4-0.1,0.7-0.3,1c-0.2,0.3-0.4,0.5-0.7,0.7c-0.2,0.1-0.4,0.2-0.8,0.3
		s-0.8,0.1-1,0.1h-3.7L78.5,5.7L78.5,5.7z M80.7,8.5h0.9c0.4,0,0.5-0.1,0.7-0.2c0.1-0.1,0.2-0.3,0.2-0.5s-0.1-0.4-0.2-0.4
		c-0.1-0.1-0.4-0.2-0.7-0.2h-1L80.7,8.5L80.7,8.5z M80.7,11.2h1.1c0.4,0,0.6-0.1,0.8-0.2c0.2-0.1,0.3-0.3,0.3-0.5s-0.1-0.4-0.3-0.5
		s-0.4-0.2-0.8-0.2h-1.1V11.2z"/>
	<path d="M87.6,9.3l-1.8-0.2c0.1-0.4,0.2-0.5,0.3-0.8c0.1-0.2,0.4-0.4,0.5-0.4s0.4-0.2,0.7-0.3c0.3-0.1,0.6-0.1,1-0.1
		c0.5,0,1.1,0,1.4,0.1c0.4,0.1,0.6,0.2,0.9,0.4c0.2,0.2,0.3,0.4,0.4,0.6c-0.1,0.3,0,0.6,0,0.7v2.2c0,0.3,0,0.4,0.1,0.5
		c0,0.2,0.1,0.3,0.2,0.5h-1.8c-0.1-0.1-0.1-0.3-0.2-0.3c0-0.1,0-0.2-0.1-0.4c-0.3,0.3-0.5,0.4-0.7,0.5c-0.4,0.2-0.7,0.2-1.1,0.2
		c-0.6,0-1.1-0.2-1.3-0.4c-0.3-0.3-0.4-0.6-0.4-1.1c0-0.4,0.1-0.7,0.4-1s0.6-0.4,1.2-0.5c0.7-0.2,1.1-0.3,1.4-0.3s0.4-0.2,0.7-0.3
		c0-0.3-0.1-0.4-0.2-0.5s-0.3-0.2-0.5-0.2c-0.4,0-0.5,0.1-0.7,0.2C87.7,8.9,87.7,9.1,87.6,9.3z M89.2,10.3c-0.3,0.1-0.5,0.2-0.8,0.3
		c-0.4,0.1-0.6,0.2-0.7,0.3s-0.2,0.3-0.2,0.4c0,0.2,0.1,0.3,0.2,0.4c0.1,0.1,0.3,0.2,0.4,0.2s0.4-0.1,0.6-0.2
		c0.2-0.1,0.4-0.3,0.4-0.4c0.1-0.2,0.1-0.4,0.1-0.6C89.2,10.6,89.2,10.3,89.2,10.3z"/>
	<path d="M92.3,7.7h1.9v4.8c0,0.6-0.1,1.1-0.2,1.3c-0.1,0.3-0.3,0.4-0.5,0.6c-0.3,0.2-0.6,0.3-1.1,0.3c-0.4,0-0.8-0.1-1.4-0.2
		l0.3-1.4c0.2,0,0.3,0.1,0.4,0.1c0.2,0,0.3-0.1,0.4-0.2c0.1-0.1,0.1-0.4,0.1-0.7L92.3,7.7L92.3,7.7z M92.3,5.7h1.9V7h-1.9V5.7z"/>
	<path d="M95.2,10.1c0-0.8,0.3-1.4,0.8-1.8c0.5-0.4,1.2-0.7,2.1-0.7c1,0,1.8,0.3,2.3,0.9c0.4,0.4,0.6,1.1,0.6,1.8
		c0,0.8-0.3,1.4-0.8,1.8c-0.5,0.5-1.2,0.7-2.1,0.7c-0.8,0-1.4-0.2-1.9-0.6C95.5,11.6,95.2,11,95.2,10.1z M97.2,10.1
		c0,0.4,0.1,0.8,0.3,1c0.2,0.2,0.4,0.4,0.7,0.4c0.3,0,0.5-0.1,0.7-0.4c0.2-0.2,0.3-0.5,0.3-1c0-0.4-0.1-0.8-0.3-1s-0.4-0.4-0.7-0.4
		c-0.3,0-0.5,0.1-0.7,0.4C97.2,9.4,97.2,9.7,97.2,10.1z"/>
</g>
<g>
	<path d="M131.5,5.7h2l2.6,3.8V5.7h2v6.9h-2l-2.6-3.8v3.8h-2V5.7z"/>
	<path d="M139.1,10.1c0-0.8,0.3-1.4,0.8-1.8c0.5-0.4,1.2-0.7,2.1-0.7c1,0,1.8,0.3,2.3,0.9c0.4,0.4,0.6,1.1,0.6,1.8
		c0,0.8-0.3,1.4-0.8,1.8c-0.5,0.5-1.2,0.7-2.1,0.7c-0.8,0-1.4-0.2-1.9-0.6C139.4,11.6,139.1,11,139.1,10.1z M141.1,10.1
		c0,0.4,0.1,0.8,0.3,1s0.4,0.4,0.7,0.4s0.5-0.1,0.7-0.4c0.2-0.3,0.3-0.5,0.3-1c0-0.4-0.1-0.8-0.3-1s-0.4-0.4-0.7-0.4
		s-0.5,0.1-0.7,0.4C141.2,9.4,141.1,9.7,141.1,10.1z"/>
	<path d="M145.7,7.7h1.8v0.8c0.2-0.4,0.4-0.6,0.5-0.7c0.2-0.2,0.4-0.2,0.7-0.2s0.6,0.1,0.9,0.3l-0.5,1.3c-0.3-0.1-0.4-0.2-0.5-0.2
		c-0.3,0-0.4,0.1-0.6,0.4c-0.2,0.3-0.3,0.8-0.3,1.7v1.7h-1.9L145.7,7.7L145.7,7.7z"/>
	<path d="M150.5,7.7h1.8v0.7c0.3-0.3,0.5-0.5,0.8-0.6s0.6-0.2,1-0.2s0.7,0.1,1,0.2c0.3,0.2,0.4,0.4,0.5,0.6c0.3-0.4,0.6-0.5,0.8-0.7
		c0.3-0.1,0.5-0.2,0.9-0.2c0.5,0,1,0.2,1.2,0.4c0.3,0.4,0.4,0.8,0.4,1.5v3.2H157V9.8c0-0.3,0-0.4-0.1-0.5c-0.1-0.2-0.3-0.3-0.4-0.3
		c-0.3,0-0.4,0.1-0.5,0.3c-0.2,0.2-0.2,0.4-0.2,0.8v2.6h-1.9V9.9c0-0.2,0-0.4,0-0.4c0-0.1-0.1-0.3-0.2-0.3c-0.1-0.1-0.2-0.1-0.4-0.1
		s-0.4,0.1-0.5,0.3c-0.2,0.2-0.2,0.4-0.2,0.8v2.6h-1.9v-5L150.5,7.7L150.5,7.7z"/>
	<path d="M161.8,9.3L160,9.1c0.1-0.4,0.2-0.5,0.3-0.8s0.4-0.4,0.5-0.4s0.4-0.2,0.7-0.3c0.3-0.1,0.6-0.1,1-0.1c0.5,0,1.1,0,1.4,0.1
		c0.4,0.1,0.6,0.2,0.9,0.4c0.2,0.2,0.3,0.4,0.4,0.6c0.1,0.3,0.2,0.5,0.2,0.7v2.2c0,0.3,0,0.4,0.1,0.5c0,0.2,0.1,0.3,0.2,0.5h-1.8
		c-0.1-0.1-0.1-0.3-0.2-0.3c0-0.1,0-0.2-0.1-0.4c-0.3,0.3-0.5,0.4-0.7,0.5c-0.4,0.2-0.7,0.2-1.1,0.2c-0.6,0-1.1-0.2-1.3-0.4
		c-0.3-0.3-0.4-0.6-0.4-1.1c0-0.4,0.1-0.7,0.4-1c0.3-0.3,0.6-0.4,1.2-0.5c0.7-0.2,1.1-0.3,1.4-0.3c0.2-0.1,0.4-0.2,0.7-0.3
		c0-0.3-0.1-0.4-0.2-0.5c-0.1-0.1-0.3-0.2-0.5-0.2c-0.4,0-0.5,0.1-0.7,0.2C162,8.9,161.9,9.1,161.8,9.3z M163.5,10.3
		c-0.3,0.1-0.5,0.2-0.8,0.3c-0.4,0.1-0.6,0.2-0.7,0.3c-0.1,0.1-0.2,0.3-0.2,0.4c0,0.2,0.1,0.3,0.2,0.4c0.1,0.1,0.3,0.2,0.4,0.2
		c0.2,0,0.4-0.1,0.6-0.2c0.2-0.1,0.4-0.3,0.4-0.4c0-0.1,0.1-0.4,0.1-0.6V10.3z"/>
	<path d="M166.6,5.7h1.9v6.9h-1.9V5.7z"/>
</g>
<g>
	<path d="M204.7,11.5h-2.4l-0.4,1.1h-2.2l2.6-6.9h2.3l2.6,6.9H205L204.7,11.5z M204.3,10l-0.8-2.5l-0.8,2.5H204.3z"/>
	<path d="M207.9,5.7h1.9v6.9h-1.9V5.7z"/>
	<path d="M213.3,5.7v1.9h1.1V9h-1.1v1.8c0,0.2,0,0.4,0.1,0.4c0.1,0.1,0.2,0.2,0.4,0.2s0.4,0,0.6-0.1l0.2,1.3
		c-0.4,0.1-0.9,0.2-1.3,0.2c-0.4,0-0.8-0.1-1.1-0.2c-0.3-0.1-0.4-0.3-0.5-0.5c-0.1-0.3-0.2-0.6-0.2-1.2V9.2h-0.8V7.7h0.7V6.8
		L213.3,5.7z"/>
	<path d="M215,10.1c0-0.8,0.3-1.4,0.8-1.8c0.5-0.5,1.2-0.7,2.1-0.7c1,0,1.8,0.3,2.3,0.9c0.4,0.4,0.6,1.1,0.6,1.8
		c0,0.8-0.3,1.4-0.8,1.8c-0.5,0.5-1.2,0.7-2.1,0.7c-0.8,0-1.4-0.2-1.9-0.6C215.3,11.6,215,11,215,10.1z M216.9,10.1
		c0,0.4,0.1,0.8,0.3,1s0.4,0.4,0.7,0.4s0.5-0.1,0.7-0.4c0.2-0.2,0.3-0.5,0.3-1c0-0.4-0.1-0.8-0.3-1s-0.4-0.4-0.7-0.4
		s-0.5,0.1-0.7,0.4S216.9,9.7,216.9,10.1z"/>
</g>
<g>
	<path d="M248.6,5.7h2.8l1.1,4.2l1.1-4.2h2.8v6.9h-1.8V7.3l-1.3,5.3h-1.6l-1.3-5.3v5.3h-1.8V5.7L248.6,5.7z"/>
	<path d="M262.8,12.7H261v-0.8c-0.3,0.4-0.5,0.5-0.8,0.7s-0.6,0.2-1,0.2c-0.5,0-1-0.2-1.2-0.4c-0.3-0.4-0.4-0.8-0.4-1.4V7.7h1.9v2.7
		c0,0.4,0.1,0.5,0.2,0.7c0.1,0.1,0.3,0.2,0.5,0.2c0.3,0,0.4-0.1,0.5-0.3c0.2-0.2,0.2-0.5,0.2-1V7.7h1.9L262.8,12.7L262.8,12.7z"/>
	<path d="M263.4,7.7h2l1.1,3.3l1-3.3h1.8l-1.9,5.3c-0.3,0.6-0.4,1.1-0.7,1.2c-0.4,0.3-0.8,0.4-1.5,0.4c-0.3,0-0.7,0-1.2-0.1
		l-0.2-1.3c0.3,0.1,0.6,0.1,0.9,0.1s0.4-0.1,0.5-0.2c0.2-0.1,0.3-0.3,0.4-0.5L263.4,7.7z"/>
	<path d="M277.4,11.5h-2.5l-0.4,1.1h-2.2l2.6-6.9h2.3l2.6,6.9h-2.2L277.4,11.5z M276.9,10l-0.8-2.5l-0.8,2.5H276.9z"/>
	<path d="M280.6,5.7h1.9v6.9h-1.9V5.7z"/>
	<path d="M286,5.7v1.9h1.1V9H286v1.8c0,0.2,0,0.4,0.1,0.4c0.1,0.1,0.2,0.2,0.4,0.2c0.2,0,0.4,0,0.6-0.1l0.2,1.3
		c-0.4,0.1-0.9,0.2-1.3,0.2s-0.8-0.1-1.1-0.2c-0.3-0.1-0.4-0.3-0.5-0.5c-0.1-0.3-0.2-0.6-0.2-1.2V9.2h-0.7V7.7h0.7V6.8L286,5.7z"/>
	<path d="M287.7,10.1c0-0.8,0.3-1.4,0.8-1.8c0.5-0.5,1.2-0.7,2.1-0.7c1,0,1.8,0.3,2.3,0.9c0.4,0.4,0.6,1.1,0.6,1.8
		c0,0.8-0.3,1.4-0.8,1.8c-0.5,0.5-1.2,0.7-2.1,0.7c-0.8,0-1.4-0.2-1.9-0.6C288,11.6,287.7,11,287.7,10.1z M289.6,10.1
		c0,0.4,0.1,0.8,0.3,1c0.2,0.2,0.4,0.4,0.7,0.4s0.5-0.1,0.7-0.4c0.2-0.2,0.3-0.5,0.3-1c0-0.4-0.1-0.8-0.3-1
		c-0.2-0.2-0.4-0.4-0.7-0.4s-0.5,0.1-0.7,0.4C289.7,9.4,289.6,9.7,289.6,10.1z"/>
</g>
</svg>
