<svg id="Capa_1" data-name="Capa 1" xmlns="http://www.w3.org/2000/svg" viewBox="0 0 132 135.5"><defs><style>.cls-1{fill:#6eb253;}</style></defs><title>Mesa de trabajo 7base</title><path class="cls-1" d="M86,82.11c0,3.2-.64,5.55-1.9,7a5.83,5.83,0,0,1-1.6,1.29,49.92,49.92,0,0,0-9.42-10,8.56,8.56,0,0,1,1.78-5.09,6.6,6.6,0,0,1,9.31,0C85.35,76.65,86,79,86,82.11Z"/><path class="cls-1" d="M65.43,66.82a18.69,18.69,0,0,0-2.34,2.93A13.87,13.87,0,0,0,60.31,66,17.25,17.25,0,0,0,48,61.46a18.82,18.82,0,0,0-10.6,3c-6.75-5.74-9.3-14.3-6.82-22.28a21.78,21.78,0,0,1,2.92-6,41.9,41.9,0,0,1,2.61-3.39C44.38,23,59.94,18,72.69,20.5A27.69,27.69,0,0,1,83,24.86,28.63,28.63,0,0,1,94.7,42.14c.12.53.22,1.06.31,1.6A63.38,63.38,0,0,0,101.74,63a14.13,14.13,0,0,0-3.46,1.93,11.07,11.07,0,0,0-3.15,3.83,18.1,18.1,0,0,0-1.4-1.64c-3.61-3.73-8.42-5.62-14.31-5.62a21.81,21.81,0,0,0-8.56,1.59A16.14,16.14,0,0,0,65.43,66.82Z"/><path class="cls-1" d="M98.26,75.25l-1.83-.18a15.71,15.71,0,0,1,.63-3.14,9,9,0,0,1,3-4.66,10.4,10.4,0,0,1,3.07-1.63c.94,1.68,1.92,3.32,2.93,4.94a4,4,0,0,0-1.72,1,6.34,6.34,0,0,0-1.4,4.12Z"/><path class="cls-1" d="M97.9,92.83q1.88-3.1,7.41-8.24A47.07,47.07,0,0,0,110.77,79a7.45,7.45,0,0,0,.39-.65c1.25,1.84,2.5,3.65,3.72,5.43A52.71,52.71,0,0,1,111,87.66c-2.08,1.91-3.4,3.17-3.95,3.8a10.44,10.44,0,0,0-1.35,1.83h13.08V99.4H95.65A15.89,15.89,0,0,1,97.9,92.83Z"/><path class="cls-1" d="M113,89.87q2.33-2.13,3.64-3.58c.91,1.35,1.81,2.68,2.66,4h-6.75Z"/><path class="cls-1" d="M91.61,95.29a14.78,14.78,0,0,1-4.79,3.32,37,37,0,0,0-2.74-5.71,8.88,8.88,0,0,0,2.22-1.83c1.78-2,2.66-5,2.66-9s-.86-6.88-2.59-8.82a9.6,9.6,0,0,0-13.79,0,10.15,10.15,0,0,0-2.27,5,26.47,26.47,0,0,0-6.62-2.79,16.8,16.8,0,0,1,.69-1.89l.15-.32a16,16,0,0,1,3-4.39A13.32,13.32,0,0,1,72,65.82a18.79,18.79,0,0,1,7.4-1.36q7.6,0,12.16,4.71a14.19,14.19,0,0,1,2.28,3.09,17.55,17.55,0,0,1,2,5.77,25.86,25.86,0,0,1,.33,4.24Q96.14,90.6,91.61,95.29Z"/><path class="cls-1" d="M124.61,124.82c-2.56,3.74-5.49,6.29-8.81,7.34-4,1.3-8.62.41-13.85-3.17-11.8-8.1-11-17.18-14.15-27.54a17.54,17.54,0,0,0,5-3.13c0,.25-.07.5-.1.76l-.36,3.32h29.43V94.21C128.18,105,131.42,114.89,124.61,124.82Z"/><path class="cls-1" d="M6.89,28.26c2.5-3.65,8-5.83,12.48-2.77,4.77,3.27,9.1,9.47,5.8,14.27-2.93,4.26-9.58,5-14.23,1.82-2.79-1.91-5-4.67-5.42-7.81A7.74,7.74,0,0,1,6.89,28.26Z"/><path class="cls-1" d="M21,15c1.57-2.28,5.9-2.53,9.14-.3a7.32,7.32,0,0,1,2.25,10.11c-1.61,2.33-4,3.31-7,1.22a12.54,12.54,0,0,1-4.51-6.11C20.2,17.85,20.25,16.14,21,15Z"/><path class="cls-1" d="M34.33,10.76a6.25,6.25,0,0,1,6-5.93c3.17,0,5.16,3.92,5.14,7,0,4-2.71,6.3-4.59,6.29s-3.59-2.42-5-3.89A4.87,4.87,0,0,1,34.33,10.76Z"/><path class="cls-1" d="M48.55,9.52c.23-1.14,0-2.14.16-3.19.39-1.92,1.91-2.44,3.88-2,3.52.71,5.3,5.11,4.62,8.56A4.21,4.21,0,0,1,52,16.21C49.6,15.73,47.79,13.33,48.55,9.52Z"/><path class="cls-1" d="M61.69,9.49c.19-.28.48-.59.61-.79l.82-1.2c1.78-.33,4-1.44,5.83-.19,1,.7,1.53,4.56,0,6.72a4.26,4.26,0,0,1-5.8,1.09A4.69,4.69,0,0,1,61.69,9.49Z"/><path d="M55.13,86.77l6.73,2.13q-1.56,5.63-5.15,8.36A14.68,14.68,0,0,1,47.58,100a14.78,14.78,0,0,1-11.25-4.68c-2.94-3.11-4.4-7.38-4.4-12.78q0-8.58,4.43-13.33A15.18,15.18,0,0,1,48,64.46a14.32,14.32,0,0,1,10.25,3.72,13.57,13.57,0,0,1,3.51,6.33l-6.87,1.64a7.08,7.08,0,0,0-7.24-5.76,7.83,7.83,0,0,0-6.2,2.74C39.87,75,39.07,77.92,39.07,82c0,4.35.79,7.44,2.35,9.28a7.58,7.58,0,0,0,6.09,2.77,7,7,0,0,0,4.76-1.76A10.18,10.18,0,0,0,55.13,86.77Z"/><path d="M62.8,82.43a22,22,0,0,1,1.57-8.81,16.17,16.17,0,0,1,3.2-4.71A13.32,13.32,0,0,1,72,65.82a18.8,18.8,0,0,1,7.41-1.36q7.59,0,12.15,4.71t4.56,13.1q0,8.33-4.52,13T79.51,100q-7.67,0-12.18-4.68T62.8,82.43ZM70,82.2q0,5.83,2.7,8.85a9.26,9.26,0,0,0,13.65,0q2.65-3,2.66-9t-2.59-8.82a9.6,9.6,0,0,0-13.79,0Q70,76.27,70,82.2Z"/><path d="M118.73,93.29V99.4H95.65a15.89,15.89,0,0,1,2.25-6.57q1.88-3.1,7.4-8.24A47.07,47.07,0,0,0,110.76,79a7.24,7.24,0,0,0,1.36-4,4.58,4.58,0,0,0-1.18-3.38,5,5,0,0,0-6.55.06A6.39,6.39,0,0,0,103,75.73l-6.56-.66q.58-5.43,3.68-7.8a12.34,12.34,0,0,1,7.73-2.37c3.4,0,6.06.92,8,2.75a9,9,0,0,1,2.9,6.82,11.76,11.76,0,0,1-.83,4.41,17.6,17.6,0,0,1-2.64,4.4A42.17,42.17,0,0,1,111,87.66c-2.08,1.91-3.39,3.17-4,3.8a11.57,11.57,0,0,0-1.35,1.83Z"/><path d="M61.77,74.51l-.72.17a1.66,1.66,0,0,0-.21-.06c-2.64-.82-5.55-1.69-8.47-2.68h0a7.14,7.14,0,0,0-4.2-1.53A45.63,45.63,0,0,1,40,66.35a16.41,16.41,0,0,1,8-1.89,14.3,14.3,0,0,1,10.24,3.72,12.59,12.59,0,0,1,3.08,5C61.49,73.58,61.63,74,61.77,74.51Z"/><path class="cls-1" d="M119.28,90.29l2.46,3.92Q120.57,92.28,119.28,90.29Z"/><path class="cls-1" d="M109.13,74.93c0,.11,0,.21,0,.32a4.59,4.59,0,0,1-.82,2c-.24.37-1.23,1.59-5,5.12C101.5,84,100,85.51,98.78,86.87a28.13,28.13,0,0,0,.36-4.6,29.14,29.14,0,0,0-.26-3.93l6.9.69.2-3.1c.12-1.76.54-2.2.56-2.22s.33-.35,1.14-.35h.2a1.43,1.43,0,0,1,.94.3A2,2,0,0,1,109.13,74.93Z"/></svg>