<svg id="Capa_1" data-name="Capa 1" xmlns="http://www.w3.org/2000/svg" viewBox="0 0 786 701.64"><defs><style>.cls-1{fill:#ccc;}.cls-2{fill:#e4da39;}.cls-3{fill:#6eb253;}</style></defs><title>Mesa de trabajo 2base</title><rect class="cls-1" x="26" y="53.04" width="87.8" height="368.36"/><path class="cls-1" d="M113.8,53V421.4H760V53ZM259.61,248h-130V69h130ZM422,248H292V69H422Zm162.36,0h-130V69h130Zm162.37,0h-130V69h130Z"/><path d="M24.61,30.41v7.16H23.23V22h8v1.34H24.61v5.71h3.8v1.33Z"/><path d="M35.89,37.57V22h8.88v1.34H37.29v5.71h3.85v1.33H37.29v5.81h7.48v1.35Z"/><path d="M59.66,27.07a5.8,5.8,0,0,1-.26,1.62,5,5,0,0,1-.83,1.59A4.53,4.53,0,0,1,57.1,31.5a4.63,4.63,0,0,1-2.19.48L53,32l1.59,1.39,1.66,1.44,1.63,1.43,1.51,1.31h-2l-6.59-5.63v5.63H49.43V22h3.76c.59,0,1.1,0,1.54,0a9.93,9.93,0,0,1,1.12.13,4.07,4.07,0,0,1,.82.21,5.35,5.35,0,0,1,.64.27,3.85,3.85,0,0,1,.92.71,5.24,5.24,0,0,1,.73,1,6.34,6.34,0,0,1,.49,1.22A5.14,5.14,0,0,1,59.66,27Zm-8.84,3.61h3.32a7.93,7.93,0,0,0,1.65-.14,3,3,0,0,0,1.33-.68A4.09,4.09,0,0,0,58,28.5,4.41,4.41,0,0,0,58.25,27a3.92,3.92,0,0,0-.42-1.72,2.91,2.91,0,0,0-2.59-1.8,19.51,19.51,0,0,0-2.05-.09H50.82Z"/><path d="M69.63,23.37v14.2h-1.4V23.37h-4V22h9.4v1.34Z"/><path d="M78.24,37.57V22h1.41V37.57Z"/><path d="M85,37.57V22h1.41V36.22h6.24v1.35Z"/><path d="M97.14,37.57V22h1.41V37.57Z"/><path d="M103.3,37.57l8-14.2h-8V22h10.35l-8,14.19h8.17v1.35Z"/><path d="M131.1,37.57l-.88-2.1-4.91,0h-4.9q-.24.49-.48,1.08c-.17.38-.32.74-.44,1.06H118L124.65,22h1.28l6.66,15.54ZM125.28,24c-.36.87-.72,1.72-1.08,2.54L123.14,29q-.52,1.23-1,2.49c-.35.84-.71,1.7-1.09,2.58h2.17l2.1,0,2.11,0,2.23,0Z"/><path d="M147.46,37.11a4.48,4.48,0,0,1-1.45.56,7.21,7.21,0,0,1-1.45.15,8.19,8.19,0,0,1-3.13-.6A7.75,7.75,0,0,1,137.15,33a8.49,8.49,0,0,1,0-6.42,7.73,7.73,0,0,1,4.28-4.22,8.38,8.38,0,0,1,3.13-.59,7.64,7.64,0,0,1,1.54.17,3.46,3.46,0,0,1,1.36.6V24a2.94,2.94,0,0,0-1.46-.77,8.11,8.11,0,0,0-1.44-.13,6.84,6.84,0,0,0-2.6.5A6.45,6.45,0,0,0,139.84,25a6.89,6.89,0,0,0-1.41,2.12,6.66,6.66,0,0,0-.53,2.67,6.73,6.73,0,0,0,.53,2.67,7,7,0,0,0,1.41,2.12A6.27,6.27,0,0,0,142,36a6.66,6.66,0,0,0,2.6.51c.25,0,.49,0,.7,0a4,4,0,0,0,.66-.16,4.35,4.35,0,0,0,.71-.32,8.42,8.42,0,0,0,.83-.53Z"/><path d="M152.2,37.57V22h1.41V37.57Z"/><path d="M174.78,29.8a8.06,8.06,0,0,1-.63,3.21,7.73,7.73,0,0,1-4.29,4.21,8.46,8.46,0,0,1-6.26,0A7.92,7.92,0,0,1,161,35.55,7.79,7.79,0,0,1,159.3,33a8.49,8.49,0,0,1,0-6.42A7.94,7.94,0,0,1,161,24a8.09,8.09,0,0,1,2.57-1.67,8.6,8.6,0,0,1,6.26,0,7.71,7.71,0,0,1,4.29,4.22A8.06,8.06,0,0,1,174.78,29.8Zm-1.39,0a6.66,6.66,0,0,0-.52-2.67A6.77,6.77,0,0,0,171.44,25a6.56,6.56,0,0,0-2.12-1.41,6.78,6.78,0,0,0-2.58-.5,6.85,6.85,0,0,0-2.61.5A6.56,6.56,0,0,0,162,25a6.75,6.75,0,0,0-1.42,2.12,6.83,6.83,0,0,0-.51,2.67A6.61,6.61,0,0,0,162,34.59a6.37,6.37,0,0,0,2.12,1.4,6.67,6.67,0,0,0,2.61.51,6.6,6.6,0,0,0,2.58-.51,6.37,6.37,0,0,0,2.12-1.4,6.89,6.89,0,0,0,1.43-2.12A6.73,6.73,0,0,0,173.39,29.8ZM164.51,22l-.65-1.14,5.4-3.15.67,1.14Z"/><path d="M191.24,37.57l-9.68-13.34V37.57h-1.38V22h1.49l9.53,13.1V22h1.41V37.57Z"/><path d="M213.75,37.57h-.92L206.21,22h1.54l5.54,13.12q1.41-3.32,2.8-6.56T218.88,22h1.51Z"/><path d="M235.89,37.57l-.89-2.1-4.9,0h-4.9q-.24.49-.48,1.08c-.17.38-.32.74-.45,1.06h-1.49L229.44,22h1.28l6.66,15.54ZM230.07,24c-.36.87-.72,1.72-1.08,2.54L227.93,29q-.52,1.23-1.05,2.49c-.35.84-.72,1.7-1.09,2.58H228l2.1,0,2.11,0,2.23,0Z"/><path d="M252.56,27.07a5.8,5.8,0,0,1-.26,1.62,5,5,0,0,1-.83,1.59A4.53,4.53,0,0,1,250,31.5a4.59,4.59,0,0,1-2.18.48l-1.94,0,1.59,1.39c.55.48,1.11,1,1.66,1.44l1.64,1.43c.54.46,1,.9,1.5,1.31h-2l-6.6-5.63v5.63h-1.39V22h3.76c.59,0,1.1,0,1.54,0a9.93,9.93,0,0,1,1.12.13,3.9,3.9,0,0,1,.82.21,5.35,5.35,0,0,1,.64.27,3.66,3.66,0,0,1,.92.71,4.85,4.85,0,0,1,.73,1,5.76,5.76,0,0,1,.49,1.22,5.14,5.14,0,0,1,.21,1.35Zm-8.84,3.61H247a7.93,7.93,0,0,0,1.65-.14,2.92,2.92,0,0,0,1.33-.68,3.94,3.94,0,0,0,.88-1.36,4.41,4.41,0,0,0,.26-1.52,4.07,4.07,0,0,0-.42-1.72,3.52,3.52,0,0,0-1.16-1.36,3.43,3.43,0,0,0-1.44-.44,19.38,19.38,0,0,0-2-.09h-2.37Z"/><path d="M257.62,37.57V22H259V37.57Z"/><path d="M276.88,37.57l-.89-2.1-4.9,0h-4.9q-.24.49-.48,1.08c-.17.38-.32.74-.45,1.06h-1.49L270.43,22h1.28l6.66,15.54ZM271.06,24c-.36.87-.72,1.72-1.08,2.54L268.92,29q-.53,1.23-1.05,2.49c-.35.84-.71,1.7-1.09,2.58H269l2.1,0,2.11,0,2.23,0Z"/><path d="M292.54,33.89a3.81,3.81,0,0,1-.38,1.8,2.93,2.93,0,0,1-1.09,1.12,4.67,4.67,0,0,1-1.61.59,11.38,11.38,0,0,1-2,.17h-4.09V22h3.53a6.48,6.48,0,0,1,1.62.16,4.79,4.79,0,0,1,1.15.43,3.71,3.71,0,0,1,.94.74,4.35,4.35,0,0,1,.6.89,3.77,3.77,0,0,1,.31.95,4.31,4.31,0,0,1,.1.92V27a5.21,5.21,0,0,1-.13,1.12,5.41,5.41,0,0,1-.42,1.25,3.25,3.25,0,0,1-.86,1.14,2.9,2.9,0,0,1,1.29.82,4.27,4.27,0,0,1,.71,1.1,4,4,0,0,1,.28,1C292.53,33.73,292.54,33.88,292.54,33.89Zm-2.31-7.83a2.52,2.52,0,0,0-.4-1.47,2.33,2.33,0,0,0-.88-.82,2.85,2.85,0,0,0-.72-.28,5.39,5.39,0,0,0-1.33-.12h-2.13c0,1.18,0,2.31,0,3.38s0,2.22,0,3.41H287a5.87,5.87,0,0,0,1.09-.1,4.21,4.21,0,0,0,.84-.24,1.66,1.66,0,0,0,.73-.73A4,4,0,0,0,290,28,6,6,0,0,0,290.2,27C290.22,26.6,290.23,26.3,290.23,26.06Zm.91,7.85A2.41,2.41,0,0,0,291,33a2.32,2.32,0,0,0-.54-.79,2.56,2.56,0,0,0-.87-.54,3,3,0,0,0-1.19-.18h-3.63c0,.83,0,1.61,0,2.35s0,1.53,0,2.37h2.71a8.69,8.69,0,0,0,1.45-.12,6,6,0,0,0,1.3-.38,1.37,1.37,0,0,0,.7-.7A2.75,2.75,0,0,0,291.14,33.91Z"/><path d="M297.73,37.57V22h1.41V36.22h6.23v1.35Z"/><path d="M310,37.57V22h8.89v1.34H311.4v5.71h3.84v1.33H311.4v5.81h7.48v1.35Z"/><path d="M342.94,26.61c0,2-.47,3.36-1.4,4.2a6.07,6.07,0,0,1-4.16,1.26h-2.44v5.5h-1.38V22h3.82c.46,0,.87,0,1.24,0a7,7,0,0,1,1,.15,4.68,4.68,0,0,1,.87.29,4.79,4.79,0,0,1,.81.48,3.67,3.67,0,0,1,1.19,1.51A5,5,0,0,1,342.94,26.61Zm-1.38,0a3.65,3.65,0,0,0-.31-1.47,2.77,2.77,0,0,0-.74-1.05,4,4,0,0,0-1.26-.56,7.85,7.85,0,0,0-1.85-.18h-2.46v7.37h2.46a6.88,6.88,0,0,0,1.86-.22,2.93,2.93,0,0,0,1.3-.71,3.08,3.08,0,0,0,.76-1.28A6.61,6.61,0,0,0,341.56,26.63Z"/><path d="M358.65,37.57l-.88-2.1-4.91,0H348l-.48,1.08c-.17.38-.32.74-.44,1.06h-1.49L352.2,22h1.28l6.66,15.54ZM352.83,24c-.36.87-.72,1.72-1.08,2.54S351,28.19,350.69,29s-.7,1.65-1.05,2.49-.71,1.7-1.09,2.58h2.17l2.1,0,2.11,0,2.23,0Z"/><path d="M375.33,27.07a5.49,5.49,0,0,1-.27,1.62,4.85,4.85,0,0,1-.83,1.59,4.53,4.53,0,0,1-1.47,1.22,4.59,4.59,0,0,1-2.18.48l-1.93,0c.5.45,1,.91,1.58,1.39s1.11,1,1.66,1.44l1.64,1.43c.54.46,1,.9,1.5,1.31h-1.95l-6.6-5.63v5.63H365.1V22h3.76c.58,0,1.1,0,1.53,0a9.66,9.66,0,0,1,1.12.13,3.9,3.9,0,0,1,.82.21,4.74,4.74,0,0,1,.64.27,3.71,3.71,0,0,1,.93.71,4.8,4.8,0,0,1,.72,1,5.76,5.76,0,0,1,.49,1.22,5.6,5.6,0,0,1,.22,1.35Zm-8.85,3.61h3.32a7.93,7.93,0,0,0,1.65-.14,2.87,2.87,0,0,0,1.33-.68,3.94,3.94,0,0,0,.88-1.36,4.41,4.41,0,0,0,.26-1.52,3.92,3.92,0,0,0-.42-1.72,3.43,3.43,0,0,0-1.16-1.36,3.34,3.34,0,0,0-1.44-.44,19.31,19.31,0,0,0-2-.09h-2.38Z"/><path d="M391.77,37.11a4.48,4.48,0,0,1-1.45.56,7.29,7.29,0,0,1-1.45.15,8.19,8.19,0,0,1-3.13-.6A7.75,7.75,0,0,1,381.46,33a8.49,8.49,0,0,1,0-6.42,7.73,7.73,0,0,1,4.28-4.22,8.38,8.38,0,0,1,3.13-.59,7.72,7.72,0,0,1,1.54.17,3.46,3.46,0,0,1,1.36.6V24a2.94,2.94,0,0,0-1.46-.77,8.11,8.11,0,0,0-1.44-.13,6.89,6.89,0,0,0-2.61.5A6.51,6.51,0,0,0,384.15,25a6.89,6.89,0,0,0-1.41,2.12,6.66,6.66,0,0,0-.53,2.67,6.73,6.73,0,0,0,.53,2.67,7,7,0,0,0,1.41,2.12,6.33,6.33,0,0,0,2.11,1.4,6.71,6.71,0,0,0,2.61.51c.25,0,.48,0,.7,0a4,4,0,0,0,.66-.16,4.35,4.35,0,0,0,.71-.32,8.42,8.42,0,0,0,.83-.53Z"/><path d="M396.64,37.57V22h8.88v1.34h-7.47v5.71h3.84v1.33h-3.84v5.81h7.47v1.35Z"/><path d="M410.16,37.57V22h1.41V36.22h6.24v1.35Z"/><path d="M435.19,37.57l-.88-2.1-4.9,0H424.5L424,36.51c-.17.38-.31.74-.44,1.06h-1.49L428.75,22H430l6.65,15.54ZM429.38,24c-.37.87-.73,1.72-1.09,2.54s-.71,1.65-1.06,2.47-.7,1.65-1.05,2.49-.71,1.7-1.09,2.58h2.18l2.1,0,2.11,0,2.22,0Z"/><path d="M451.87,27.07a5.49,5.49,0,0,1-.27,1.62,4.85,4.85,0,0,1-.83,1.59,4.39,4.39,0,0,1-1.46,1.22,4.63,4.63,0,0,1-2.19.48l-1.93,0c.5.45,1,.91,1.58,1.39s1.11,1,1.66,1.44l1.64,1.43c.54.46,1,.9,1.5,1.31h-1.95L443,31.94v5.63h-1.39V22h3.76c.59,0,1.1,0,1.53,0a9.86,9.86,0,0,1,1.13.13,4,4,0,0,1,.81.21,4.25,4.25,0,0,1,.64.27,3.71,3.71,0,0,1,.93.71,4.8,4.8,0,0,1,.72,1,5.78,5.78,0,0,1,.5,1.22,6.13,6.13,0,0,1,.21,1.35ZM443,30.68h3.31a7.81,7.81,0,0,0,1.65-.14,3,3,0,0,0,1.34-.68,4.09,4.09,0,0,0,.88-1.36,4.41,4.41,0,0,0,.25-1.52,3.92,3.92,0,0,0-.42-1.72,2.91,2.91,0,0,0-2.59-1.8,19.65,19.65,0,0,0-2.05-.09H443Z"/><path d="M456.93,37.57V22h1.4V37.57Z"/><path d="M476.18,37.57l-.88-2.1-4.9,0h-4.91L465,36.51c-.17.38-.31.74-.44,1.06h-1.49L469.74,22H471l6.65,15.54ZM470.37,24l-1.08,2.54L468.23,29c-.35.82-.71,1.65-1.06,2.49s-.71,1.7-1.09,2.58h2.18l2.1,0,2.11,0,2.22,0Z"/><polygon class="cls-2" points="119.78 176.44 104.92 185.02 90.07 193.6 38.11 193.6 38.11 159.28 90.07 159.28 104.92 167.86 119.78 176.44"/><path d="M43.55,169.89h2.6v7a13.42,13.42,0,0,0,.1,2.15,2.06,2.06,0,0,0,.79,1.27,2.79,2.79,0,0,0,1.72.48,2.62,2.62,0,0,0,1.67-.45,1.78,1.78,0,0,0,.68-1.11,15.58,15.58,0,0,0,.11-2.19v-7.13h2.6v6.77a17.47,17.47,0,0,1-.21,3.28,3.61,3.61,0,0,1-.77,1.61,3.86,3.86,0,0,1-1.52,1,6.4,6.4,0,0,1-2.48.4,7.22,7.22,0,0,1-2.8-.43,3.89,3.89,0,0,1-1.51-1.11A3.54,3.54,0,0,1,43.8,180a15.61,15.61,0,0,1-.25-3.27Z"/><path d="M60.18,182.78V169.89H69v2.18H62.79v3.05h5.37v2.18H62.79v5.48Z"/><path d="M74.76,182.78V169.89h4.18a14.85,14.85,0,0,1,3.09.2,3.3,3.3,0,0,1,1.85,1.26,4,4,0,0,1,.75,2.51,4.15,4.15,0,0,1-.43,2,3.59,3.59,0,0,1-1.09,1.27,3.85,3.85,0,0,1-1.35.61,15,15,0,0,1-2.7.19h-1.7v4.86Zm2.6-10.71v3.66h1.43a6.85,6.85,0,0,0,2-.2A1.69,1.69,0,0,0,82,173.89a1.69,1.69,0,0,0-.41-1.16,1.88,1.88,0,0,0-1.05-.57,12.15,12.15,0,0,0-1.87-.09Z"/><path d="M160.86,96.54l-.59-1.41-3.27,0h-3.27c-.1.22-.21.46-.32.72s-.21.49-.3.71h-1l4.44-10.37h.85l4.44,10.37ZM157,87.49c-.24.58-.48,1.14-.72,1.7s-.48,1.09-.71,1.64-.47,1.1-.7,1.66-.48,1.13-.73,1.72H157l1.41,0h1.48Z"/><path d="M171.45,92.9a4,4,0,0,1-.27,1.45,3.72,3.72,0,0,1-.78,1.24,3.59,3.59,0,0,1-1.22.86,3.84,3.84,0,0,1-1.62.32,3.78,3.78,0,0,1-1.74-.37,4.07,4.07,0,0,1-1.23-1v3.89h-.88V89.76a6.79,6.79,0,0,1,1-.44,5.43,5.43,0,0,1,.92-.24,9.13,9.13,0,0,1,.93-.1l1,0a3.69,3.69,0,0,1,1.61.34,3.77,3.77,0,0,1,2,2.13A4.07,4.07,0,0,1,171.45,92.9Zm-.88,0a3.37,3.37,0,0,0-.16-1,3.19,3.19,0,0,0-.54-1,3.13,3.13,0,0,0-1.05-.81,3.67,3.67,0,0,0-1.65-.33,6.26,6.26,0,0,0-1.16.12,12.05,12.05,0,0,0-1.42.37c0,.44,0,.88,0,1.33s0,.89,0,1.33a2.81,2.81,0,0,0,.2,1.2,3,3,0,0,0,.65,1,3,3,0,0,0,1,.62,3.18,3.18,0,0,0,2.35,0,2.84,2.84,0,0,0,1-.62,2.77,2.77,0,0,0,.65-.95A3.05,3.05,0,0,0,170.57,92.9Z"/><path d="M173.36,96.54V86.38h.88V96.54Z"/><path d="M176.33,88.09V86.38h.88v1.71Zm0,8.45V89.12h.88v7.42Z"/><path d="M185.16,96.16a4.59,4.59,0,0,1-1,.39,4.14,4.14,0,0,1-1.14.15,4,4,0,0,1-1.51-.28,3.56,3.56,0,0,1-1.24-.79,3.72,3.72,0,0,1-.83-1.22,3.91,3.91,0,0,1-.31-1.58,4,4,0,0,1,.29-1.52,3.92,3.92,0,0,1,.81-1.24,3.78,3.78,0,0,1,1.24-.82,3.93,3.93,0,0,1,1.55-.3,3.73,3.73,0,0,1,1.25.19,4,4,0,0,1,.85.4v1a7.52,7.52,0,0,0-1-.55,2.57,2.57,0,0,0-1.05-.22,3.12,3.12,0,0,0-1.14.21,2.86,2.86,0,0,0-1.64,1.56,3.15,3.15,0,0,0-.24,1.26,3.05,3.05,0,0,0,.24,1.22,2.94,2.94,0,0,0,.66,1,2.65,2.65,0,0,0,1,.62,3,3,0,0,0,1.16.23,2.59,2.59,0,0,0,1-.16c.25-.11.46-.21.62-.3l.07-.06.13-.13.26-.25Z"/><path d="M194,96.54V95.41a3.4,3.4,0,0,1-1.27,1,4.13,4.13,0,0,1-1.68.33,3.86,3.86,0,0,1-1.63-.33,3.63,3.63,0,0,1-1.23-.86,3.8,3.8,0,0,1-.77-1.24,4,4,0,0,1,0-2.91,3.71,3.71,0,0,1,2-2.09A3.84,3.84,0,0,1,191,89h3.85v7.59Zm-3-6.74a3.09,3.09,0,0,0-1.17.23,2.69,2.69,0,0,0-1,.62,2.92,2.92,0,0,0-.65.95,3.25,3.25,0,0,0-.23,1.23,3.14,3.14,0,0,0,.19,1.07,2.86,2.86,0,0,0,.56,1,3,3,0,0,0,1,.71,3.11,3.11,0,0,0,1.34.27,2.79,2.79,0,0,0,1.21-.25,2.94,2.94,0,0,0,.93-.65,2.76,2.76,0,0,0,.6-1,16.7,16.7,0,0,0,.18-3.4v-.8Z"/><path d="M203.09,96.16a4.59,4.59,0,0,1-1,.39,4.14,4.14,0,0,1-1.14.15,4,4,0,0,1-1.51-.28,3.56,3.56,0,0,1-1.24-.79,3.72,3.72,0,0,1-.83-1.22,3.91,3.91,0,0,1-.31-1.58,3.82,3.82,0,0,1,.3-1.52,3.69,3.69,0,0,1,2-2.06A4,4,0,0,1,201,89a3.69,3.69,0,0,1,1.25.19,3.78,3.78,0,0,1,.85.4v1a7,7,0,0,0-1-.55,2.56,2.56,0,0,0-1-.22,3.17,3.17,0,0,0-1.15.21,3,3,0,0,0-1,.6,2.74,2.74,0,0,0-.66,1,3,3,0,0,0-.25,1.26,3,3,0,0,0,.9,2.17,2.74,2.74,0,0,0,1,.62,3,3,0,0,0,1.16.23,2.68,2.68,0,0,0,1-.16c.25-.11.45-.21.61-.3l.07-.06.13-.13.26-.25Z"/><path d="M205,88.09V86.38h.88v1.71Zm0,8.45V89.12h.88v7.42Z"/><path d="M215.73,92.83a4,4,0,0,1-.29,1.54,3.84,3.84,0,0,1-.82,1.23,4,4,0,0,1-1.23.81,3.93,3.93,0,0,1-1.55.29,3.88,3.88,0,0,1-1.54-.29,3.92,3.92,0,0,1-1.24-.81,3.84,3.84,0,0,1-.82-1.23,4.14,4.14,0,0,1-.29-1.54,4.06,4.06,0,0,1,.29-1.54,3.84,3.84,0,0,1,.82-1.23,3.78,3.78,0,0,1,1.24-.82,3.88,3.88,0,0,1,1.54-.29,3.93,3.93,0,0,1,1.55.29,3.8,3.8,0,0,1,2.34,3.59Zm-.88,0a3,3,0,0,0-.23-1.21,2.86,2.86,0,0,0-.63-1,3,3,0,0,0-1-.63,3.17,3.17,0,0,0-1.2-.23,3,3,0,0,0-2.13.86,2.86,2.86,0,0,0-.63,1,3.3,3.3,0,0,0,0,2.42,2.82,2.82,0,0,0,.63.95,3,3,0,0,0,2.13.86,3.17,3.17,0,0,0,1.2-.23,3,3,0,0,0,1-.63,2.82,2.82,0,0,0,.63-.95A3,3,0,0,0,214.85,92.83Z"/><path d="M224,96.54V92.63a3.85,3.85,0,0,0-.21-1.38,2.13,2.13,0,0,0-.55-.86,2.92,2.92,0,0,0-.65-.4,2.71,2.71,0,0,0-1.13-.19l-2.53,0v6.72H218V89h3.39a4.11,4.11,0,0,1,.47,0,2.62,2.62,0,0,1,.58.1,3.75,3.75,0,0,1,.64.22,3.51,3.51,0,0,1,.68.41,3.66,3.66,0,0,1,1.1,2.93v3.91Z"/><path d="M233.78,96.54V87.25h-1.85v-.87h2.77V96.54Z"/><path d="M317.73,96.54l-.58-1.41-3.27,0h-3.27c-.11.22-.21.46-.32.72s-.21.49-.3.71h-1l4.44-10.37h.85l4.44,10.37Zm-3.87-9.05-.73,1.7c-.23.55-.47,1.09-.7,1.64s-.47,1.1-.7,1.66L311,94.21h2.85l1.41,0h1.48Z"/><path d="M328.33,92.9a4,4,0,0,1-.27,1.45,3.72,3.72,0,0,1-.78,1.24,3.59,3.59,0,0,1-1.22.86,3.84,3.84,0,0,1-1.62.32,3.78,3.78,0,0,1-1.74-.37,4.07,4.07,0,0,1-1.23-1v3.89h-.88V89.76a6.79,6.79,0,0,1,1-.44,5.2,5.2,0,0,1,.92-.24,9.13,9.13,0,0,1,.93-.1l1,0a3.7,3.7,0,0,1,1.62.34,3.94,3.94,0,0,1,1.23.88,3.72,3.72,0,0,1,.76,1.25A4.08,4.08,0,0,1,328.33,92.9Zm-.88,0a3.37,3.37,0,0,0-.16-1,3,3,0,0,0-.55-1,3,3,0,0,0-1-.81,3.67,3.67,0,0,0-1.65-.33,6.18,6.18,0,0,0-1.16.12,11.57,11.57,0,0,0-1.42.37c0,.44,0,.88,0,1.33s0,.89,0,1.33a2.81,2.81,0,0,0,.2,1.2,3,3,0,0,0,.65,1,3,3,0,0,0,1,.62,3.15,3.15,0,0,0,1.19.23,3.19,3.19,0,0,0,1.16-.22,2.94,2.94,0,0,0,1-.62,2.77,2.77,0,0,0,.65-.95A3.05,3.05,0,0,0,327.45,92.9Z"/><path d="M330.23,96.54V86.38h.89V96.54Z"/><path d="M333.2,88.09V86.38h.89v1.71Zm0,8.45V89.12h.89v7.42Z"/><path d="M342,96.16a4.59,4.59,0,0,1-1,.39,4.14,4.14,0,0,1-1.14.15,4,4,0,0,1-1.51-.28,3.56,3.56,0,0,1-1.24-.79,3.9,3.9,0,0,1-.84-1.22,4.08,4.08,0,0,1-.3-1.58,3.81,3.81,0,0,1,.29-1.52,3.75,3.75,0,0,1,.81-1.24,3.84,3.84,0,0,1,1.23-.82,4,4,0,0,1,1.56-.3,3.67,3.67,0,0,1,1.24.19,3.88,3.88,0,0,1,.86.4v1A7.61,7.61,0,0,0,341,90a2.52,2.52,0,0,0-1-.22,3.21,3.21,0,0,0-1.15.21,3,3,0,0,0-1,.6,2.9,2.9,0,0,0-.67,1,3.15,3.15,0,0,0-.24,1.26,3,3,0,0,0,.89,2.17,2.74,2.74,0,0,0,.95.62,3.09,3.09,0,0,0,1.17.23,2.59,2.59,0,0,0,1-.16,5.82,5.82,0,0,0,.61-.3l.08-.06.13-.13L342,95Z"/><path d="M350.84,96.54V95.41a3.43,3.43,0,0,1-1.28,1,4.06,4.06,0,0,1-1.68.33,3.89,3.89,0,0,1-1.63-.33,3.59,3.59,0,0,1-1.22-.86,3.8,3.8,0,0,1-.77-1.24,4,4,0,0,1-.27-1.44,3.81,3.81,0,0,1,.28-1.47A3.78,3.78,0,0,1,347.87,89h3.85v7.59Zm-3-6.74a3,3,0,0,0-1.16.23,2.69,2.69,0,0,0-1,.62,2.92,2.92,0,0,0-.65.95,3.07,3.07,0,0,0-.24,1.23,3.4,3.4,0,0,0,.19,1.07,3.06,3.06,0,0,0,.57,1,3,3,0,0,0,.95.71,3.13,3.13,0,0,0,1.35.27,2.82,2.82,0,0,0,1.21-.25,2.94,2.94,0,0,0,.93-.65,2.76,2.76,0,0,0,.6-1,16.7,16.7,0,0,0,.18-3.4v-.8Z"/><path d="M360,96.16a4.59,4.59,0,0,1-1,.39,4.14,4.14,0,0,1-1.14.15,4,4,0,0,1-1.51-.28,3.56,3.56,0,0,1-1.24-.79,3.72,3.72,0,0,1-.83-1.22,3.91,3.91,0,0,1-.31-1.58,4,4,0,0,1,.29-1.52,3.92,3.92,0,0,1,.81-1.24,3.78,3.78,0,0,1,1.24-.82,3.93,3.93,0,0,1,1.55-.3,3.73,3.73,0,0,1,1.25.19,3.78,3.78,0,0,1,.85.4v1a7,7,0,0,0-1-.55,2.57,2.57,0,0,0-1.05-.22,3.12,3.12,0,0,0-1.14.21,2.93,2.93,0,0,0-1,.6,2.74,2.74,0,0,0-.66,1,3,3,0,0,0-.25,1.26,3,3,0,0,0,.9,2.17,2.65,2.65,0,0,0,.95.62,3,3,0,0,0,1.16.23,2.59,2.59,0,0,0,1-.16,6.12,6.12,0,0,0,.62-.3l.07-.06.13-.13L360,95Z"/><path d="M361.92,88.09V86.38h.88v1.71Zm0,8.45V89.12h.88v7.42Z"/><path d="M372.61,92.83a4.14,4.14,0,0,1-.29,1.54,3.84,3.84,0,0,1-.82,1.23,4,4,0,0,1-1.23.81,4.29,4.29,0,0,1-3.1,0,4,4,0,0,1-1.23-.81,3.84,3.84,0,0,1-.82-1.23,4.14,4.14,0,0,1-.29-1.54,4.06,4.06,0,0,1,.29-1.54,3.77,3.77,0,0,1,2.05-2.05,4.29,4.29,0,0,1,3.1,0,3.77,3.77,0,0,1,2.05,2.05A4.06,4.06,0,0,1,372.61,92.83Zm-.88,0a3.22,3.22,0,0,0-.23-1.21,2.86,2.86,0,0,0-.63-1,3,3,0,0,0-2.15-.86,3,3,0,0,0-2.13.86,3,3,0,0,0-.64,1A3.3,3.3,0,0,0,366,94a3,3,0,0,0,.64.95,3,3,0,0,0,2.13.86,3,3,0,0,0,2.15-.86,2.82,2.82,0,0,0,.63-.95A3.22,3.22,0,0,0,371.73,92.83Z"/><path d="M380.87,96.54V92.63a4.11,4.11,0,0,0-.2-1.38,2.24,2.24,0,0,0-.55-.86,2.92,2.92,0,0,0-.65-.4,2.74,2.74,0,0,0-1.13-.19l-2.54,0v6.72h-.88V89h3.39a4.2,4.2,0,0,1,.47,0,2.62,2.62,0,0,1,.58.1,3.75,3.75,0,0,1,.64.22,3.45,3.45,0,0,1,.67.41,3.63,3.63,0,0,1,1.11,2.93v3.91Z"/><path d="M395.57,89.44a2.84,2.84,0,0,1-.42,1.41,8.49,8.49,0,0,1-1.08,1.32l-.88.91c-.28.28-.56.55-.83.83l-.83.84-.9.92h4.94v.87h-6.34v-.72l4.23-4.31a6.79,6.79,0,0,0,.89-1.09,2.1,2.1,0,0,0,.31-1V89.3a2.19,2.19,0,0,0-.17-.9,2.08,2.08,0,0,0-.46-.7,1.8,1.8,0,0,0-.69-.45,2.24,2.24,0,0,0-.86-.17,2.06,2.06,0,0,0-.81.17,2.21,2.21,0,0,0-.68.51,2.65,2.65,0,0,0-.49.86,4.06,4.06,0,0,0-.19,1.22h-.93a4.49,4.49,0,0,1,.31-1.65,3.59,3.59,0,0,1,.75-1.13,3,3,0,0,1,1-.64,3.27,3.27,0,0,1,1.09-.2,3,3,0,0,1,1.19.23,2.83,2.83,0,0,1,1,.64,3,3,0,0,1,.64,1,3.15,3.15,0,0,1,.24,1.24Z"/><path d="M480.1,96.54l-.59-1.41-3.27,0H473c-.1.22-.21.46-.32.72s-.21.49-.29.71h-1l4.44-10.37h.86l4.43,10.37Zm-3.88-9.05c-.24.58-.48,1.14-.72,1.7l-.71,1.64-.7,1.66c-.23.56-.47,1.13-.72,1.72h2.85l1.4,0h1.49Z"/><path d="M490.7,92.9a4,4,0,0,1-.27,1.45,4.07,4.07,0,0,1-.78,1.24,3.73,3.73,0,0,1-1.23.86,4.27,4.27,0,0,1-3.36,0,4,4,0,0,1-1.22-1v3.89H483V89.76a6.34,6.34,0,0,1,1-.44,5.1,5.1,0,0,1,.91-.24c.31,0,.62-.08.93-.1l1,0a3.7,3.7,0,0,1,1.62.34,3.78,3.78,0,0,1,1.22.88,3.59,3.59,0,0,1,.77,1.25A4.08,4.08,0,0,1,490.7,92.9Zm-.88,0a3.76,3.76,0,0,0-.16-1,3,3,0,0,0-.55-1,3.09,3.09,0,0,0-1-.81,3.69,3.69,0,0,0-1.66-.33,6.26,6.26,0,0,0-1.16.12,11.45,11.45,0,0,0-1.41.37c0,.44,0,.88,0,1.33s0,.89,0,1.33a2.67,2.67,0,0,0,.2,1.2,3,3,0,0,0,.64,1,3.09,3.09,0,0,0,1,.62,3.15,3.15,0,0,0,1.19.23,3.23,3.23,0,0,0,1.16-.22,3,3,0,0,0,1-.62,2.92,2.92,0,0,0,.65-.95A3.05,3.05,0,0,0,489.82,92.9Z"/><path d="M492.6,96.54V86.38h.88V96.54Z"/><path d="M495.57,88.09V86.38h.88v1.71Zm0,8.45V89.12h.88v7.42Z"/><path d="M504.4,96.16a4.38,4.38,0,0,1-1,.39,4.29,4.29,0,0,1-2.65-.13,3.65,3.65,0,0,1-1.24-.79,3.85,3.85,0,0,1-1.14-2.8,3.82,3.82,0,0,1,.3-1.52,3.69,3.69,0,0,1,2-2.06,4,4,0,0,1,1.55-.3,3.69,3.69,0,0,1,1.25.19,3.78,3.78,0,0,1,.85.4v1a7,7,0,0,0-1-.55,2.56,2.56,0,0,0-1-.22,3.17,3.17,0,0,0-1.15.21,3,3,0,0,0-1,.6,2.74,2.74,0,0,0-.66,1,3.15,3.15,0,0,0-.25,1.26,3.06,3.06,0,0,0,.25,1.22,2.92,2.92,0,0,0,.65,1,2.74,2.74,0,0,0,.95.62,3,3,0,0,0,1.16.23,2.68,2.68,0,0,0,1-.16c.25-.11.45-.21.61-.3l.07-.06.13-.13.26-.25Z"/><path d="M513.21,96.54V95.41a3.43,3.43,0,0,1-1.28,1,4.06,4.06,0,0,1-1.68.33,3.86,3.86,0,0,1-1.63-.33,3.59,3.59,0,0,1-1.22-.86,3.64,3.64,0,0,1-.77-1.24,4.06,4.06,0,0,1,0-2.91,3.72,3.72,0,0,1,.78-1.24A3.82,3.82,0,0,1,510.24,89h3.85v7.59Zm-3-6.74a3.09,3.09,0,0,0-1.17.23,2.69,2.69,0,0,0-1,.62,2.89,2.89,0,0,0-.64.95,3.07,3.07,0,0,0-.24,1.23,3.14,3.14,0,0,0,.19,1.07,3.06,3.06,0,0,0,.57,1,3,3,0,0,0,.95.71,3.11,3.11,0,0,0,1.34.27,2.76,2.76,0,0,0,1.21-.25,3.1,3.1,0,0,0,.94-.65,2.76,2.76,0,0,0,.6-1,16.7,16.7,0,0,0,.18-3.4v-.8Z"/><path d="M522.34,96.16a4.59,4.59,0,0,1-1,.39,4.14,4.14,0,0,1-1.14.15,4,4,0,0,1-1.51-.28,3.56,3.56,0,0,1-1.24-.79,3.9,3.9,0,0,1-.84-1.22,4.08,4.08,0,0,1-.3-1.58,3.81,3.81,0,0,1,.29-1.52,3.92,3.92,0,0,1,.81-1.24,3.84,3.84,0,0,1,1.23-.82,4,4,0,0,1,1.56-.3,3.67,3.67,0,0,1,1.24.19,3.88,3.88,0,0,1,.86.4v1a7.08,7.08,0,0,0-1.05-.55,2.52,2.52,0,0,0-1-.22,3.21,3.21,0,0,0-1.15.21,3,3,0,0,0-1,.6,2.9,2.9,0,0,0-.67,1,3.15,3.15,0,0,0-.24,1.26,3,3,0,0,0,.89,2.17,2.69,2.69,0,0,0,1,.62,3,3,0,0,0,1.16.23,2.59,2.59,0,0,0,1-.16c.25-.11.46-.21.62-.3l.07-.06.13-.13.26-.25Z"/><path d="M524.28,88.09V86.38h.89v1.71Zm0,8.45V89.12h.89v7.42Z"/><path d="M535,92.83a4,4,0,0,1-.3,1.54,3.66,3.66,0,0,1-.81,1.23,4,4,0,0,1-1.24.81,3.88,3.88,0,0,1-1.54.29,3.93,3.93,0,0,1-1.55-.29,4,4,0,0,1-1.23-.81,3.69,3.69,0,0,1-.82-1.23,4,4,0,0,1-.3-1.54,3.88,3.88,0,0,1,.3-1.54,3.69,3.69,0,0,1,.82-1.23,3.84,3.84,0,0,1,1.23-.82,3.93,3.93,0,0,1,1.55-.29,3.86,3.86,0,0,1,2.78,1.11,3.66,3.66,0,0,1,.81,1.23A3.88,3.88,0,0,1,535,92.83Zm-.88,0a2.9,2.9,0,0,0-1.82-2.8,3.19,3.19,0,0,0-2.38,0,3.15,3.15,0,0,0-.95.63,3.21,3.21,0,0,0-.63,3.38,2.87,2.87,0,0,0,1.58,1.58,3.19,3.19,0,0,0,2.38,0,3.2,3.2,0,0,0,1-.63,3.15,3.15,0,0,0,.63-.95A3.22,3.22,0,0,0,534.1,92.83Z"/><path d="M543.24,96.54V92.63a4.11,4.11,0,0,0-.2-1.38,2.14,2.14,0,0,0-.56-.86,2.71,2.71,0,0,0-.65-.4,2.66,2.66,0,0,0-1.12-.19l-2.54,0v6.72h-.88V89h3.38a4.11,4.11,0,0,1,.47,0,2.52,2.52,0,0,1,.58.1,3.84,3.84,0,0,1,.65.22,3.78,3.78,0,0,1,.67.41,3.63,3.63,0,0,1,1.11,2.93v3.91Z"/><path d="M557.94,93.45a3.52,3.52,0,0,1-.24,1.34A3,3,0,0,1,556,96.47a3.47,3.47,0,0,1-1.31.23,2.93,2.93,0,0,1-1.15-.24,3,3,0,0,1-1-.68,3.51,3.51,0,0,1-.72-1.09,3.6,3.6,0,0,1-.28-1.47h.91a2.93,2.93,0,0,0,.24,1.17,2.41,2.41,0,0,0,.55.81,2.14,2.14,0,0,0,.74.48,2.2,2.2,0,0,0,.78.15,2.4,2.4,0,0,0,1-.18,2,2,0,0,0,.71-.49,2.25,2.25,0,0,0,.46-.74,2.65,2.65,0,0,0,.16-.89,2.77,2.77,0,0,0-.13-.78,2.16,2.16,0,0,0-.44-.76,2.32,2.32,0,0,0-.78-.57,2.79,2.79,0,0,0-1.14-.22h-.77v-.88h.75a2.09,2.09,0,0,0,1-.21,1.51,1.51,0,0,0,.8-1,2.91,2.91,0,0,0,0-.39,1.62,1.62,0,0,0-.44-1.17,1.48,1.48,0,0,0-1.12-.45,1.44,1.44,0,0,0-.67.15,1.54,1.54,0,0,0-.51.4,2,2,0,0,0-.35.58,2.36,2.36,0,0,0-.14.71h-.92a3.25,3.25,0,0,1,.28-1.18,2.7,2.7,0,0,1,.6-.85,2.38,2.38,0,0,1,.79-.51,2.44,2.44,0,0,1,.88-.16,2.68,2.68,0,0,1,.93.16,2.38,2.38,0,0,1,.8.47,2.23,2.23,0,0,1,.56.78,2.6,2.6,0,0,1,.21,1.08,2.49,2.49,0,0,1,0,.53,2.72,2.72,0,0,1-.18.55,2.43,2.43,0,0,1-.3.52,1.88,1.88,0,0,1-.46.43,3.22,3.22,0,0,1,.82.63,2.88,2.88,0,0,1,.5.73,3.16,3.16,0,0,1,.25.73A3.08,3.08,0,0,1,557.94,93.45Z"/><path d="M647.72,96.54l-.59-1.41-3.27,0h-3.27c-.1.22-.21.46-.32.72s-.21.49-.29.71h-1l4.44-10.37h.85l4.44,10.37Zm-3.88-9.05c-.24.58-.48,1.14-.72,1.7l-.71,1.64-.7,1.66c-.23.56-.47,1.13-.73,1.72h2.85l1.41,0h1.48Z"/><path d="M658.32,92.9a3.82,3.82,0,0,1-.28,1.45,3.86,3.86,0,0,1-.77,1.24,3.73,3.73,0,0,1-1.23.86,3.84,3.84,0,0,1-1.62.32,3.78,3.78,0,0,1-1.74-.37,3.91,3.91,0,0,1-1.22-1v3.89h-.89V89.76a7.31,7.31,0,0,1,1-.44,5.43,5.43,0,0,1,.92-.24,9.13,9.13,0,0,1,.93-.1l1,0a3.73,3.73,0,0,1,1.62.34,3.89,3.89,0,0,1,1.22.88,3.74,3.74,0,0,1,.77,1.25A4.08,4.08,0,0,1,658.32,92.9Zm-.89,0a3.37,3.37,0,0,0-.16-1,3,3,0,0,0-.54-1,3.13,3.13,0,0,0-1.05-.81,3.62,3.62,0,0,0-1.65-.33,6.26,6.26,0,0,0-1.16.12,11.45,11.45,0,0,0-1.41.37c0,.44,0,.88,0,1.33l0,1.33a2.81,2.81,0,0,0,.21,1.2,3,3,0,0,0,.64,1,3.16,3.16,0,0,0,1,.62,3.19,3.19,0,0,0,1.19.23,3.29,3.29,0,0,0,1.17-.22,2.89,2.89,0,0,0,.95-.62,2.79,2.79,0,0,0,.66-.95A3.23,3.23,0,0,0,657.43,92.9Z"/><path d="M660.22,96.54V86.38h.88V96.54Z"/><path d="M663.19,88.09V86.38h.88v1.71Zm0,8.45V89.12h.88v7.42Z"/><path d="M672,96.16a4.59,4.59,0,0,1-1,.39,4.14,4.14,0,0,1-1.14.15,4,4,0,0,1-1.51-.28,3.56,3.56,0,0,1-1.24-.79,3.72,3.72,0,0,1-.83-1.22,3.91,3.91,0,0,1-.31-1.58,4,4,0,0,1,.29-1.52,3.78,3.78,0,0,1,.82-1.24,3.63,3.63,0,0,1,1.23-.82,3.93,3.93,0,0,1,1.55-.3,3.73,3.73,0,0,1,1.25.19,3.78,3.78,0,0,1,.85.4v1a7,7,0,0,0-1-.55,2.56,2.56,0,0,0-1-.22,3.13,3.13,0,0,0-1.15.21,2.93,2.93,0,0,0-1,.6,2.74,2.74,0,0,0-.66,1,3,3,0,0,0-.25,1.26,3,3,0,0,0,.9,2.17,2.74,2.74,0,0,0,1,.62,3,3,0,0,0,1.16.23,2.59,2.59,0,0,0,1-.16,6.12,6.12,0,0,0,.62-.3l.07-.06.13-.13L672,95Z"/><path d="M680.83,96.54l0-1.13a3.4,3.4,0,0,1-1.27,1,4.13,4.13,0,0,1-1.68.33,3.86,3.86,0,0,1-1.63-.33,3.73,3.73,0,0,1-1.23-.86,4,4,0,0,1-.77-1.24,4.21,4.21,0,0,1-.26-1.44,4,4,0,0,1,.27-1.47,3.71,3.71,0,0,1,2-2.09,3.84,3.84,0,0,1,1.62-.32h3.85v7.59Zm-3-6.74a3.09,3.09,0,0,0-1.17.23,2.69,2.69,0,0,0-1,.62,2.89,2.89,0,0,0-.64.95,3.07,3.07,0,0,0-.24,1.23A3.14,3.14,0,0,0,675,93.9a2.73,2.73,0,0,0,.57,1,2.89,2.89,0,0,0,.95.71,3.11,3.11,0,0,0,1.34.27,2.79,2.79,0,0,0,1.21-.25A2.94,2.94,0,0,0,680,95a2.78,2.78,0,0,0,.61-1,16.7,16.7,0,0,0,.18-3.4v-.8Z"/><path d="M690,96.16a4.59,4.59,0,0,1-1,.39,4.14,4.14,0,0,1-1.14.15,4.06,4.06,0,0,1-1.52-.28,3.65,3.65,0,0,1-1.24-.79,3.88,3.88,0,0,1-.83-1.22,4.08,4.08,0,0,1-.31-1.58,3.82,3.82,0,0,1,.3-1.52,3.6,3.6,0,0,1,.81-1.24,3.84,3.84,0,0,1,1.23-.82,4,4,0,0,1,1.56-.3,3.67,3.67,0,0,1,1.24.19,3.88,3.88,0,0,1,.86.4v1a7.61,7.61,0,0,0-1.05-.55,2.56,2.56,0,0,0-1-.22,3.21,3.21,0,0,0-1.15.21,3,3,0,0,0-1,.6,2.76,2.76,0,0,0-.67,1,3.15,3.15,0,0,0-.24,1.26,3.05,3.05,0,0,0,.24,1.22,2.92,2.92,0,0,0,.65,1,2.74,2.74,0,0,0,1,.62,3.05,3.05,0,0,0,1.17.23,2.59,2.59,0,0,0,1-.16c.25-.11.45-.21.61-.3a.19.19,0,0,0,.07-.06l.14-.13L690,95Z"/><path d="M691.9,88.09V86.38h.88v1.71Zm0,8.45V89.12h.88v7.42Z"/><path d="M702.6,92.83a4,4,0,0,1-.3,1.54,3.69,3.69,0,0,1-.82,1.23,4,4,0,0,1-1.23.81,4.26,4.26,0,0,1-3.09,0,4,4,0,0,1-1.23-.81,3.69,3.69,0,0,1-.82-1.23,4,4,0,0,1-.3-1.54,3.88,3.88,0,0,1,.3-1.54,3.69,3.69,0,0,1,.82-1.23,3.84,3.84,0,0,1,1.23-.82,4.26,4.26,0,0,1,3.09,0,3.84,3.84,0,0,1,1.23.82,3.69,3.69,0,0,1,.82,1.23A3.88,3.88,0,0,1,702.6,92.83Zm-.89,0a3,3,0,0,0-.23-1.21,2.86,2.86,0,0,0-.63-1,3,3,0,0,0-1-.63,3.22,3.22,0,0,0-2.39,0,3.23,3.23,0,0,0-.94.63,2.86,2.86,0,0,0-.63,1,3.3,3.3,0,0,0,0,2.42,2.82,2.82,0,0,0,.63.95,3.23,3.23,0,0,0,.94.63,3.22,3.22,0,0,0,2.39,0,3,3,0,0,0,1-.63,2.82,2.82,0,0,0,.63-.95A3,3,0,0,0,701.71,92.83Z"/><path d="M710.86,96.54V92.63a3.85,3.85,0,0,0-.21-1.38,2.13,2.13,0,0,0-.55-.86,2.5,2.5,0,0,0-1.78-.59l-2.53,0v6.72h-.88l0-7.59h3.39a4.11,4.11,0,0,1,.47,0,2.52,2.52,0,0,1,.58.1,3.84,3.84,0,0,1,.65.22,3.78,3.78,0,0,1,.67.41,3.66,3.66,0,0,1,1.1,2.93v3.91Z"/><path d="M724.86,95.44v1.1H724v-1.1h-5v-.67l5-8.39h.94v8.2h1v.86Zm-.94-7.37c-.66,1.11-1.31,2.18-1.93,3.23s-1.26,2.14-1.92,3.28H724Z"/><polygon class="cls-2" points="298.14 304.66 298.14 292.42 308.74 298.54 319.34 304.66 308.74 310.78 298.14 316.9 298.14 304.66"/><polygon class="cls-2" points="298.14 355.24 298.14 343 308.74 349.12 319.34 355.24 308.74 361.36 298.14 367.48 298.14 355.24"/><path d="M157.83,311.45a3.43,3.43,0,0,1-1,.38,5.5,5.5,0,0,1-3.05-.31,5.05,5.05,0,0,1-1.71-1.11,5.12,5.12,0,0,1-1.15-1.69,5.69,5.69,0,0,1,0-4.29,5.22,5.22,0,0,1,1.15-1.69,5.05,5.05,0,0,1,1.71-1.11,5.39,5.39,0,0,1,2.08-.4,4.73,4.73,0,0,1,1,.12,2.3,2.3,0,0,1,.91.4v1a2,2,0,0,0-1-.52,6.43,6.43,0,0,0-1-.08,4.38,4.38,0,0,0-1.73.34,4.23,4.23,0,0,0-1.41.93,4.57,4.57,0,0,0-.94,1.42,4.58,4.58,0,0,0,.94,5,4.41,4.41,0,0,0,1.41.94,4.55,4.55,0,0,0,1.73.33,3.38,3.38,0,0,0,.47,0,1.75,1.75,0,0,0,.44-.1,2.73,2.73,0,0,0,.47-.21,5.1,5.1,0,0,0,.56-.36Z"/><path d="M168.73,308.05a4.14,4.14,0,0,1-.29,1.54,3.84,3.84,0,0,1-.82,1.23,4,4,0,0,1-1.23.81,4.29,4.29,0,0,1-3.1,0,4,4,0,0,1-1.23-.81,3.84,3.84,0,0,1-.82-1.23,4.23,4.23,0,0,1,0-3.08,3.77,3.77,0,0,1,2-2.05,4.29,4.29,0,0,1,3.1,0,3.77,3.77,0,0,1,2.05,2.05A4.1,4.1,0,0,1,168.73,308.05Zm-.88,0a3.26,3.26,0,0,0-.23-1.21,3,3,0,0,0-.63-1,3,3,0,0,0-2.15-.86,3.08,3.08,0,0,0-1.19.23,3.28,3.28,0,0,0-1,.63,3,3,0,0,0-.62,1,3.07,3.07,0,0,0-.24,1.21,3,3,0,0,0,.24,1.21,3,3,0,0,0,.62.95,3.28,3.28,0,0,0,1,.63,3.08,3.08,0,0,0,1.19.23,3,3,0,0,0,2.15-.86,3,3,0,0,0,.63-.95A3.22,3.22,0,0,0,167.85,308.05Z"/><path d="M176.87,309.71a2,2,0,0,1-.18.86,2.29,2.29,0,0,1-.48.7,2.44,2.44,0,0,1-.73.48,2.25,2.25,0,0,1-.9.17,2.73,2.73,0,0,1-.89-.15,2.52,2.52,0,0,1-.76-.44,2.16,2.16,0,0,1-.53-.7,2.14,2.14,0,0,1-.2-.92v-.39h.89a1.86,1.86,0,0,0,.42,1.3,1.42,1.42,0,0,0,1.07.45,1.36,1.36,0,0,0,1-.41,1.4,1.4,0,0,0,.37-1v0a1.16,1.16,0,0,0-.4-.91,2.74,2.74,0,0,0-1.07-.51,6.08,6.08,0,0,1-.79-.24,3.07,3.07,0,0,1-.66-.38,1.54,1.54,0,0,1-.44-.57,1.94,1.94,0,0,1-.16-.84,2.18,2.18,0,0,1,.14-.8,1.84,1.84,0,0,1,.41-.65,2,2,0,0,1,.66-.43,2.35,2.35,0,0,1,.91-.16,2.48,2.48,0,0,1,.82.14,1.67,1.67,0,0,1,.65.47,2.2,2.2,0,0,1,.45.8,3.59,3.59,0,0,1,.17,1.16h-.88a1.92,1.92,0,0,0-.37-1.3,1.08,1.08,0,0,0-.84-.42,1.17,1.17,0,0,0-.93.35,1.23,1.23,0,0,0-.31.84,1,1,0,0,0,.35.75,3.1,3.1,0,0,0,1,.43c.25.06.49.14.75.22a2.55,2.55,0,0,1,.69.37,1.8,1.8,0,0,1,.53.62,2.2,2.2,0,0,1,.25,1Z"/><path d="M182.27,305.19v6.57h-.88v-6.57h-1.53v-.85h1.53v-2.73h.88v2.73h1.78v.85Z"/><path d="M194.8,308.34h-6.86a2.74,2.74,0,0,0,.37,1.23,3,3,0,0,0,.75.85,3.2,3.2,0,0,0,.93.49,3,3,0,0,0,.95.16,3,3,0,0,0,1.62-.47,3.2,3.2,0,0,0,1.15-1.35h1a4.91,4.91,0,0,1-.7,1.19,4.15,4.15,0,0,1-.91.83,3.9,3.9,0,0,1-2.14.65,3.93,3.93,0,0,1-1.55-.3,3.63,3.63,0,0,1-1.23-.82,3.69,3.69,0,0,1-.82-1.22,4,4,0,0,1-.29-1.52,3.93,3.93,0,0,1,.3-1.55,3.87,3.87,0,0,1,.83-1.23,3.78,3.78,0,0,1,1.24-.82,4.06,4.06,0,0,1,1.54-.29,3.8,3.8,0,0,1,1.42.26,3.7,3.7,0,0,1,1.22.74,3.63,3.63,0,0,1,.86,1.17,3.93,3.93,0,0,1,.37,1.55Zm-.91-.85a2.56,2.56,0,0,0-.34-1,2.91,2.91,0,0,0-.66-.78,3.09,3.09,0,0,0-.89-.53,2.92,2.92,0,0,0-1-.19,3.23,3.23,0,0,0-1.08.19,3.13,3.13,0,0,0-.91.52,3.18,3.18,0,0,0-.68.78,2.5,2.5,0,0,0-.35,1Z"/><path d="M211.61,308c0,.24,0,.49,0,.78a3.76,3.76,0,0,1-.14.86,3.45,3.45,0,0,1-.4.85,2.54,2.54,0,0,1-.74.76,4.32,4.32,0,0,1-.94.46,3,3,0,0,1-1.05.18,2.94,2.94,0,0,1-1-.18,4.47,4.47,0,0,1-.93-.46,2.7,2.7,0,0,1-.75-.76,3.37,3.37,0,0,1-.38-.85,3.79,3.79,0,0,1-.15-.86c0-.29,0-.54,0-.78V301.4H206V308c0,.24,0,.45,0,.64a3.31,3.31,0,0,0,.07.55,2.5,2.5,0,0,0,.16.51,3.26,3.26,0,0,0,.32.51,1.8,1.8,0,0,0,.78.59,2.64,2.64,0,0,0,1,.21,2.53,2.53,0,0,0,1-.21,1.83,1.83,0,0,0,.77-.59,3.26,3.26,0,0,0,.32-.51,2.5,2.5,0,0,0,.16-.51,3.31,3.31,0,0,0,.07-.55c0-.19,0-.4,0-.64V301.4h.93Z"/><path d="M221.22,311.76v-3.91a3.85,3.85,0,0,0-.21-1.38,2.13,2.13,0,0,0-.55-.86,2.71,2.71,0,0,0-.65-.4,2.88,2.88,0,0,0-1.13-.19l-2.53,0v6.72h-.88l0-7.59h3.39a4.11,4.11,0,0,1,.47,0,3.21,3.21,0,0,1,.58.1,3.47,3.47,0,0,1,.64.22,3.51,3.51,0,0,1,.68.41,3.66,3.66,0,0,1,1.1,2.93v3.91Z"/><path d="M225.73,303.31v-1.7h.88v1.7Zm0,8.45v-7.42h.88v7.42Z"/><path d="M232.07,305.19v6.57h-.89v-6.57h-1.52v-.85h1.52v-2.73h.89v2.73h1.78v.85Z"/><path d="M243.69,311.76l0-1.12a3.37,3.37,0,0,1-1.27.95,4.13,4.13,0,0,1-1.68.33,3.86,3.86,0,0,1-1.63-.33,3.73,3.73,0,0,1-1.23-.86,3.86,3.86,0,0,1-.77-1.24,4.21,4.21,0,0,1-.26-1.44,4,4,0,0,1,.27-1.47,3.72,3.72,0,0,1,.78-1.24,3.86,3.86,0,0,1,1.22-.85,4,4,0,0,1,1.62-.32h3.85v7.59Zm-3-6.74a3.09,3.09,0,0,0-1.17.23,2.84,2.84,0,0,0-1,.62,2.89,2.89,0,0,0-.64.95,3.07,3.07,0,0,0-.24,1.23,3.14,3.14,0,0,0,.19,1.07,2.86,2.86,0,0,0,.56,1,2.9,2.9,0,0,0,1,.71,3.11,3.11,0,0,0,1.34.27,2.94,2.94,0,0,0,1.21-.24,3.13,3.13,0,0,0,.93-.66,2.62,2.62,0,0,0,.6-.95,15.53,15.53,0,0,0,.19-3.4V305Z"/><path d="M251.69,305h-2.43v6.72h-.88v-7.58h2.19q.79,0,1.11,0Z"/><path d="M254.93,303.31v-1.7h.88v1.7Zm0,8.45v-7.42h.88v7.42Z"/><path d="M267,308.05a4,4,0,0,1-.29,1.54,3.84,3.84,0,0,1-.82,1.23,4,4,0,0,1-1.23.81,4.29,4.29,0,0,1-3.1,0,4,4,0,0,1-1.23-.81,3.84,3.84,0,0,1-.82-1.23,4.23,4.23,0,0,1,0-3.08,3.77,3.77,0,0,1,2.05-2.05,4.29,4.29,0,0,1,3.1,0,3.77,3.77,0,0,1,2.05,2.05A3.91,3.91,0,0,1,267,308.05Zm-.88,0a3.26,3.26,0,0,0-.23-1.21,2.86,2.86,0,0,0-.63-1,3,3,0,0,0-2.15-.86,3,3,0,0,0-2.13.86,2.86,2.86,0,0,0-.63,1,3.07,3.07,0,0,0-.23,1.21,3,3,0,0,0,.23,1.21,2.82,2.82,0,0,0,.63.95,3,3,0,0,0,2.13.86,3,3,0,0,0,2.15-.86,2.82,2.82,0,0,0,.63-.95A3.22,3.22,0,0,0,266.14,308.05Z"/><path d="M147.08,358.43a2.7,2.7,0,0,1-.27,1.22,3.16,3.16,0,0,1-2.85,1.79,4.6,4.6,0,0,1-1-.13,2.82,2.82,0,0,1-1-.47,3,3,0,0,1-.77-.9,3.31,3.31,0,0,1-.38-1.41h.93a2.74,2.74,0,0,0,.35,1.1,2,2,0,0,0,.58.61,1.79,1.79,0,0,0,.67.26,3.56,3.56,0,0,0,.59.06,2.33,2.33,0,0,0,.82-.15,2.37,2.37,0,0,0,.7-.42,2.1,2.1,0,0,0,.49-.65,2.1,2.1,0,0,0,0-1.85,1.82,1.82,0,0,0-.58-.62,2.78,2.78,0,0,0-.76-.36l-.73-.21c-.23-.06-.5-.13-.82-.24a3.45,3.45,0,0,1-.9-.45,2.33,2.33,0,0,1-.73-.79,2.42,2.42,0,0,1-.32-1.28,2.81,2.81,0,0,1,.24-1.19,2.66,2.66,0,0,1,.64-.87,2.75,2.75,0,0,1,.94-.54,3.46,3.46,0,0,1,1.12-.18,2.61,2.61,0,0,1,1,.19,2.52,2.52,0,0,1,.91.64,3.34,3.34,0,0,1,.66,1.15,5.33,5.33,0,0,1,.26,1.77h-.94a5.45,5.45,0,0,0-.1-1.09,2.86,2.86,0,0,0-.32-.92,1.6,1.6,0,0,0-1.47-.86,2.11,2.11,0,0,0-.77.13,2,2,0,0,0-.63.38,1.58,1.58,0,0,0-.43.59,2,2,0,0,0-.16.77,1.54,1.54,0,0,0,.21.84,1.67,1.67,0,0,0,.56.56,3.12,3.12,0,0,0,.78.37l.9.27v0l.64.18a3,3,0,0,1,1.68,1.29A2.63,2.63,0,0,1,147.08,358.43Z"/><path d="M156.47,361.27v-.8a2.89,2.89,0,0,1-1.13.72,3.71,3.71,0,0,1-1.35.25h-.31a3.36,3.36,0,0,1-.58-.07,3.57,3.57,0,0,1-.74-.22,3,3,0,0,1-.75-.46,3.12,3.12,0,0,1-.8-1.2,4.81,4.81,0,0,1-.29-1.72v-3.91h.88v3.91a4.11,4.11,0,0,0,.2,1.38,2.11,2.11,0,0,0,.56.86,2.2,2.2,0,0,0,.82.45,3.33,3.33,0,0,0,.93.14,2.6,2.6,0,0,0,1.9-.67,2.55,2.55,0,0,0,.67-1.9v-4.17h.89v7.42Z"/><path d="M168.84,357.63a4.07,4.07,0,0,1-.28,1.46,4,4,0,0,1-.77,1.24,4.05,4.05,0,0,1-1.23.86,4,4,0,0,1-1.62.32,3.78,3.78,0,0,1-1.74-.38,3.89,3.89,0,0,1-1.22-.95v3.89h-.89v-9.58a8.85,8.85,0,0,1,1-.44,6.51,6.51,0,0,1,.92-.23,5.63,5.63,0,0,1,.93-.1c.32,0,.66,0,1,0a3.88,3.88,0,0,1,1.62.33,4.06,4.06,0,0,1,1.22.88,3.89,3.89,0,0,1,.77,1.26A4.06,4.06,0,0,1,168.84,357.63Zm-.89,0a3.43,3.43,0,0,0-.16-1,3,3,0,0,0-.54-1,3,3,0,0,0-1.05-.82,3.64,3.64,0,0,0-1.65-.33,6.26,6.26,0,0,0-1.16.12A13.58,13.58,0,0,0,162,355l0,1.33c0,.45,0,.9,0,1.33a2.81,2.81,0,0,0,.21,1.2,2.75,2.75,0,0,0,.64,1,3,3,0,0,0,1,.63,3.18,3.18,0,0,0,1.19.22,3.08,3.08,0,0,0,1.17-.22,3,3,0,0,0,1-.61,3.15,3.15,0,0,0,.65-.95A3.25,3.25,0,0,0,168,357.63Z"/><path d="M179.87,357.85H173a2.82,2.82,0,0,0,.37,1.24,3.05,3.05,0,0,0,.75.84,3,3,0,0,0,3.5.19,3.29,3.29,0,0,0,1.15-1.36h1A4.47,4.47,0,0,1,179,360a3.93,3.93,0,0,1-1.95,1.33,4.11,4.11,0,0,1-1.09.16,3.92,3.92,0,0,1-2.79-1.12,3.86,3.86,0,0,1-1.1-2.75,3.88,3.88,0,0,1,.3-1.54,3.74,3.74,0,0,1,2.06-2,4,4,0,0,1,1.54-.3,4.07,4.07,0,0,1,1.43.26,3.7,3.7,0,0,1,1.22.74,4,4,0,0,1,.86,1.18,4.06,4.06,0,0,1,.37,1.55ZM179,357a2.62,2.62,0,0,0-.34-1,3.29,3.29,0,0,0-.66-.78,3.2,3.2,0,0,0-.89-.52,2.7,2.7,0,0,0-1-.19,3.09,3.09,0,0,0-1.09.19,3,3,0,0,0-.91.51,3.37,3.37,0,0,0-.67.78,2.62,2.62,0,0,0-.35,1Z"/><path d="M186.78,354.55h-2.43v6.72h-.88V353.7h2.19c.53,0,.9,0,1.11,0Z"/><path d="M191.39,354.7v6.57h-.88V354.7h-1.14v-.85h1.14v-.42c0-.08,0-.2,0-.36a2.32,2.32,0,0,1,.09-.49,2,2,0,0,1,.23-.55,1.57,1.57,0,0,1,.46-.51,2.84,2.84,0,0,1,.76-.39,3.77,3.77,0,0,1,1.12-.19v.87l-.47.05a1.87,1.87,0,0,0-.59.2,1.34,1.34,0,0,0-.51.47,1.44,1.44,0,0,0-.22.86v.46h1.79v.85Z"/><path d="M195.48,352.83v-1.71h.88v1.71Zm0,8.44v-7.42h.88v7.42Z"/><path d="M205.71,360.89a4.59,4.59,0,0,1-1,.39,3.79,3.79,0,0,1-1.14.16,4.26,4.26,0,0,1-1.51-.28,3.71,3.71,0,0,1-1.24-.79,3.66,3.66,0,0,1-.83-1.23,3.84,3.84,0,0,1-.31-1.58A4,4,0,0,1,200,356a3.84,3.84,0,0,1,.82-1.23,3.66,3.66,0,0,1,1.23-.83,3.93,3.93,0,0,1,1.55-.3,3.72,3.72,0,0,1,1.25.2,4.32,4.32,0,0,1,.85.39v1a7.09,7.09,0,0,0-1-.56,2.72,2.72,0,0,0-1-.21,3.13,3.13,0,0,0-1.15.21,2.93,2.93,0,0,0-1,.6,2.79,2.79,0,0,0-.66.95,3,3,0,0,0-.25,1.26,2.91,2.91,0,0,0,.25,1.23,3.15,3.15,0,0,0,.65.95,3.06,3.06,0,0,0,.95.62,3,3,0,0,0,1.16.23,2.57,2.57,0,0,0,1-.17,3.6,3.6,0,0,0,.62-.3l.07-.05.13-.14.26-.24Z"/><path d="M209.06,352.83v-1.71h.88v1.71Zm0,8.44v-7.42h.88v7.42Z"/><path d="M221.14,357.85h-6.86a2.82,2.82,0,0,0,.37,1.24,3.05,3.05,0,0,0,.75.84,3,3,0,0,0,.93.49,3,3,0,0,0,.95.17,3,3,0,0,0,1.62-.47,3.29,3.29,0,0,0,1.15-1.36h1a4.73,4.73,0,0,1-.7,1.19,4.21,4.21,0,0,1-.91.84,4,4,0,0,1-1.05.49,4,4,0,0,1-1.09.16,3.93,3.93,0,0,1-1.55-.3,3.79,3.79,0,0,1-1.23-.82,3.84,3.84,0,0,1-.82-1.23,4,4,0,0,1-.29-1.52,3.83,3.83,0,0,1,1.13-2.77,3.63,3.63,0,0,1,1.24-.82,3.88,3.88,0,0,1,1.54-.3,4,4,0,0,1,1.42.26,3.7,3.7,0,0,1,1.22.74,3.78,3.78,0,0,1,.86,1.18,3.88,3.88,0,0,1,.37,1.55Zm-.91-.85a2.62,2.62,0,0,0-.34-1,3,3,0,0,0-1.55-1.3,2.7,2.7,0,0,0-1-.19,3,3,0,0,0-1.08.19,2.89,2.89,0,0,0-.91.51,3.18,3.18,0,0,0-.68.78,2.62,2.62,0,0,0-.35,1Z"/><path d="M233.87,351.81v9.46h-.94v-9.46h-2.68v-.9h6.28v.9Z"/><path d="M247.35,357.56a4,4,0,0,1-.3,1.54,3.49,3.49,0,0,1-.82,1.23,3.66,3.66,0,0,1-1.23.81,3.93,3.93,0,0,1-1.55.3,3.88,3.88,0,0,1-1.54-.3,3.66,3.66,0,0,1-1.23-.81,3.49,3.49,0,0,1-.82-1.23,4,4,0,0,1-.3-1.54,3.87,3.87,0,0,1,.3-1.53,3.77,3.77,0,0,1,2-2,3.88,3.88,0,0,1,1.54-.3,3.93,3.93,0,0,1,1.55.3,3.77,3.77,0,0,1,2.05,2A3.87,3.87,0,0,1,247.35,357.56Zm-.89,0a3,3,0,0,0-.23-1.2,2.67,2.67,0,0,0-.63-1,2.72,2.72,0,0,0-.95-.63,3.22,3.22,0,0,0-2.39,0,2.88,2.88,0,0,0-.94.63,2.67,2.67,0,0,0-.63,1,3.27,3.27,0,0,0,0,2.41,2.72,2.72,0,0,0,.63,1,2.88,2.88,0,0,0,.94.63,3.1,3.1,0,0,0,2.39,0,2.87,2.87,0,0,0,1.58-1.58A3,3,0,0,0,246.46,357.56Z"/><path d="M252.93,354.7v6.57h-.88V354.7h-1.53v-.85h1.53v-2.73h.88v2.73h1.78v.85Z"/><path d="M264.55,361.27v-1.12a3.54,3.54,0,0,1-1.28,1,4.06,4.06,0,0,1-1.68.33,3.89,3.89,0,0,1-1.63-.33,3.76,3.76,0,0,1-1.22-.87A3.7,3.7,0,0,1,258,359a4,4,0,0,1,0-2.91,3.65,3.65,0,0,1,2-2.08,3.83,3.83,0,0,1,1.61-.33h3.85v7.59Zm-3-6.73a3,3,0,0,0-2.12.84,3.07,3.07,0,0,0-.65,1,3,3,0,0,0-.24,1.22,3.35,3.35,0,0,0,.19,1.07,3,3,0,0,0,.57,1,2.86,2.86,0,0,0,.95.71,3.16,3.16,0,0,0,1.35.28,3,3,0,0,0,1.21-.25,2.94,2.94,0,0,0,.93-.65,2.76,2.76,0,0,0,.6-.95,16.7,16.7,0,0,0,.18-3.4v-.8Z"/><path d="M269.2,361.27V351.12h.88v10.15Z"/><polygon class="cls-2" points="492.15 332.34 492.15 298.64 521.34 315.49 550.52 332.34 521.34 349.19 492.15 366.03 492.15 332.34"/><path d="M578.85,311.39a5.61,5.61,0,0,1-1.66.65,8.56,8.56,0,0,1-1.66.16,9.3,9.3,0,0,1-3.57-.68,8.89,8.89,0,0,1-4.9-4.81,9.74,9.74,0,0,1,0-7.35,8.89,8.89,0,0,1,4.9-4.81,9.49,9.49,0,0,1,3.57-.68,8.65,8.65,0,0,1,1.77.2,4,4,0,0,1,1.55.69v1.65a3.43,3.43,0,0,0-1.67-.89,10.6,10.6,0,0,0-1.65-.14,7.6,7.6,0,0,0-3,.58,7.26,7.26,0,0,0-2.41,1.6,7.71,7.71,0,0,0-2.22,5.48,7.57,7.57,0,0,0,.6,3,7.66,7.66,0,0,0,1.62,2.43,7.28,7.28,0,0,0,2.41,1.61,7.78,7.78,0,0,0,3,.57,5.18,5.18,0,0,0,.81-.05,3.41,3.41,0,0,0,.75-.18,4,4,0,0,0,.81-.36,8.56,8.56,0,0,0,1-.61Z"/><path d="M597.54,305.56a7,7,0,0,1-.5,2.64,6.41,6.41,0,0,1-1.41,2.11,6.62,6.62,0,0,1-2.11,1.39,7.27,7.27,0,0,1-5.3,0,6.62,6.62,0,0,1-2.11-1.39,6.41,6.41,0,0,1-1.41-2.11,7,7,0,0,1-.5-2.64,6.88,6.88,0,0,1,.5-2.63,6.51,6.51,0,0,1,3.52-3.52,7.27,7.27,0,0,1,5.3,0,6.51,6.51,0,0,1,3.52,3.52A6.88,6.88,0,0,1,597.54,305.56Zm-1.51,0a5.27,5.27,0,0,0-.4-2.07,4.78,4.78,0,0,0-1.08-1.64,4.84,4.84,0,0,0-1.63-1.08,5.13,5.13,0,0,0-2-.4,5.05,5.05,0,0,0-2,.4,5,5,0,0,0-1.62,1.08,4.78,4.78,0,0,0-1.08,1.64,5.45,5.45,0,0,0-.4,2.07,5.38,5.38,0,0,0,.4,2.07,4.84,4.84,0,0,0,1.08,1.63,5,5,0,0,0,1.62,1.08,5.05,5.05,0,0,0,2,.4,5.13,5.13,0,0,0,2-.4,4.92,4.92,0,0,0,2.71-2.71A5.2,5.2,0,0,0,596,305.56Z"/><path d="M611.49,308.41a3.67,3.67,0,0,1-.31,1.48,3.94,3.94,0,0,1-.82,1.2,4.08,4.08,0,0,1-1.25.81,4,4,0,0,1-1.54.3,4.34,4.34,0,0,1-1.52-.26,4.28,4.28,0,0,1-1.31-.76,3.41,3.41,0,0,1-.91-1.2,3.51,3.51,0,0,1-.34-1.57v-.67H605a3.12,3.12,0,0,0,.74,2.22,2.4,2.4,0,0,0,1.83.78,2.29,2.29,0,0,0,1.76-.71,2.36,2.36,0,0,0,.64-1.64v-.07a2.05,2.05,0,0,0-.68-1.55,4.93,4.93,0,0,0-1.84-.88,8.88,8.88,0,0,1-1.35-.42,4.17,4.17,0,0,1-1.13-.65,2.65,2.65,0,0,1-.77-1,3.41,3.41,0,0,1-.28-1.43,3.74,3.74,0,0,1,.25-1.37,2.92,2.92,0,0,1,.7-1.11,3.53,3.53,0,0,1,1.14-.75,4.18,4.18,0,0,1,1.56-.27,3.73,3.73,0,0,1,1.39.25,2.86,2.86,0,0,1,1.13.79,4,4,0,0,1,.77,1.37,6.17,6.17,0,0,1,.29,2h-1.51a3.34,3.34,0,0,0-.63-2.23,1.85,1.85,0,0,0-1.44-.72,2,2,0,0,0-1.61.6,2.11,2.11,0,0,0-.52,1.44,1.6,1.6,0,0,0,.61,1.29,5.17,5.17,0,0,0,1.64.73c.42.11.84.24,1.27.38a4,4,0,0,1,1.19.63,3.26,3.26,0,0,1,.91,1.06,4,4,0,0,1,.43,1.72Z"/><path d="M620.75,300.66v11.26h-1.51V300.66h-2.62V299.2h2.62v-4.68h1.51v4.68h3v1.46Z"/><path d="M642.23,306.06H630.47a4.63,4.63,0,0,0,.63,2.11,5,5,0,0,0,1.29,1.45,5.18,5.18,0,0,0,1.59.84,5.1,5.1,0,0,0,4.41-.52,5.51,5.51,0,0,0,2-2.32H642a8.46,8.46,0,0,1-1.21,2,6.78,6.78,0,0,1-3.35,2.27,6.71,6.71,0,0,1-1.87.27,6.82,6.82,0,0,1-2.66-.51,6.61,6.61,0,0,1-2.12-1.41,6.47,6.47,0,0,1-1.39-2.1,6.73,6.73,0,0,1,1.43-7.36,6.56,6.56,0,0,1,2.12-1.41,7.13,7.13,0,0,1,5.09-.06,6.35,6.35,0,0,1,3.57,3.29,7.07,7.07,0,0,1,.63,2.65Zm-1.56-1.46a4.22,4.22,0,0,0-.58-1.66A5,5,0,0,0,639,301.6a5,5,0,0,0-1.52-.9,4.7,4.7,0,0,0-1.73-.33,5.2,5.2,0,0,0-1.86.33,5.43,5.43,0,0,0-1.56.88,5.11,5.11,0,0,0-1.15,1.34,4.46,4.46,0,0,0-.61,1.68Z"/><path d="M664,295.69v16.23h-1.6V295.69h-4.59v-1.53H668.6v1.53Z"/><path d="M687.16,305.56a6.82,6.82,0,0,1-.51,2.64,6.23,6.23,0,0,1-1.4,2.11,6.73,6.73,0,0,1-2.11,1.39,7.3,7.3,0,0,1-5.31,0,6.62,6.62,0,0,1-2.11-1.39,6.23,6.23,0,0,1-1.4-2.11,6.82,6.82,0,0,1-.51-2.64,6.7,6.7,0,0,1,.51-2.63,6.33,6.33,0,0,1,1.4-2.11,6.51,6.51,0,0,1,2.11-1.41,7.3,7.3,0,0,1,5.31,0,6.62,6.62,0,0,1,2.11,1.41,6.33,6.33,0,0,1,1.4,2.11A6.7,6.7,0,0,1,687.16,305.56Zm-1.52,0a5.45,5.45,0,0,0-.39-2.07,4.89,4.89,0,0,0-2.71-2.72,5.22,5.22,0,0,0-2.06-.4,5.12,5.12,0,0,0-2,.4,4.85,4.85,0,0,0-1.61,1.08,4.78,4.78,0,0,0-1.08,1.64,5.27,5.27,0,0,0-.4,2.07,5.2,5.2,0,0,0,.4,2.07,5,5,0,0,0,2.69,2.71,5.12,5.12,0,0,0,2,.4,5.22,5.22,0,0,0,2.06-.4,4.94,4.94,0,0,0,1.63-1.08,5,5,0,0,0,1.08-1.63A5.37,5.37,0,0,0,685.64,305.56Z"/><path d="M696.73,300.66v11.26h-1.51V300.66H692.6V299.2h2.62v-4.68h1.51v4.68h3v1.46Z"/><path d="M716.65,311.92l0-1.92a6.08,6.08,0,0,1-2.19,1.64,6.92,6.92,0,0,1-2.88.56,6.56,6.56,0,0,1-2.79-.56,6.45,6.45,0,0,1-2.1-1.49,6.21,6.21,0,0,1-1.32-2.12,6.8,6.8,0,0,1-.46-2.47,6.92,6.92,0,0,1,.47-2.52,6.56,6.56,0,0,1,1.33-2.12,6.59,6.59,0,0,1,4.87-2h6.6v13Zm-5.09-11.55a5.2,5.2,0,0,0-2,.39,4.93,4.93,0,0,0-2.75,2.7,5.28,5.28,0,0,0-.41,2.1,5.41,5.41,0,0,0,.33,1.83,5,5,0,0,0,1,1.67,4.89,4.89,0,0,0,1.63,1.21,5.38,5.38,0,0,0,2.31.47,4.94,4.94,0,0,0,2.07-.42,5.07,5.07,0,0,0,1.6-1.12,4.69,4.69,0,0,0,1-1.63,28.15,28.15,0,0,0,.31-5.83v-1.37Z"/><path d="M724.62,311.92v-17.4h1.51v17.4Z"/><rect class="cls-1" x="304.32" y="421.4" width="455.68" height="199.36"/><path class="cls-3" d="M750.64,466.52a12.56,12.56,0,0,1-6.27,5.22c-2.86.92-6.13.29-9.84-2.26-14.11-9.68-2.83-21.32-22.42-36-3.18-2.39-15.2-4.14-22-8.82-5.87-4-8.23-10.73-6.3-16.94a15.5,15.5,0,0,1,2.08-4.25,30.23,30.23,0,0,1,1.85-2.41c5.88-7,16.94-10.53,26-8.73a19.72,19.72,0,0,1,7.33,3.1,20.32,20.32,0,0,1,8.32,12.29c.09.37.16.75.22,1.13,1.79,11.13,8.83,20.69,14.78,29.4C751.34,448.47,756.82,457.5,750.64,466.52Z"/><path class="cls-3" d="M667,397.87c1.78-2.6,5.71-4.14,8.87-2,3.39,2.33,6.47,6.73,4.12,10.15-2.08,3-6.81,3.56-10.11,1.29a8.53,8.53,0,0,1-3.86-5.56A5.52,5.52,0,0,1,667,397.87Z"/><path class="cls-3" d="M677,388.43c1.11-1.62,4.19-1.8,6.5-.22a5.2,5.2,0,0,1,1.59,7.19c-1.14,1.66-2.85,2.36-5,.87a9,9,0,0,1-3.2-4.34A4,4,0,0,1,677,388.43Z"/><path class="cls-3" d="M686.46,385.43a4.45,4.45,0,0,1,4.25-4.22c2.25,0,3.66,2.79,3.65,5,0,2.84-1.93,4.48-3.26,4.47s-2.56-1.72-3.59-2.77A3.41,3.41,0,0,1,686.46,385.43Z"/><path class="cls-3" d="M696.57,384.55c.16-.81,0-1.53.11-2.27.27-1.36,1.35-1.74,2.75-1.46,2.51.5,3.78,3.64,3.29,6.08a3,3,0,0,1-3.68,2.4C697.31,389,696,387.26,696.57,384.55Z"/><path class="cls-3" d="M705.9,384.53c.14-.21.34-.43.44-.57l.59-.85c1.26-.23,2.85-1,4.14-.14.73.5,1.09,3.25,0,4.78a3,3,0,0,1-4.12.78A3.35,3.35,0,0,1,705.9,384.53Z"/><path d="M708.65,434.89a6.8,6.8,0,0,1-2,.78,9.93,9.93,0,0,1-2,.2,11.34,11.34,0,0,1-4.32-.82,10.74,10.74,0,0,1-5.92-5.82,11.76,11.76,0,0,1,0-8.88,10.66,10.66,0,0,1,5.92-5.82,11.34,11.34,0,0,1,4.32-.83,9.65,9.65,0,0,1,2.14.25,4.78,4.78,0,0,1,1.87.82v2a4.06,4.06,0,0,0-2-1.08,12.64,12.64,0,0,0-2-.17,9.28,9.28,0,0,0-3.6.7,8.69,8.69,0,0,0-2.91,1.94,9.41,9.41,0,0,0-2,2.93,9.67,9.67,0,0,0,0,7.37,9.3,9.3,0,0,0,2,2.93,8.71,8.71,0,0,0,2.91,2,9.46,9.46,0,0,0,3.6.69,7.55,7.55,0,0,0,1-.05,4.46,4.46,0,0,0,.91-.22,6.25,6.25,0,0,0,1-.44,10.23,10.23,0,0,0,1.15-.74Z"/><path d="M737.38,424.79a11.2,11.2,0,0,1-.87,4.44,10.87,10.87,0,0,1-2.39,3.51,11.21,11.21,0,0,1-3.56,2.31,11.82,11.82,0,0,1-8.65,0,11,11,0,0,1-3.54-2.31,10.85,10.85,0,0,1-2.38-3.51,11.76,11.76,0,0,1,0-8.88,10.79,10.79,0,0,1,2.38-3.52,11,11,0,0,1,3.54-2.3,11.68,11.68,0,0,1,8.65,0,11.18,11.18,0,0,1,3.56,2.3,10.81,10.81,0,0,1,2.39,3.52A11.13,11.13,0,0,1,737.38,424.79Zm-1.94,0a9.25,9.25,0,0,0-2.7-6.62,9.4,9.4,0,0,0-10.09-1.94,9,9,0,0,0-4.87,4.87,9.79,9.79,0,0,0,0,7.37,8.82,8.82,0,0,0,2,2.93,8.92,8.92,0,0,0,2.91,2,9.66,9.66,0,0,0,7.17,0,9.07,9.07,0,0,0,2.92-2,9.16,9.16,0,0,0,2-2.93A9.26,9.26,0,0,0,735.44,424.79Z"/><path d="M752.16,436.61a3.27,3.27,0,0,1-.52,1.71,9.59,9.59,0,0,1-1.29,1.59l-1.07,1.1-1,1-1,1-1.08,1.11h6v1.05H744.5v-.86l5.11-5.21a8.26,8.26,0,0,0,1.07-1.32,2.54,2.54,0,0,0,.38-1.27v-.09a2.92,2.92,0,0,0-.2-1.08,2.62,2.62,0,0,0-.56-.85,2.66,2.66,0,0,0-.84-.55,2.75,2.75,0,0,0-1-.19,2.48,2.48,0,0,0-1,.2,2.35,2.35,0,0,0-.83.62,3.06,3.06,0,0,0-.58,1,4.62,4.62,0,0,0-.24,1.47h-1.12a5.31,5.31,0,0,1,.37-2,4.15,4.15,0,0,1,.91-1.37,3.69,3.69,0,0,1,1.21-.78,3.84,3.84,0,0,1,1.32-.24,3.66,3.66,0,0,1,1.44.28,3.34,3.34,0,0,1,1.16.78,3.57,3.57,0,0,1,.78,1.18,3.89,3.89,0,0,1,.29,1.5Z"/><path d="M486.41,419.48V411.9h-7.88v7.58h-1.47V403.05h1.47v7.46h7.88v-7.46h1.49v16.43Z"/><path d="M498.76,419.48l0-1.27a4.58,4.58,0,0,1-1.78,1.14,6.17,6.17,0,0,1-2.14.39h-.5a6.08,6.08,0,0,1-.93-.11,7.41,7.41,0,0,1-1.16-.35,4.49,4.49,0,0,1-1.19-.73,4.87,4.87,0,0,1-1.28-1.91,7.58,7.58,0,0,1-.45-2.73v-6.19h1.4v6.19a6.44,6.44,0,0,0,.31,2.19,3.21,3.21,0,0,0,2.2,2.09,5.21,5.21,0,0,0,1.46.21,4.09,4.09,0,0,0,3-1.06,4,4,0,0,0,1.07-3v-6.61h1.4v11.77Z"/><path d="M513.86,414.06H503a4.29,4.29,0,0,0,.58,1.95,4.89,4.89,0,0,0,1.19,1.35,5.1,5.1,0,0,0,1.48.77,4.83,4.83,0,0,0,1.5.26,4.63,4.63,0,0,0,2.57-.75,5,5,0,0,0,1.82-2.14h1.54a7.89,7.89,0,0,1-1.13,1.89,6.39,6.39,0,0,1-1.44,1.32,6.06,6.06,0,0,1-1.65.78,6.15,6.15,0,0,1-1.74.25,6.45,6.45,0,0,1-2.46-.47,6.06,6.06,0,0,1-1.95-1.3,5.93,5.93,0,0,1-1.29-2,6.45,6.45,0,0,1,0-4.86,6,6,0,0,1,1.31-2,5.84,5.84,0,0,1,2-1.3,6.53,6.53,0,0,1,4.71-.06,6,6,0,0,1,1.93,1.18,5.84,5.84,0,0,1,1.37,1.86,6.49,6.49,0,0,1,.59,2.46Zm-1.45-1.36a4,4,0,0,0-.53-1.53,4.66,4.66,0,0,0-1.06-1.24,4.77,4.77,0,0,0-1.41-.83,4.36,4.36,0,0,0-1.59-.3,5,5,0,0,0-1.73.3,4.86,4.86,0,0,0-1.44.82,4.8,4.8,0,0,0-1.06,1.23,4.2,4.2,0,0,0-.57,1.55Z"/><path d="M515.05,419.48v-16.1h1.4v16.1Z"/><path d="M517.61,419.48v-16.1H519v16.1Z"/><path d="M531,419.48l0-1.78a5.56,5.56,0,0,1-2,1.52,6.44,6.44,0,0,1-2.66.52,6,6,0,0,1-4.53-1.9,5.78,5.78,0,0,1-1.22-2,6.21,6.21,0,0,1-.43-2.29,6.35,6.35,0,0,1,.44-2.33,6,6,0,0,1,1.23-1.95A5.9,5.9,0,0,1,523.7,408a6.24,6.24,0,0,1,2.57-.51h6.1v12Zm-4.7-10.68a5,5,0,0,0-1.86.35,4.76,4.76,0,0,0-1.52,1,4.57,4.57,0,0,0-1,1.51,4.87,4.87,0,0,0-.38,1.94,5.08,5.08,0,0,0,.3,1.7,4.59,4.59,0,0,0,.9,1.54A4.42,4.42,0,0,0,524.2,418a4.91,4.91,0,0,0,2.13.44,4.57,4.57,0,0,0,1.92-.39,4.85,4.85,0,0,0,1.48-1,4.28,4.28,0,0,0,.95-1.51,25.61,25.61,0,0,0,.29-5.4V408.8Z"/><path d="M539.54,413.59a6.28,6.28,0,0,1,.44-2.31,5.8,5.8,0,0,1,1.23-2,5.92,5.92,0,0,1,1.94-1.37,6.22,6.22,0,0,1,2.56-.51,6,6,0,0,1,2.78.6,6.32,6.32,0,0,1,1.93,1.51v-6.17h1.4v15.16a10.74,10.74,0,0,1-1.55.7,10.08,10.08,0,0,1-1.45.39,9.86,9.86,0,0,1-1.47.17c-.51,0-1.07,0-1.66,0a6,6,0,0,1-2.57-.53,6.3,6.3,0,0,1-1.94-1.41,6.4,6.4,0,0,1-1.22-2A6.5,6.5,0,0,1,539.54,413.59Zm1.4,0a5.44,5.44,0,0,0,.26,1.53,4.67,4.67,0,0,0,.86,1.63,5,5,0,0,0,1.66,1.27,5.79,5.79,0,0,0,2.62.52,11.56,11.56,0,0,0,1.85-.17,17.62,17.62,0,0,0,2.23-.58c0-.71,0-1.42,0-2.12s0-1.4,0-2.08a5,5,0,0,0-.33-1.91,4.33,4.33,0,0,0-1-1.52,5,5,0,0,0-5.27-1,4.87,4.87,0,0,0-1.52,1,4.45,4.45,0,0,0-1,1.51A4.87,4.87,0,0,0,540.94,413.59Z"/><path d="M565.43,414.06H554.55a4.43,4.43,0,0,0,.59,1.95,4.74,4.74,0,0,0,1.19,1.35,5.18,5.18,0,0,0,1.47.77,4.93,4.93,0,0,0,1.5.26,4.64,4.64,0,0,0,2.58-.75,5.07,5.07,0,0,0,1.82-2.14h1.53a7.56,7.56,0,0,1-1.12,1.89,6.84,6.84,0,0,1-1.44,1.32,6.08,6.08,0,0,1-3.39,1,6.38,6.38,0,0,1-2.46-.47,6.21,6.21,0,0,1-2-1.3,6.09,6.09,0,0,1-1.29-2,6.52,6.52,0,0,1,0-4.86,6,6,0,0,1,3.27-3.25,6.39,6.39,0,0,1,2.44-.47,6.47,6.47,0,0,1,2.27.41A6.15,6.15,0,0,1,563.5,409a5.81,5.81,0,0,1,1.36,1.86,6.31,6.31,0,0,1,.59,2.46ZM564,412.7a4.07,4.07,0,0,0-.54-1.53A4.87,4.87,0,0,0,561,409.1a4.41,4.41,0,0,0-1.6-.3,5,5,0,0,0-3.16,1.12,5,5,0,0,0-1.07,1.23,4,4,0,0,0-.56,1.55Z"/><path d="M584.15,419a5.18,5.18,0,0,1-1.53.6,8.11,8.11,0,0,1-1.54.15,8.69,8.69,0,0,1-3.3-.63,8.24,8.24,0,0,1-4.53-4.45,9,9,0,0,1,0-6.8,8.24,8.24,0,0,1,4.53-4.45,8.69,8.69,0,0,1,3.3-.63,7.38,7.38,0,0,1,1.64.19,3.47,3.47,0,0,1,1.43.63v1.53a3.07,3.07,0,0,0-1.54-.82,9.12,9.12,0,0,0-1.53-.13,7.24,7.24,0,0,0-2.75.53,6.72,6.72,0,0,0-2.23,1.49,7.21,7.21,0,0,0,0,10.12,6.57,6.57,0,0,0,2.23,1.49,7.05,7.05,0,0,0,2.75.53,5.86,5.86,0,0,0,.75,0,3.75,3.75,0,0,0,.7-.17,5.14,5.14,0,0,0,.74-.33,7.94,7.94,0,0,0,.88-.57Z"/><path d="M595.54,419.48l0-1.78a5.65,5.65,0,0,1-2,1.52,6.52,6.52,0,0,1-2.67.52,6.1,6.1,0,0,1-2.58-.52,6,6,0,0,1-2-1.38,5.94,5.94,0,0,1-1.22-2,6.41,6.41,0,0,1-.42-2.29,6.34,6.34,0,0,1,.43-2.33,5.91,5.91,0,0,1,3.18-3.31,6.19,6.19,0,0,1,2.56-.51h6.11v12Zm-4.71-10.68a5,5,0,0,0-1.85.35,4.65,4.65,0,0,0-1.52,1,4.76,4.76,0,0,0-1,1.51,4.86,4.86,0,0,0-.37,1.94,5.08,5.08,0,0,0,.3,1.7,4.59,4.59,0,0,0,.9,1.54,4.42,4.42,0,0,0,1.51,1.12,4.85,4.85,0,0,0,2.13.44,4.57,4.57,0,0,0,1.92-.39,4.69,4.69,0,0,0,1.47-1,4.44,4.44,0,0,0,1-1.51,26.39,26.39,0,0,0,.29-5.4V408.8Z"/><path d="M603.8,408.82h-3.87v10.66h-1.39l0-12H602c.84,0,1.43,0,1.77-.05Z"/><path d="M616.61,413.59a6.5,6.5,0,0,1-.42,2.3,6.22,6.22,0,0,1-1.22,2,6.34,6.34,0,0,1-2,1.41,6.07,6.07,0,0,1-2.56.53q-.88,0-1.65,0a10,10,0,0,1-4.48-1.26V403.38h1.4l0,6.13a6.48,6.48,0,0,1,1.91-1.47,5.92,5.92,0,0,1,2.76-.6A6.22,6.22,0,0,1,613,408a5.92,5.92,0,0,1,1.94,1.37,5.8,5.8,0,0,1,1.23,2A6.28,6.28,0,0,1,616.61,413.59Zm-1.4,0a4.87,4.87,0,0,0-.38-1.94,4.45,4.45,0,0,0-1-1.51,4.87,4.87,0,0,0-1.52-1,4.95,4.95,0,0,0-5.27,1,4.33,4.33,0,0,0-1,1.52,4.65,4.65,0,0,0-.31,1.91l.05,4.2a19.14,19.14,0,0,0,2.24.58,11.44,11.44,0,0,0,1.84.17,5.77,5.77,0,0,0,2.62-.52,5,5,0,0,0,1.66-1.27,4.84,4.84,0,0,0,.86-1.63A5.44,5.44,0,0,0,615.21,413.59Z"/><path d="M629.69,413.59a6.31,6.31,0,0,1-.47,2.44,5.74,5.74,0,0,1-1.3,2,6,6,0,0,1-1.95,1.29,6.78,6.78,0,0,1-4.91,0,5.93,5.93,0,0,1-1.95-1.29,5.74,5.74,0,0,1-1.3-2,6.54,6.54,0,0,1,0-4.87,6,6,0,0,1,3.25-3.25,6.65,6.65,0,0,1,4.91,0,5.9,5.9,0,0,1,1.95,1.3,5.8,5.8,0,0,1,1.3,2A6.3,6.3,0,0,1,629.69,413.59Zm-1.4,0a4.85,4.85,0,0,0-.37-1.91,4.57,4.57,0,0,0-1-1.52,4.68,4.68,0,0,0-1.51-1,5,5,0,0,0-1.9-.36,4.81,4.81,0,0,0-1.88.36,4.75,4.75,0,0,0-1.5,1,4.57,4.57,0,0,0-1,1.52,4.85,4.85,0,0,0-.37,1.91,4.8,4.8,0,0,0,.37,1.92,4.53,4.53,0,0,0,1,1.51,4.59,4.59,0,0,0,1.5,1,4.64,4.64,0,0,0,1.88.37,4.77,4.77,0,0,0,1.9-.37,4.55,4.55,0,0,0,2.51-2.51A4.8,4.8,0,0,0,628.29,413.59Z"/><path d="M640.56,419.48v-6.2a6.18,6.18,0,0,0-.32-2.19,3.4,3.4,0,0,0-.87-1.36,4.45,4.45,0,0,0-1-.63,4.33,4.33,0,0,0-1.78-.3l-4,0v10.66h-1.4l0-12h5.37a7.1,7.1,0,0,1,.74,0,5.33,5.33,0,0,1,.92.15,6.05,6.05,0,0,1,1,.36,4.66,4.66,0,0,1,1.06.65,5.75,5.75,0,0,1,1.76,4.64v6.2Z"/><path d="M655.62,413.59a6.31,6.31,0,0,1-.47,2.44,5.74,5.74,0,0,1-1.3,2,5.93,5.93,0,0,1-2,1.29,6.78,6.78,0,0,1-4.91,0,6,6,0,0,1-2-1.29,5.74,5.74,0,0,1-1.3-2,6.54,6.54,0,0,1,0-4.87,5.8,5.8,0,0,1,1.3-2,5.9,5.9,0,0,1,2-1.3,6.65,6.65,0,0,1,4.91,0,6,6,0,0,1,3.25,3.25A6.3,6.3,0,0,1,655.62,413.59Zm-1.4,0a4.85,4.85,0,0,0-.37-1.91,4.42,4.42,0,0,0-1-1.52,4.75,4.75,0,0,0-1.5-1,5,5,0,0,0-1.9-.36,4.89,4.89,0,0,0-1.89.36,4.55,4.55,0,0,0-2.5,2.52,5,5,0,0,0-.36,1.91,5,5,0,0,0,.36,1.92,4.68,4.68,0,0,0,1,1.51,4.59,4.59,0,0,0,1.5,1,4.72,4.72,0,0,0,1.89.37,4.8,4.8,0,0,0,1.9-.37,4.59,4.59,0,0,0,1.5-1,4.38,4.38,0,0,0,1-1.51A4.8,4.8,0,0,0,654.22,413.59Z"/><polygon class="cls-3" points="563.03 593.17 563.03 587.48 567.97 590.32 572.9 593.17 567.97 596.02 563.03 598.87 563.03 593.17"/><path d="M450.82,593v5.89h-1.14V586.09h6.6v1.11h-5.46v4.69H454V593Z"/><path d="M467.8,594.66h-8.47a3.48,3.48,0,0,0,.46,1.52,3.75,3.75,0,0,0,.93,1,4.06,4.06,0,0,0,1.14.61A3.86,3.86,0,0,0,463,598a3.57,3.57,0,0,0,2-.58,3.94,3.94,0,0,0,1.42-1.66h1.19a6.2,6.2,0,0,1-.87,1.47,5.34,5.34,0,0,1-1.12,1,4.75,4.75,0,0,1-1.29.61,4.85,4.85,0,0,1-1.35.2,5.05,5.05,0,0,1-1.92-.37,4.82,4.82,0,0,1-1.51-1,4.7,4.7,0,0,1-1-1.52,4.83,4.83,0,0,1-.36-1.87,5,5,0,0,1,.37-1.91,4.84,4.84,0,0,1,1-1.52,4.59,4.59,0,0,1,1.53-1,5.1,5.1,0,0,1,3.66,0,4.57,4.57,0,0,1,1.5.91,4.64,4.64,0,0,1,1.07,1.46,4.83,4.83,0,0,1,.45,1.9Zm-1.13-1.06a3,3,0,0,0-.41-1.19,3.81,3.81,0,0,0-.82-1,3.91,3.91,0,0,0-1.1-.64,3.34,3.34,0,0,0-1.24-.24,3.86,3.86,0,0,0-3.29,1.83,3.2,3.2,0,0,0-.44,1.21Z"/><path d="M474.6,590.58h-3v8.29h-1.09v-9.34h2.71c.65,0,1.1,0,1.37,0Z"/><path d="M479.69,590.77v8.1h-1.08v-8.1h-1.89v-1h1.89v-3.37h1.08v3.37h2.2v1Z"/><path d="M483.84,588.46v-2.11h1.09v2.11Zm0,10.41v-9.15h1.09v9.15Z"/><path d="M487.48,598.87V586.35h1.09v12.52Z"/><path d="M494.59,598.87v-.81l5-7.29h-5v-1h6.53v.83l-5,7.27h5v1Z"/><path d="M491.19,588.46v-2.11h1.09v2.11Zm0,10.41v-9.15h1.09v9.15Z"/><path d="M511.83,598.87l0-1.38a4.31,4.31,0,0,1-1.57,1.18,5.06,5.06,0,0,1-2.07.41,4.78,4.78,0,0,1-2-.41,4.64,4.64,0,0,1-1.51-1.07,4.33,4.33,0,0,1-.95-1.53,4.93,4.93,0,0,1-.33-1.78,4.85,4.85,0,0,1,.34-1.81,4.59,4.59,0,0,1,1-1.52,4.65,4.65,0,0,1,1.51-1.05,4.8,4.8,0,0,1,2-.4h4.75v9.36Zm-3.66-8.31a3.85,3.85,0,0,0-1.44.28,3.54,3.54,0,0,0-1.19.77,3.83,3.83,0,0,0-.79,1.17,3.73,3.73,0,0,0-.29,1.51,3.92,3.92,0,0,0,.23,1.33,3.5,3.5,0,0,0,.7,1.19,3.61,3.61,0,0,0,1.17.88,3.9,3.9,0,0,0,1.66.33,3.57,3.57,0,0,0,1.49-.3,3.65,3.65,0,0,0,1.15-.8,3.42,3.42,0,0,0,.75-1.18,20.4,20.4,0,0,0,.22-4.19v-1Z"/><path d="M523.09,598.4a6,6,0,0,1-1.18.49,5.22,5.22,0,0,1-1.41.19,5.09,5.09,0,0,1-1.87-.35,4.54,4.54,0,0,1-1.52-1,4.71,4.71,0,0,1-1-1.51,5,5,0,0,1-.38-2,4.87,4.87,0,0,1,.36-1.87,4.78,4.78,0,0,1,1-1.52,4.76,4.76,0,0,1,3.44-1.39,4.57,4.57,0,0,1,1.54.24,4.73,4.73,0,0,1,1.05.49v1.27a10.09,10.09,0,0,0-1.29-.68,3.2,3.2,0,0,0-1.28-.27,4,4,0,0,0-1.42.26,3.59,3.59,0,0,0-1.19.75,3.39,3.39,0,0,0-.82,1.17,3.86,3.86,0,0,0-.3,1.55,3.67,3.67,0,0,0,.3,1.51A3.65,3.65,0,0,0,520.5,598a3.34,3.34,0,0,0,1.26-.19,7.62,7.62,0,0,0,.76-.38l.09-.07.16-.16c.08-.07.18-.18.32-.3Z"/><path d="M525.49,588.46v-2.11h1.09v2.11Zm0,10.41v-9.15h1.09v9.15Z"/><path d="M538.55,594.29a5,5,0,0,1-.37,1.9,4.45,4.45,0,0,1-1,1.52,4.62,4.62,0,0,1-1.52,1,5.09,5.09,0,0,1-3.81,0,4.52,4.52,0,0,1-1.52-1,4.31,4.31,0,0,1-1-1.52,4.77,4.77,0,0,1-.37-1.9,4.72,4.72,0,0,1,.37-1.89,4.49,4.49,0,0,1,1-1.52,4.54,4.54,0,0,1,1.52-1,5.22,5.22,0,0,1,3.81,0,4.62,4.62,0,0,1,2.53,2.53A4.9,4.9,0,0,1,538.55,594.29Zm-1.11,0a3.83,3.83,0,0,0-.29-1.48,3.31,3.31,0,0,0-.77-1.18,3.63,3.63,0,0,0-1.17-.78,3.87,3.87,0,0,0-2.94,0,3.48,3.48,0,0,0-1.95,2,3.83,3.83,0,0,0-.29,1.48,3.89,3.89,0,0,0,.29,1.5,3.78,3.78,0,0,0,.77,1.17,3.57,3.57,0,0,0,1.18.78,4,4,0,0,0,2.94,0,3.63,3.63,0,0,0,1.17-.78,3.45,3.45,0,0,0,.77-1.17A3.89,3.89,0,0,0,537.44,594.29Zm-5.56-5-.54-.92,4.36-2.54.55.92Z"/><path d="M548.6,598.87v-4.82a5,5,0,0,0-.25-1.7,2.71,2.71,0,0,0-.69-1.06,3.07,3.07,0,0,0-.8-.49,3.31,3.31,0,0,0-1.39-.24l-3.13,0v8.29h-1.08l0-9.36h4.18l.58,0a3.2,3.2,0,0,1,.71.12,4.71,4.71,0,0,1,.8.27,4,4,0,0,1,.83.51,4.48,4.48,0,0,1,1.36,3.61v4.82Z"/><polygon class="cls-3" points="563.03 479.69 563.03 474 567.97 476.85 572.9 479.69 567.97 482.54 563.03 485.39 563.03 479.69"/><path d="M484.49,482.37a3,3,0,0,1-.32,1.48,2.45,2.45,0,0,1-.89.92,3.75,3.75,0,0,1-1.33.48,8.43,8.43,0,0,1-1.64.14H477V472.61h2.9a5.45,5.45,0,0,1,1.34.13,4.58,4.58,0,0,1,.94.36,2.82,2.82,0,0,1,.78.61,3.33,3.33,0,0,1,.49.73,3.76,3.76,0,0,1,.26.78,4.06,4.06,0,0,1,.07.76v.73a4.61,4.61,0,0,1-.1.93,4.41,4.41,0,0,1-.35,1,2.79,2.79,0,0,1-.7.95,2.33,2.33,0,0,1,1.06.67,3.32,3.32,0,0,1,.81,1.72C484.48,482.23,484.49,482.36,484.49,482.37Zm-1.9-6.44a2.16,2.16,0,0,0-.32-1.21,1.94,1.94,0,0,0-.73-.68,3,3,0,0,0-.59-.23,4.94,4.94,0,0,0-1.1-.09H478.1c0,1,0,1.89,0,2.78s0,1.82,0,2.79h1.86a4.84,4.84,0,0,0,.9-.07,3.36,3.36,0,0,0,.69-.2,1.34,1.34,0,0,0,.6-.6,3.7,3.7,0,0,0,.32-.86,5.58,5.58,0,0,0,.13-.9C482.58,476.37,482.59,476.12,482.59,475.93Zm.75,6.46a2,2,0,0,0-.15-.75,1.84,1.84,0,0,0-.44-.64,2.1,2.1,0,0,0-.72-.45,2.47,2.47,0,0,0-1-.15h-3c0,.68,0,1.32,0,1.93s0,1.26,0,2h2.23a6.75,6.75,0,0,0,1.19-.11,4.63,4.63,0,0,0,1.07-.31,1.11,1.11,0,0,0,.57-.58A2.13,2.13,0,0,0,483.34,482.39Z"/><path d="M486.91,475v-2.11H488V475Zm0,10.41v-9.15H488v9.15Z"/><path d="M500.1,480.81a5,5,0,0,1-.36,1.9,4.45,4.45,0,0,1-1,1.52,4.81,4.81,0,0,1-1.52,1,5,5,0,0,1-1.91.36,4.91,4.91,0,0,1-1.9-.36,4.7,4.7,0,0,1-1.52-1,4.31,4.31,0,0,1-1-1.52,5,5,0,0,1,0-3.79,4.59,4.59,0,0,1,1-1.52,4.7,4.7,0,0,1,1.52-1,4.91,4.91,0,0,1,1.9-.36,5,5,0,0,1,1.91.36,4.81,4.81,0,0,1,1.52,1,4.75,4.75,0,0,1,1,1.52A5,5,0,0,1,500.1,480.81Zm-1.08,0a3.83,3.83,0,0,0-.29-1.48,3.47,3.47,0,0,0-.78-1.18,3.43,3.43,0,0,0-1.17-.78,3.79,3.79,0,0,0-1.48-.29,3.69,3.69,0,0,0-1.46.29,3.63,3.63,0,0,0-1.17.78,3.47,3.47,0,0,0-.78,1.18,4.1,4.1,0,0,0,0,3,3.59,3.59,0,0,0,1.95,1.95,3.69,3.69,0,0,0,1.46.29,3.79,3.79,0,0,0,1.48-.29,3.43,3.43,0,0,0,1.17-.78,3.63,3.63,0,0,0,.78-1.17A3.86,3.86,0,0,0,499,480.81Z"/><path d="M515.37,485.39V480.3a6.13,6.13,0,0,0-.16-1.49,2.28,2.28,0,0,0-.6-1.09,2.39,2.39,0,0,0-1.78-.64,2.88,2.88,0,0,0-1,.21,2,2,0,0,0-.89.66,3.46,3.46,0,0,0-.29.46,3.16,3.16,0,0,0-.28,1.1,6.21,6.21,0,0,0,0,.79v5.09h-1.08V480.3c0-.31,0-.59,0-.82a5,5,0,0,0-.1-.62,3.12,3.12,0,0,0-.18-.49,2.65,2.65,0,0,0-.24-.4,2.3,2.3,0,0,0-.85-.64,2.7,2.7,0,0,0-1.19-.25h-2.48v8.31H503V476h3.63a3.87,3.87,0,0,1,1.53.3,3.08,3.08,0,0,1,1.21.86l.18.21.17.24a1.64,1.64,0,0,1,.14-.22l.22-.23a3.86,3.86,0,0,1,2.71-1.16,4,4,0,0,1,1.48.25,3.2,3.2,0,0,1,1.08.7,3.1,3.1,0,0,1,.83,1.42,7.06,7.06,0,0,1,.24,1.9v5.09Z"/><path d="M528,485.39l0-1.38a4.31,4.31,0,0,1-1.57,1.18,5.06,5.06,0,0,1-2.07.41,4.73,4.73,0,0,1-3.53-1.48,4.64,4.64,0,0,1-.95-1.53,4.89,4.89,0,0,1-.33-1.78,5.06,5.06,0,0,1,.34-1.81,4.9,4.9,0,0,1,1-1.52,4.55,4.55,0,0,1,1.51-1.05,4.76,4.76,0,0,1,2-.4h4.74v9.36Zm-3.66-8.31a3.94,3.94,0,0,0-1.45.28,3.56,3.56,0,0,0-2,1.94,3.73,3.73,0,0,0-.3,1.51,3.94,3.94,0,0,0,.24,1.33,3.47,3.47,0,0,0,.7,1.2,3.73,3.73,0,0,0,1.17.87,3.87,3.87,0,0,0,1.66.34,3.58,3.58,0,0,0,1.49-.31,3.77,3.77,0,0,0,1.15-.8,3.3,3.3,0,0,0,.74-1.17,20.24,20.24,0,0,0,.23-4.2v-1Z"/><path d="M537.58,482.87a2.52,2.52,0,0,1-.22,1.06,2.59,2.59,0,0,1-.59.86,2.87,2.87,0,0,1-.9.59,2.78,2.78,0,0,1-1.11.22,3.33,3.33,0,0,1-1.09-.19,3,3,0,0,1-.94-.55,2.45,2.45,0,0,1-.66-.86,2.63,2.63,0,0,1-.24-1.13v-.48h1.09a2.22,2.22,0,0,0,.52,1.59,1.72,1.72,0,0,0,1.32.57A1.62,1.62,0,0,0,536,484a1.68,1.68,0,0,0,.47-1.19v-.05a1.48,1.48,0,0,0-.49-1.11,3.53,3.53,0,0,0-1.32-.63,5.9,5.9,0,0,1-1-.31,3.21,3.21,0,0,1-.81-.46,1.92,1.92,0,0,1-.55-.71,2.28,2.28,0,0,1-.2-1,2.93,2.93,0,0,1,.17-1,2.42,2.42,0,0,1,.51-.81,2.58,2.58,0,0,1,.82-.53,3,3,0,0,1,1.12-.2,2.83,2.83,0,0,1,1,.18,2.07,2.07,0,0,1,.81.57,2.93,2.93,0,0,1,.55,1,4.33,4.33,0,0,1,.21,1.44h-1.09a2.42,2.42,0,0,0-.45-1.61,1.37,1.37,0,0,0-1-.52,1.41,1.41,0,0,0-1.53,1.47,1.16,1.16,0,0,0,.44.93,3.75,3.75,0,0,0,1.18.52c.3.08.6.18.92.28a2.78,2.78,0,0,1,.85.45,2.38,2.38,0,0,1,.66.77,2.82,2.82,0,0,1,.3,1.23Z"/><path d="M548.48,485.39l0-1.38a4.31,4.31,0,0,1-1.57,1.18,5.08,5.08,0,0,1-2.08.41,4.73,4.73,0,0,1-3.52-1.48,4.64,4.64,0,0,1-.95-1.53,4.89,4.89,0,0,1-.33-1.78,5.06,5.06,0,0,1,.34-1.81,4.58,4.58,0,0,1,2.47-2.57,4.75,4.75,0,0,1,2-.4h4.75v9.36Zm-3.67-8.31a3.93,3.93,0,0,0-1.44.28,3.62,3.62,0,0,0-2,1.94,3.91,3.91,0,0,0-.29,1.51,4.18,4.18,0,0,0,.23,1.33,3.82,3.82,0,0,0,.7,1.2,3.68,3.68,0,0,0,2.84,1.21,3.58,3.58,0,0,0,1.49-.31,3.77,3.77,0,0,0,1.15-.8,3.3,3.3,0,0,0,.74-1.17,20.24,20.24,0,0,0,.23-4.2v-1Z"/><polygon class="cls-3" points="579.85 516.52 579.85 510.82 584.78 513.67 589.72 516.52 584.78 519.37 579.85 522.22 579.85 516.52"/><path d="M501.48,523a3.84,3.84,0,0,1-1.19.47,6.08,6.08,0,0,1-1.19.12,6.68,6.68,0,0,1-2.57-.49,6.37,6.37,0,0,1-3.53-3.46,7,7,0,0,1,0-5.29,6.5,6.5,0,0,1,1.42-2.09,6.41,6.41,0,0,1,2.11-1.37,6.68,6.68,0,0,1,2.57-.49,6.41,6.41,0,0,1,1.27.14,2.83,2.83,0,0,1,1.11.5v1.19a2.36,2.36,0,0,0-1.2-.64,7,7,0,0,0-1.18-.11,5.48,5.48,0,0,0-2.14.42,5.06,5.06,0,0,0-1.74,1.16,5.36,5.36,0,0,0-1.16,1.74,5.82,5.82,0,0,0,0,4.39,5.58,5.58,0,0,0,1.16,1.74A5.21,5.21,0,0,0,497,522a5.66,5.66,0,0,0,2.14.41,5.22,5.22,0,0,0,.58,0,3.53,3.53,0,0,0,.54-.13,4.16,4.16,0,0,0,.58-.26,6.89,6.89,0,0,0,.68-.44Z"/><path d="M513.21,518.76a5,5,0,0,1-.36,1.9,4.53,4.53,0,0,1-1,1.51,4.6,4.6,0,0,1-1.51,1,5.25,5.25,0,0,1-3.82,0,4.65,4.65,0,0,1-1.52-1,4.5,4.5,0,0,1-1-1.51,5,5,0,0,1-.36-1.9,4.89,4.89,0,0,1,.36-1.89,4.54,4.54,0,0,1,1-1.52,4.49,4.49,0,0,1,1.52-1,5.11,5.11,0,0,1,3.82,0,4.45,4.45,0,0,1,1.51,1,4.57,4.57,0,0,1,1,1.52A4.89,4.89,0,0,1,513.21,518.76Zm-1.09,0a3.88,3.88,0,0,0-.29-1.49,3.4,3.4,0,0,0-.77-1.18,3.57,3.57,0,0,0-1.18-.78,4,4,0,0,0-2.94,0,3.63,3.63,0,0,0-1.17.78,3.71,3.71,0,0,0-.77,1.18,3.88,3.88,0,0,0-.29,1.49,3.81,3.81,0,0,0,.29,1.49,3.56,3.56,0,0,0,.77,1.17,3.63,3.63,0,0,0,1.17.78,3.87,3.87,0,0,0,2.94,0,3.57,3.57,0,0,0,1.18-.78,3.27,3.27,0,0,0,.77-1.17A3.81,3.81,0,0,0,512.12,518.76Z"/><path d="M521.51,520.81a2.67,2.67,0,0,1-.21,1.06,2.76,2.76,0,0,1-.6.87,2.85,2.85,0,0,1-.89.58,2.78,2.78,0,0,1-1.11.22,3.14,3.14,0,0,1-1.1-.19,3.24,3.24,0,0,1-.94-.54,2.68,2.68,0,0,1-.65-.87,2.47,2.47,0,0,1-.25-1.13v-.48h1.09a2.27,2.27,0,0,0,.53,1.6,1.74,1.74,0,0,0,1.32.56A1.62,1.62,0,0,0,520,522a1.72,1.72,0,0,0,.47-1.19v0a1.52,1.52,0,0,0-.49-1.11,3.51,3.51,0,0,0-1.33-.63,6.87,6.87,0,0,1-1-.3,3.19,3.19,0,0,1-.81-.47,2.06,2.06,0,0,1-.56-.71,2.42,2.42,0,0,1-.2-1,2.7,2.7,0,0,1,.18-1,2,2,0,0,1,.51-.8,2.34,2.34,0,0,1,.82-.54,3,3,0,0,1,1.12-.2,2.73,2.73,0,0,1,1,.18,2.17,2.17,0,0,1,.81.57,3,3,0,0,1,.56,1,4.63,4.63,0,0,1,.2,1.44h-1.09a2.44,2.44,0,0,0-.44-1.61,1.36,1.36,0,0,0-1-.51,1.47,1.47,0,0,0-1.16.43,1.52,1.52,0,0,0-.38,1,1.19,1.19,0,0,0,.44.93,3.6,3.6,0,0,0,1.19.52l.91.28a3.07,3.07,0,0,1,.86.45,2.47,2.47,0,0,1,.65.77,2.68,2.68,0,0,1,.3,1.23Z"/><path d="M533.53,519.12h-8.46a3.44,3.44,0,0,0,.46,1.52,3.87,3.87,0,0,0,3.24,1.85,3.68,3.68,0,0,0,2-.58,4,4,0,0,0,1.42-1.67h1.19a6,6,0,0,1-.87,1.47,5.2,5.2,0,0,1-1.13,1,4.53,4.53,0,0,1-1.28.6,4.94,4.94,0,0,1-3.27-.17,5,5,0,0,1-1.52-1,4.74,4.74,0,0,1-1-1.51,4.88,4.88,0,0,1-.36-1.88,4.75,4.75,0,0,1,1.39-3.42,4.44,4.44,0,0,1,1.53-1,4.8,4.8,0,0,1,1.9-.37,5,5,0,0,1,1.76.32,4.81,4.81,0,0,1,1.5.92,4.57,4.57,0,0,1,1.06,1.45,4.88,4.88,0,0,1,.46,1.91Zm-1.12-1a3.17,3.17,0,0,0-.41-1.2,4,4,0,0,0-.82-1,3.72,3.72,0,0,0-1.1-.65,3.32,3.32,0,0,0-1.24-.23,3.7,3.7,0,0,0-1.34.23,3.8,3.8,0,0,0-2,1.6,3.2,3.2,0,0,0-.44,1.21Z"/><path d="M543.45,522.87a6.42,6.42,0,0,1-1.19.48,4.84,4.84,0,0,1-1.4.19,5.09,5.09,0,0,1-1.87-.35,4.49,4.49,0,0,1-1.53-1,4.87,4.87,0,0,1-1-1.51,5,5,0,0,1-.37-2,4.88,4.88,0,0,1,.36-1.88,4.62,4.62,0,0,1,1-1.52,4.72,4.72,0,0,1,1.52-1,5.05,5.05,0,0,1,1.92-.37,4.55,4.55,0,0,1,1.53.24,6.37,6.37,0,0,1,1.06.49V516a9.06,9.06,0,0,0-1.29-.69,3.42,3.42,0,0,0-1.29-.26,4,4,0,0,0-1.41.25,3.76,3.76,0,0,0-1.19.75,3.39,3.39,0,0,0-.82,1.17,3.71,3.71,0,0,0-.31,1.56,3.58,3.58,0,0,0,.31,1.51,3.69,3.69,0,0,0,.8,1.17,3.45,3.45,0,0,0,1.17.77,3.85,3.85,0,0,0,1.44.28,3.32,3.32,0,0,0,1.26-.2,7.83,7.83,0,0,0,.76-.37l.08-.07.17-.17.32-.3Z"/><path d="M553.38,523.33v-4.82a5.09,5.09,0,0,0-.25-1.7,2.88,2.88,0,0,0-.67-1.06,3.62,3.62,0,0,0-.82-.49,3.32,3.32,0,0,0-1.39-.23,3.16,3.16,0,0,0-2.3.81,3.05,3.05,0,0,0-.83,2.28v5.21H546V510.81h1.08l0,4.32a3.34,3.34,0,0,1,1.38-.88,5,5,0,0,1,1.66-.28l.58,0a5,5,0,0,1,.71.12,4.79,4.79,0,0,1,.8.28,4,4,0,0,1,.83.51,4.46,4.46,0,0,1,1.36,3.6v4.82Z"/><path d="M565.29,523.33l0-1.38a4.23,4.23,0,0,1-1.57,1.18,5.06,5.06,0,0,1-2.07.41,4.78,4.78,0,0,1-2-.41,4.63,4.63,0,0,1-2.46-2.59,5,5,0,0,1-.33-1.78,4.86,4.86,0,0,1,.34-1.82,4.7,4.7,0,0,1,1-1.52,4.81,4.81,0,0,1,3.51-1.45h4.75v9.36Zm-3.66-8.3a3.84,3.84,0,0,0-1.44.27,3.55,3.55,0,0,0-1.18.77,3.62,3.62,0,0,0-.8,1.18,3.84,3.84,0,0,0-.29,1.51,3.91,3.91,0,0,0,.23,1.32,3.82,3.82,0,0,0,.7,1.2,3.58,3.58,0,0,0,1.17.87,3.93,3.93,0,0,0,1.66.34,3.5,3.5,0,0,0,1.5-.31,3.72,3.72,0,0,0,1.14-.8,3.47,3.47,0,0,0,.75-1.17,20.6,20.6,0,0,0,.22-4.2v-1Z"/><polygon class="cls-3" points="579.85 554.6 579.85 548.91 584.78 551.75 589.72 554.6 584.78 557.45 579.85 560.3 579.85 554.6"/><path d="M507.46,552.23a4.45,4.45,0,0,1-.22,1.33,4.1,4.1,0,0,1-.68,1.31,3.65,3.65,0,0,1-3,1.4H502c.41.37.85.75,1.3,1.14l1.37,1.19,1.34,1.17,1.24,1.08h-1.61l-5.42-4.63v4.63h-1.14V548.08h3.09c.48,0,.9,0,1.26,0a6.8,6.8,0,0,1,.92.1,3.55,3.55,0,0,1,.68.17,5.06,5.06,0,0,1,.52.23,3,3,0,0,1,.76.58,4.12,4.12,0,0,1,.6.82,5.08,5.08,0,0,1,.41,1,4.59,4.59,0,0,1,.17,1.11Zm-7.27,3h2.73a6.5,6.5,0,0,0,1.35-.12,2.41,2.41,0,0,0,1.1-.56,3.13,3.13,0,0,0,.72-1.12,3.59,3.59,0,0,0,.21-1.24,3.19,3.19,0,0,0-.34-1.42,2.82,2.82,0,0,0-.95-1.12,2.92,2.92,0,0,0-1.19-.37q-.68-.06-1.68-.06h-1.95Z"/><path d="M519.43,556.65H511a3.48,3.48,0,0,0,.46,1.52,3.75,3.75,0,0,0,.93,1,4.06,4.06,0,0,0,1.14.61,3.86,3.86,0,0,0,1.17.19,3.57,3.57,0,0,0,2-.58,3.94,3.94,0,0,0,1.42-1.66h1.19a6.2,6.2,0,0,1-.87,1.47,5.1,5.1,0,0,1-1.12,1,4.75,4.75,0,0,1-1.29.61,4.85,4.85,0,0,1-1.35.2,5,5,0,0,1-1.91-.37,4.75,4.75,0,0,1-1.52-1,4.7,4.7,0,0,1-1-1.52,4.83,4.83,0,0,1-.36-1.87,5,5,0,0,1,.37-1.91,4.84,4.84,0,0,1,1-1.52,4.59,4.59,0,0,1,1.53-1,5.1,5.1,0,0,1,3.66,0,4.57,4.57,0,0,1,1.5.91,4.64,4.64,0,0,1,1.07,1.46,4.83,4.83,0,0,1,.45,1.9Zm-1.13-1.06a3,3,0,0,0-.41-1.19,3.74,3.74,0,0,0-1.92-1.61,3.3,3.3,0,0,0-1.24-.24,3.75,3.75,0,0,0-1.34.24,3.71,3.71,0,0,0-1.95,1.59,3.38,3.38,0,0,0-.44,1.21Z"/><path d="M527.68,558.34a2.67,2.67,0,0,1-.21,1.06,2.77,2.77,0,0,1-.6.86,2.66,2.66,0,0,1-.9.59,2.88,2.88,0,0,1-1.1.22,3.39,3.39,0,0,1-1.1-.19,3,3,0,0,1-.94-.55,2.45,2.45,0,0,1-.66-.86,2.63,2.63,0,0,1-.24-1.13v-.48H523a2.18,2.18,0,0,0,.53,1.59,1.71,1.71,0,0,0,1.32.56,1.62,1.62,0,0,0,1.26-.51,1.69,1.69,0,0,0,.46-1.18v-.05a1.43,1.43,0,0,0-.49-1.11,3.38,3.38,0,0,0-1.32-.63,8.66,8.66,0,0,1-1-.31,3.21,3.21,0,0,1-.81-.46,2,2,0,0,1-.55-.71,2.46,2.46,0,0,1-.2-1,2.93,2.93,0,0,1,.17-1,2.42,2.42,0,0,1,.51-.81,2.58,2.58,0,0,1,.82-.53,3,3,0,0,1,1.13-.2,2.77,2.77,0,0,1,1,.18,2.07,2.07,0,0,1,.81.57,2.93,2.93,0,0,1,.55,1,4.29,4.29,0,0,1,.21,1.44h-1.09a2.42,2.42,0,0,0-.45-1.61,1.35,1.35,0,0,0-1-.52,1.46,1.46,0,0,0-1.16.44,1.51,1.51,0,0,0-.38,1,1.17,1.17,0,0,0,.44.93,3.75,3.75,0,0,0,1.18.52c.3.08.61.18.92.28a2.78,2.78,0,0,1,.85.45,2.38,2.38,0,0,1,.66.77,2.65,2.65,0,0,1,.3,1.23Z"/><path d="M530.12,550.45v-2.11h1.08v2.11Zm0,10.41v-9.15h1.08v9.15Z"/><path d="M533.36,556.28a4.75,4.75,0,0,1,.34-1.79,4.61,4.61,0,0,1,2.47-2.59,4.72,4.72,0,0,1,2-.4,4.65,4.65,0,0,1,2.16.47,4.89,4.89,0,0,1,1.5,1.17v-4.8h1.09v11.79a7.9,7.9,0,0,1-1.21.55,8.1,8.1,0,0,1-1.12.3,8.42,8.42,0,0,1-1.15.13c-.4,0-.82,0-1.28,0a4.66,4.66,0,0,1-3.51-1.51,4.81,4.81,0,0,1-.95-1.56A5,5,0,0,1,533.36,556.28Zm1.09,0a4.29,4.29,0,0,0,.2,1.19,3.63,3.63,0,0,0,.67,1.27,3.88,3.88,0,0,0,1.29,1,4.55,4.55,0,0,0,2,.4,8.63,8.63,0,0,0,1.44-.13,15.38,15.38,0,0,0,1.73-.45l0-1.65c0-.55,0-1.09,0-1.62a3.63,3.63,0,0,0-.25-1.48,3.36,3.36,0,0,0-.79-1.18,3.77,3.77,0,0,0-1.2-.78,3.83,3.83,0,0,0-2.9,0,3.6,3.6,0,0,0-1.18.77,3.71,3.71,0,0,0-.81,1.17A3.91,3.91,0,0,0,534.45,556.28Z"/><path d="M553.1,560.86l0-1a3.63,3.63,0,0,1-1.39.88,4.56,4.56,0,0,1-1.66.31h-.39a5.86,5.86,0,0,1-.72-.09,4.8,4.8,0,0,1-.91-.27,3.59,3.59,0,0,1-.92-.57,3.64,3.64,0,0,1-1-1.48,5.78,5.78,0,0,1-.36-2.12v-4.82h1.09v4.82a5.11,5.11,0,0,0,.24,1.7,2.57,2.57,0,0,0,.69,1.06,2.69,2.69,0,0,0,1,.56,4.08,4.08,0,0,0,1.14.16,3.17,3.17,0,0,0,2.35-.82,3.14,3.14,0,0,0,.83-2.34v-5.14h1.09v9.15Z"/><path d="M566.59,556.28a4.77,4.77,0,0,1-.37,1.9,4.31,4.31,0,0,1-1,1.52,4.52,4.52,0,0,1-1.52,1,4.74,4.74,0,0,1-1.9.37,4.78,4.78,0,0,1-1.91-.37,4.62,4.62,0,0,1-1.52-1,4.45,4.45,0,0,1-1-1.52,5,5,0,0,1-.36-1.9,4.89,4.89,0,0,1,.36-1.89,4.62,4.62,0,0,1,2.53-2.53,5,5,0,0,1,1.91-.36,4.91,4.91,0,0,1,1.9.36,4.54,4.54,0,0,1,1.52,1,4.49,4.49,0,0,1,1,1.52A4.72,4.72,0,0,1,566.59,556.28Zm-1.09,0a3.83,3.83,0,0,0-.29-1.48,3.45,3.45,0,0,0-.77-1.18,3.57,3.57,0,0,0-1.18-.78,3.87,3.87,0,0,0-2.94,0,3.63,3.63,0,0,0-1.17.78,3.45,3.45,0,0,0-.77,1.18,3.83,3.83,0,0,0-.29,1.48,3.89,3.89,0,0,0,.29,1.5,3.53,3.53,0,0,0,1.94,2,4,4,0,0,0,2.94,0,3.5,3.5,0,0,0,2-2A3.89,3.89,0,0,0,565.5,556.28Z"/><rect class="cls-2" x="26" y="421.4" width="369.89" height="199.36"/><polygon class="cls-2" points="395.89 521.08 395.89 421.39 425.43 471.24 454.97 521.08 425.43 570.91 395.89 620.75 395.89 521.08"/><rect class="cls-1" x="600.92" y="542.32" width="135.37" height="20.46"/></svg>