<?xml version="1.0" encoding="utf-8"?>
<!-- Generator: Adobe Illustrator 22.0.1, SVG Export Plug-In . SVG Version: 6.00 Build 0)  -->
<svg version="1.1" id="Capa_1" xmlns="http://www.w3.org/2000/svg" xmlns:xlink="http://www.w3.org/1999/xlink" x="0px" y="0px"
	 viewBox="0 0 515.1 365.4" style="enable-background:new 0 0 515.1 365.4;" xml:space="preserve">
<style type="text/css">
	.st0{fill:none;stroke:#004D72;stroke-width:0.25;stroke-miterlimit:10;}
</style>
<rect x="5.3" y="81.9" class="st0" width="34.9" height="269.8"/>
<rect x="40.2" y="20.6" class="st0" width="100.7" height="330.9"/>
<rect x="141" y="81.9" class="st0" width="99.8" height="269.6"/>
<rect x="241" y="81.9" class="st0" width="99.8" height="269.6"/>
<rect x="340.7" y="20.4" class="st0" width="99.8" height="331.1"/>
<rect x="439.9" y="20.4" class="st0" width="75" height="331.1"/>
<g>
	<path d="M58.5,36.2v2.5h-1.8v-7.6h2.9c1.1,0,1.8,0.2,2.4,0.6c0.5,0.4,0.8,1,0.8,1.9c0,0.8-0.3,1.4-0.9,1.9s-1.4,0.7-2.4,0.7H58.5z
		 M58.5,32.4v2.5h0.8c0.5,0,0.9-0.1,1.2-0.3s0.4-0.5,0.4-1c0-0.4-0.1-0.7-0.4-0.9s-0.6-0.3-1.2-0.3H58.5z"/>
	<path d="M67.8,34.5c-0.1,0-0.2,0-0.2,0c-0.1,0-0.2,0-0.3,0c-0.5,0-0.9,0.1-1.1,0.4c-0.2,0.3-0.4,0.7-0.4,1.2v2.7H64v-5.6h1.8v1h0
		c0.1-0.4,0.4-0.7,0.6-0.9c0.3-0.2,0.6-0.3,1-0.3c0.1,0,0.2,0,0.3,0s0.2,0,0.3,0L67.8,34.5z"/>
	<path d="M71.8,38.9c-1,0-1.8-0.3-2.4-0.8c-0.6-0.5-0.9-1.2-0.9-2.1c0-0.9,0.3-1.6,0.9-2.2s1.4-0.8,2.4-0.8c1,0,1.8,0.3,2.4,0.8
		s0.9,1.2,0.9,2.1c0,0.9-0.3,1.6-0.9,2.2S72.8,38.9,71.8,38.9z M71.9,37.6c0.5,0,0.8-0.1,1.1-0.4c0.2-0.3,0.4-0.7,0.4-1.3
		c0-0.5-0.1-0.9-0.4-1.2s-0.6-0.4-1.1-0.4c-0.5,0-0.8,0.1-1.1,0.4c-0.3,0.3-0.4,0.7-0.4,1.2c0,0.6,0.1,1,0.4,1.2
		S71.4,37.6,71.9,37.6z"/>
	<path d="M80.6,37.9c-0.2,0.3-0.5,0.5-0.8,0.7c-0.3,0.2-0.7,0.2-1.1,0.2c-0.8,0-1.4-0.2-1.9-0.7s-0.7-1.2-0.7-2.1
		c0-0.9,0.3-1.7,0.8-2.2c0.5-0.6,1.2-0.8,2-0.8c0.4,0,0.7,0.1,1,0.2s0.5,0.3,0.7,0.6h0v-3.1h1.8v8h-1.8L80.6,37.9L80.6,37.9z
		 M77.9,36c0,0.5,0.1,0.9,0.4,1.2s0.6,0.4,1,0.4c0.4,0,0.7-0.1,1-0.4c0.3-0.3,0.4-0.7,0.4-1.1v-0.5c0-0.4-0.1-0.7-0.4-0.9
		c-0.2-0.2-0.6-0.4-0.9-0.4c-0.4,0-0.8,0.2-1,0.5S77.9,35.5,77.9,36z"/>
	<path d="M90,38.7H88v-0.9h0c-0.2,0.3-0.5,0.6-0.8,0.7s-0.7,0.2-1.1,0.2c-0.7,0-1.2-0.2-1.6-0.6c-0.4-0.4-0.5-1-0.5-1.8v-3.4h1.9
		v3.2c0,0.4,0.1,0.7,0.3,0.9s0.4,0.3,0.8,0.3c0.3,0,0.6-0.1,0.8-0.3s0.3-0.5,0.3-0.9v-3.2H90V38.7z"/>
	<path d="M96.5,38.3c-0.3,0.2-0.6,0.3-1,0.4s-0.7,0.1-1,0.1c-1,0-1.8-0.3-2.4-0.8s-0.9-1.2-0.9-2c0-0.9,0.3-1.7,0.9-2.2
		s1.4-0.8,2.4-0.8c0.4,0,0.7,0,1,0.1s0.6,0.2,0.9,0.3l-0.7,1.1c-0.2-0.1-0.4-0.2-0.5-0.2c-0.2,0-0.4-0.1-0.6-0.1
		c-0.5,0-0.9,0.1-1.2,0.4C93.2,35,93,35.4,93,36c0,0.5,0.2,0.9,0.5,1.2c0.3,0.3,0.7,0.4,1.1,0.4c0.1,0,0.3,0,0.5-0.1
		c0.2-0.1,0.4-0.1,0.6-0.3L96.5,38.3z"/>
	<path d="M102.5,38.3c-0.3,0.2-0.6,0.3-1,0.4s-0.7,0.1-1,0.1c-1,0-1.8-0.3-2.4-0.8s-0.9-1.2-0.9-2c0-0.9,0.3-1.7,0.9-2.2
		s1.4-0.8,2.4-0.8c0.4,0,0.7,0,1,0.1s0.6,0.2,0.9,0.3l-0.7,1.1c-0.2-0.1-0.4-0.2-0.5-0.2c-0.2,0-0.4-0.1-0.6-0.1
		c-0.5,0-0.9,0.1-1.2,0.4C99.2,35,99,35.4,99,36c0,0.5,0.2,0.9,0.5,1.2c0.3,0.3,0.7,0.4,1.1,0.4c0.1,0,0.3,0,0.5-0.1
		c0.2-0.1,0.4-0.1,0.6-0.3L102.5,38.3z"/>
	<path d="M104.5,32.4c-0.3,0-0.6-0.1-0.8-0.3s-0.3-0.4-0.3-0.6c0-0.3,0.1-0.5,0.3-0.6c0.2-0.2,0.5-0.2,0.8-0.2s0.6,0.1,0.8,0.2
		c0.2,0.2,0.3,0.4,0.3,0.6c0,0.3-0.1,0.5-0.3,0.6S104.8,32.4,104.5,32.4z M105.4,38.7h-1.8v-5.6h1.8V38.7z"/>
	<path d="M110.1,38.9c-1,0-1.8-0.3-2.4-0.8c-0.6-0.5-0.9-1.2-0.9-2.1c0-0.9,0.3-1.6,0.9-2.2s1.4-0.8,2.4-0.8c1,0,1.8,0.3,2.4,0.8
		s0.9,1.2,0.9,2.1c0,0.9-0.3,1.6-0.9,2.2S111.1,38.9,110.1,38.9z M110.1,37.6c0.5,0,0.8-0.1,1.1-0.4c0.2-0.3,0.4-0.7,0.4-1.3
		c0-0.5-0.1-0.9-0.4-1.2s-0.6-0.4-1.1-0.4c-0.5,0-0.8,0.1-1.1,0.4c-0.3,0.3-0.4,0.7-0.4,1.2c0,0.6,0.1,1,0.4,1.2
		S109.6,37.6,110.1,37.6z"/>
	<path d="M120.6,38.7h-1.8v-3.1c0-0.4-0.1-0.8-0.3-1c-0.2-0.2-0.4-0.3-0.8-0.3c-0.3,0-0.6,0.1-0.9,0.4s-0.3,0.5-0.3,0.9v3.2h-1.8
		v-5.6h1.8V34h0c0.2-0.3,0.5-0.6,0.8-0.8c0.3-0.2,0.7-0.3,1.1-0.3c0.7,0,1.2,0.2,1.5,0.6s0.5,1,0.5,1.7V38.7z"/>
	<path d="M68.4,51.8h-5v-7.6h4.8v1.4h-3v1.8H68v1.4h-2.8v1.8h3.2V51.8z"/>
	<path d="M69.2,51.3l0.7-1.1c0.2,0.1,0.5,0.3,0.7,0.4s0.6,0.2,0.9,0.2c0.3,0,0.5,0,0.6-0.1c0.2-0.1,0.2-0.2,0.2-0.4
		c0-0.1-0.1-0.3-0.2-0.3c-0.1-0.1-0.4-0.2-0.7-0.2c-0.8-0.1-1.3-0.4-1.6-0.6s-0.5-0.6-0.5-1.1c0-0.6,0.2-1,0.7-1.3s1.1-0.5,1.8-0.5
		c0.4,0,0.7,0,1,0.1c0.3,0.1,0.6,0.2,0.9,0.4l-0.7,1.1c-0.3-0.1-0.5-0.2-0.7-0.3s-0.4-0.1-0.7-0.1c-0.3,0-0.5,0-0.6,0.1
		c-0.2,0.1-0.2,0.2-0.2,0.4c0,0.2,0.1,0.3,0.2,0.4s0.4,0.2,0.8,0.2c0.7,0.1,1.2,0.3,1.5,0.6s0.5,0.6,0.5,1.1c0,0.6-0.2,1-0.7,1.4
		s-1.1,0.5-1.9,0.5c-0.4,0-0.8,0-1.2-0.1C69.9,51.7,69.5,51.5,69.2,51.3z"/>
	<path d="M77.2,51.1L77.2,51.1l0,3.1h-1.9v-8.1h1.9V47h0c0.2-0.3,0.5-0.6,0.8-0.7c0.3-0.2,0.7-0.2,1.1-0.2c0.8,0,1.4,0.2,1.8,0.7
		c0.4,0.5,0.7,1.2,0.7,2c0,0.9-0.3,1.7-0.8,2.2c-0.5,0.6-1.2,0.8-2,0.8c-0.4,0-0.7-0.1-1-0.2S77.4,51.4,77.2,51.1z M77.1,48.8v0.4
		c0,0.4,0.1,0.7,0.3,0.9s0.5,0.4,0.9,0.4c0.4,0,0.8-0.1,1-0.4s0.4-0.7,0.4-1.3c0-0.5-0.1-0.8-0.3-1.1s-0.5-0.4-0.9-0.4
		c-0.4,0-0.7,0.1-0.9,0.4S77.1,48.4,77.1,48.8z"/>
	<path d="M88.3,49.4h-4c0,0.4,0.2,0.7,0.5,1s0.7,0.3,1.1,0.3c0.2,0,0.4,0,0.7-0.1c0.3-0.1,0.6-0.2,0.9-0.4l0.8,0.9
		c-0.4,0.3-0.8,0.5-1.3,0.6s-0.9,0.2-1.4,0.2c-1,0-1.7-0.2-2.3-0.7c-0.5-0.5-0.8-1.2-0.8-2.1c0-0.9,0.3-1.6,0.9-2.2s1.3-0.8,2.2-0.8
		c0.9,0,1.5,0.2,2,0.7s0.8,1.1,0.8,2V49.4z M86.7,48.4c0-0.4-0.1-0.8-0.3-1c-0.2-0.2-0.5-0.3-0.8-0.3c-0.3,0-0.6,0.1-0.8,0.3
		c-0.2,0.2-0.4,0.5-0.4,0.9H86.7z"/>
	<path d="M93.4,47.5c-0.1,0-0.2,0-0.2,0s-0.2,0-0.3,0c-0.5,0-0.9,0.1-1.1,0.4s-0.4,0.7-0.4,1.2v2.7h-1.8v-5.6h1.8v1h0
		c0.1-0.4,0.4-0.7,0.6-0.9c0.3-0.2,0.6-0.3,1-0.3c0.1,0,0.2,0,0.3,0c0.1,0,0.2,0,0.3,0L93.4,47.5z"/>
	<path d="M99.6,51.8h-1.7V51h0c-0.2,0.3-0.5,0.5-0.8,0.7s-0.7,0.2-1,0.2c-0.5,0-1-0.1-1.4-0.4s-0.6-0.7-0.6-1.2
		c0-0.5,0.2-0.9,0.6-1.3c0.4-0.3,1-0.5,1.7-0.6l1.5-0.2V48c0-0.3-0.1-0.5-0.3-0.6c-0.2-0.1-0.5-0.2-0.8-0.2c-0.3,0-0.5,0-0.8,0.1
		c-0.3,0.1-0.6,0.2-0.9,0.4l-0.6-1c0.4-0.2,0.8-0.4,1.2-0.5s0.9-0.2,1.3-0.2c0.9,0,1.6,0.2,2,0.6c0.4,0.4,0.6,1,0.6,1.8V51.8z
		 M97.9,49.5v-0.4l-1.2,0.1c-0.3,0-0.6,0.1-0.7,0.3s-0.2,0.3-0.2,0.5c0,0.2,0.1,0.4,0.2,0.5s0.4,0.2,0.6,0.2c0.4,0,0.7-0.1,0.9-0.3
		S97.9,49.9,97.9,49.5z"/>
	<path d="M105.3,51c-0.2,0.3-0.5,0.5-0.8,0.7c-0.3,0.2-0.7,0.2-1.1,0.2c-0.8,0-1.4-0.2-1.9-0.7c-0.5-0.5-0.7-1.2-0.7-2.1
		c0-0.9,0.3-1.7,0.8-2.2s1.2-0.8,2-0.8c0.4,0,0.7,0.1,1,0.2c0.3,0.1,0.5,0.3,0.7,0.6h0v-3.1h1.8v8h-1.8L105.3,51L105.3,51z
		 M102.6,49c0,0.5,0.1,0.9,0.4,1.2s0.6,0.4,1,0.4c0.4,0,0.7-0.1,1-0.4c0.3-0.3,0.4-0.7,0.4-1.1v-0.5c0-0.4-0.1-0.7-0.4-0.9
		s-0.6-0.4-0.9-0.4c-0.4,0-0.8,0.2-1,0.5S102.6,48.5,102.6,49z"/>
	<path d="M113.8,51.8h-1.7V51h0c-0.2,0.3-0.5,0.5-0.8,0.7s-0.7,0.2-1,0.2c-0.5,0-1-0.1-1.4-0.4s-0.6-0.7-0.6-1.2
		c0-0.5,0.2-0.9,0.6-1.3c0.4-0.3,1-0.5,1.7-0.6l1.5-0.2V48c0-0.3-0.1-0.5-0.3-0.6c-0.2-0.1-0.5-0.2-0.8-0.2c-0.3,0-0.5,0-0.8,0.1
		c-0.3,0.1-0.6,0.2-0.9,0.4l-0.6-1c0.4-0.2,0.8-0.4,1.2-0.5s0.9-0.2,1.3-0.2c0.9,0,1.6,0.2,2,0.6c0.4,0.4,0.6,1,0.6,1.8V51.8z
		 M112.2,49.5v-0.4l-1.2,0.1c-0.3,0-0.6,0.1-0.7,0.3S110,49.8,110,50c0,0.2,0.1,0.4,0.2,0.5s0.4,0.2,0.6,0.2c0.4,0,0.7-0.1,0.9-0.3
		S112.2,49.9,112.2,49.5z"/>
	<path d="M69.6,66.5h-2.7v-9.3h2.7v1h-1.2v7.3h1.2V66.5z"/>
	<path d="M77.9,64.8h-2.3l-2.5-3.3c0,0-0.1-0.1-0.1-0.2s-0.1-0.2-0.1-0.3h0v3.7h-1.8v-7.6h1.8v3.5h0c0,0,0.1-0.1,0.1-0.2
		s0.1-0.1,0.1-0.2l2.4-3.1h2.1l-2.9,3.6L77.9,64.8z"/>
	<path d="M84.8,64.1c0,0.9-0.3,1.7-0.9,2.3s-1.5,0.9-2.7,0.9c-0.4,0-0.9,0-1.2-0.1s-0.8-0.2-1.1-0.4l0.5-1.1
		c0.3,0.1,0.6,0.2,0.9,0.3s0.6,0.1,1,0.1c0.6,0,1.1-0.2,1.4-0.5c0.3-0.3,0.5-0.7,0.5-1.3V64h0c-0.2,0.3-0.5,0.6-0.8,0.7
		c-0.3,0.2-0.7,0.2-1.1,0.2c-0.8,0-1.4-0.3-1.9-0.8c-0.5-0.5-0.7-1.2-0.7-2c0-0.9,0.3-1.7,0.8-2.2c0.5-0.6,1.2-0.8,2-0.8
		c0.4,0,0.7,0.1,1,0.2s0.5,0.3,0.7,0.6h0v-0.7h1.8V64.1z M83.1,62.2v-0.5c0-0.4-0.1-0.7-0.4-0.9c-0.2-0.3-0.6-0.4-0.9-0.4
		c-0.4,0-0.8,0.2-1,0.5s-0.4,0.7-0.4,1.3c0,0.5,0.1,0.9,0.4,1.1c0.2,0.3,0.6,0.4,1,0.4s0.7-0.1,1-0.4C82.9,63,83.1,62.6,83.1,62.2z"
		/>
	<path d="M91.2,57.2l-4.1,8.9h-1.6l4.1-8.9H91.2z"/>
	<path d="M99.3,64.8h-1.8v-3.1h-3.5v3.1h-1.8v-7.6h1.8v3.1h3.5v-3.1h1.8V64.8z"/>
	<path d="M106.2,64.8h-1.7V64h0c-0.2,0.3-0.5,0.5-0.8,0.7c-0.3,0.2-0.7,0.2-1,0.2c-0.5,0-1-0.1-1.4-0.4c-0.4-0.3-0.6-0.7-0.6-1.2
		c0-0.5,0.2-0.9,0.6-1.3c0.4-0.3,1-0.5,1.7-0.6l1.5-0.2v-0.1c0-0.3-0.1-0.5-0.3-0.6s-0.5-0.2-0.8-0.2c-0.3,0-0.5,0-0.8,0.1
		c-0.3,0.1-0.6,0.2-0.9,0.4l-0.6-1c0.4-0.2,0.8-0.4,1.2-0.5s0.9-0.2,1.3-0.2c0.9,0,1.6,0.2,2,0.6s0.6,1,0.6,1.8V64.8z M104.5,62.5
		v-0.4l-1.2,0.1c-0.3,0-0.6,0.1-0.7,0.3c-0.2,0.1-0.2,0.3-0.2,0.5c0,0.2,0.1,0.4,0.2,0.5s0.4,0.2,0.6,0.2c0.4,0,0.7-0.1,0.9-0.3
		C104.4,63.2,104.5,62.9,104.5,62.5z"/>
	<path d="M110.1,66.5h-2.7v-1h1.2v-7.3h-1.2v-1h2.7V66.5z"/>
</g>
<g>
	<path d="M464.3,44.8l3.1-7.6h2.2l3,7.6h-2l-0.6-1.6h-3.1l-0.6,1.6H464.3z M467.2,41.9h2.3l-0.9-2.7c0-0.1-0.1-0.2-0.1-0.3
		s0-0.2-0.1-0.3h0c0,0.1,0,0.2-0.1,0.3c0,0.1,0,0.2-0.1,0.3L467.2,41.9z"/>
	<path d="M477.3,40.6c-0.1,0-0.2,0-0.2,0s-0.2,0-0.3,0c-0.5,0-0.9,0.1-1.1,0.4s-0.4,0.7-0.4,1.2v2.7h-1.8v-5.6h1.8v1h0
		c0.1-0.4,0.4-0.7,0.6-0.9c0.3-0.2,0.6-0.3,1-0.3c0.1,0,0.2,0,0.3,0c0.1,0,0.2,0,0.3,0L477.3,40.6z"/>
	<path d="M483.9,42.4h-4c0,0.4,0.2,0.7,0.5,1c0.3,0.2,0.7,0.3,1.1,0.3c0.2,0,0.4,0,0.7-0.1c0.3-0.1,0.6-0.2,0.9-0.4l0.8,0.9
		c-0.4,0.3-0.8,0.5-1.3,0.6c-0.4,0.1-0.9,0.2-1.4,0.2c-1,0-1.7-0.2-2.3-0.7c-0.5-0.5-0.8-1.2-0.8-2.1c0-0.9,0.3-1.6,0.9-2.2
		s1.3-0.8,2.2-0.8c0.9,0,1.5,0.2,2,0.7c0.5,0.5,0.8,1.1,0.8,2V42.4z M482.2,41.4c0-0.4-0.1-0.8-0.3-1c-0.2-0.2-0.5-0.3-0.8-0.3
		c-0.3,0-0.6,0.1-0.8,0.3c-0.2,0.2-0.4,0.5-0.4,0.9H482.2z"/>
	<path d="M490.2,44.8h-1.7V44h0c-0.2,0.3-0.5,0.5-0.8,0.7c-0.3,0.2-0.7,0.2-1,0.2c-0.5,0-1-0.1-1.4-0.4c-0.4-0.3-0.6-0.7-0.6-1.2
		c0-0.5,0.2-0.9,0.6-1.3c0.4-0.3,1-0.5,1.7-0.6l1.5-0.2V41c0-0.3-0.1-0.5-0.3-0.6s-0.5-0.2-0.8-0.2c-0.3,0-0.5,0-0.8,0.1
		s-0.6,0.2-0.9,0.4l-0.6-1c0.4-0.2,0.8-0.4,1.2-0.5c0.4-0.1,0.9-0.2,1.3-0.2c0.9,0,1.6,0.2,2,0.6c0.4,0.4,0.6,1,0.6,1.8V44.8z
		 M488.5,42.5v-0.4l-1.2,0.1c-0.3,0-0.6,0.1-0.7,0.3s-0.2,0.3-0.2,0.5c0,0.2,0.1,0.4,0.2,0.5c0.2,0.1,0.4,0.2,0.6,0.2
		c0.4,0,0.7-0.1,0.9-0.3S488.5,42.9,488.5,42.5z"/>
	<path d="M469.1,59.6h-2.7v-9.3h2.7v1h-1.2v7.3h1.2V59.6z"/>
	<path d="M477.8,57.8H476v-3.1h-3.5v3.1h-1.8v-7.6h1.8v3.1h3.5v-3.1h1.8V57.8z"/>
	<path d="M484.8,57.8H483V57h0c-0.2,0.3-0.5,0.5-0.8,0.7c-0.3,0.2-0.7,0.2-1,0.2c-0.5,0-1-0.1-1.4-0.4c-0.4-0.3-0.6-0.7-0.6-1.2
		c0-0.5,0.2-0.9,0.6-1.3c0.4-0.3,1-0.5,1.7-0.6l1.5-0.2v-0.1c0-0.3-0.1-0.5-0.3-0.6s-0.5-0.2-0.8-0.2c-0.3,0-0.5,0-0.8,0.1
		c-0.3,0.1-0.6,0.2-0.9,0.4l-0.6-1c0.4-0.2,0.8-0.4,1.2-0.5s0.9-0.2,1.3-0.2c0.9,0,1.6,0.2,2,0.6c0.4,0.4,0.6,1,0.6,1.8V57.8z
		 M483.1,55.6v-0.4l-1.2,0.1c-0.3,0-0.6,0.1-0.7,0.3c-0.2,0.1-0.2,0.3-0.2,0.5c0,0.2,0.1,0.4,0.2,0.5s0.4,0.2,0.6,0.2
		c0.4,0,0.7-0.1,0.9-0.3C482.9,56.2,483.1,55.9,483.1,55.6z"/>
	<path d="M488.7,59.6H486v-1h1.2v-7.3H486v-1h2.7V59.6z"/>
</g>
<g>
	<path d="M364.9,44.4H363l-3.5-4.9c-0.1-0.1-0.2-0.3-0.3-0.4s-0.1-0.2-0.2-0.3h0c0,0.1,0,0.3,0,0.5s0,0.4,0,0.7v4.3h-1.7v-7.6h2
		l3.4,4.7c0.1,0.1,0.1,0.2,0.2,0.3s0.1,0.2,0.2,0.3h0c0-0.1,0-0.2,0-0.4s0-0.4,0-0.7v-4.3h1.7V44.4z"/>
	<path d="M372.2,42h-4c0,0.4,0.2,0.7,0.5,1c0.3,0.2,0.7,0.3,1.1,0.3c0.2,0,0.4,0,0.7-0.1s0.6-0.2,0.9-0.4l0.8,0.9
		c-0.4,0.3-0.8,0.5-1.3,0.6s-0.9,0.2-1.4,0.2c-1,0-1.7-0.2-2.3-0.7c-0.5-0.5-0.8-1.2-0.8-2.1c0-0.9,0.3-1.6,0.9-2.2
		c0.6-0.6,1.3-0.8,2.2-0.8c0.9,0,1.5,0.2,2,0.7c0.5,0.5,0.8,1.1,0.8,2V42z M370.6,41c0-0.4-0.1-0.8-0.3-1s-0.5-0.3-0.8-0.3
		c-0.3,0-0.6,0.1-0.8,0.3c-0.2,0.2-0.4,0.5-0.4,0.9H370.6z"/>
	<path d="M378.4,44c-0.3,0.2-0.6,0.3-1,0.4s-0.7,0.1-1,0.1c-1,0-1.8-0.3-2.4-0.8s-0.9-1.2-0.9-2c0-0.9,0.3-1.7,0.9-2.2
		s1.4-0.8,2.4-0.8c0.4,0,0.7,0,1,0.1s0.6,0.2,0.9,0.3l-0.7,1.1c-0.2-0.1-0.4-0.2-0.5-0.2c-0.2,0-0.4-0.1-0.6-0.1
		c-0.5,0-0.9,0.1-1.2,0.4c-0.3,0.3-0.4,0.7-0.4,1.3c0,0.5,0.2,0.9,0.5,1.2c0.3,0.3,0.7,0.4,1.1,0.4c0.1,0,0.3,0,0.5-0.1
		c0.2-0.1,0.4-0.1,0.6-0.3L378.4,44z"/>
	<path d="M384.9,42h-4c0,0.4,0.2,0.7,0.5,1c0.3,0.2,0.7,0.3,1.1,0.3c0.2,0,0.4,0,0.7-0.1s0.6-0.2,0.9-0.4l0.8,0.9
		c-0.4,0.3-0.8,0.5-1.3,0.6s-0.9,0.2-1.4,0.2c-1,0-1.7-0.2-2.3-0.7c-0.5-0.5-0.8-1.2-0.8-2.1c0-0.9,0.3-1.6,0.9-2.2
		c0.6-0.6,1.3-0.8,2.2-0.8c0.9,0,1.5,0.2,2,0.7c0.5,0.5,0.8,1.1,0.8,2V42z M383.3,41c0-0.4-0.1-0.8-0.3-1s-0.5-0.3-0.8-0.3
		c-0.3,0-0.6,0.1-0.8,0.3c-0.2,0.2-0.4,0.5-0.4,0.9H383.3z"/>
	<path d="M385.6,43.9l0.7-1.1c0.2,0.1,0.5,0.3,0.7,0.4s0.6,0.2,0.9,0.2c0.3,0,0.5,0,0.6-0.1c0.2-0.1,0.2-0.2,0.2-0.4
		c0-0.1-0.1-0.3-0.2-0.3c-0.1-0.1-0.4-0.2-0.7-0.2c-0.8-0.1-1.3-0.4-1.6-0.6c-0.3-0.3-0.5-0.6-0.5-1.1c0-0.6,0.2-1,0.7-1.3
		c0.5-0.3,1.1-0.5,1.8-0.5c0.4,0,0.7,0,1,0.1s0.6,0.2,0.9,0.4l-0.7,1.1c-0.3-0.1-0.5-0.2-0.7-0.3s-0.4-0.1-0.7-0.1
		c-0.3,0-0.5,0-0.6,0.1s-0.2,0.2-0.2,0.4c0,0.2,0.1,0.3,0.2,0.4c0.1,0.1,0.4,0.2,0.8,0.2c0.7,0.1,1.2,0.3,1.5,0.6s0.5,0.6,0.5,1.1
		c0,0.6-0.2,1-0.7,1.4c-0.5,0.3-1.1,0.5-1.9,0.5c-0.4,0-0.8,0-1.2-0.1S386,44.1,385.6,43.9z"/>
	<path d="M392.6,38.1c-0.3,0-0.6-0.1-0.8-0.3s-0.3-0.4-0.3-0.6c0-0.3,0.1-0.5,0.3-0.6s0.5-0.2,0.8-0.2s0.6,0.1,0.8,0.2
		s0.3,0.4,0.3,0.6c0,0.3-0.1,0.5-0.3,0.6S392.9,38.1,392.6,38.1z M393.5,44.4h-1.8v-5.6h1.8V44.4z"/>
	<path d="M399.4,43.6c-0.2,0.3-0.5,0.5-0.8,0.7c-0.3,0.2-0.7,0.2-1.1,0.2c-0.8,0-1.4-0.2-1.9-0.7s-0.7-1.2-0.7-2.1
		c0-0.9,0.3-1.7,0.8-2.2c0.5-0.6,1.2-0.8,2-0.8c0.4,0,0.7,0.1,1,0.2s0.5,0.3,0.7,0.6h0v-3.1h1.8v8h-1.8L399.4,43.6L399.4,43.6z
		 M396.7,41.7c0,0.5,0.1,0.9,0.4,1.2s0.6,0.4,1,0.4c0.4,0,0.7-0.1,1-0.4c0.3-0.3,0.4-0.7,0.4-1.1v-0.5c0-0.4-0.1-0.7-0.4-0.9
		c-0.2-0.2-0.6-0.4-0.9-0.4c-0.4,0-0.8,0.2-1,0.5S396.7,41.1,396.7,41.7z"/>
	<path d="M407.9,44.4h-1.7v-0.8h0c-0.2,0.3-0.5,0.5-0.8,0.7c-0.3,0.2-0.7,0.2-1,0.2c-0.5,0-1-0.1-1.4-0.4c-0.4-0.3-0.6-0.7-0.6-1.2
		c0-0.5,0.2-0.9,0.6-1.3c0.4-0.3,1-0.5,1.7-0.6l1.5-0.2v-0.1c0-0.3-0.1-0.5-0.3-0.6s-0.5-0.2-0.8-0.2c-0.3,0-0.5,0-0.8,0.1
		c-0.3,0.1-0.6,0.2-0.9,0.4l-0.6-1c0.4-0.2,0.8-0.4,1.2-0.5s0.9-0.2,1.3-0.2c0.9,0,1.6,0.2,2,0.6c0.4,0.4,0.6,1,0.6,1.8V44.4z
		 M406.2,42.1v-0.4l-1.2,0.1c-0.3,0-0.6,0.1-0.7,0.3c-0.2,0.1-0.2,0.3-0.2,0.5c0,0.2,0.1,0.4,0.2,0.5s0.4,0.2,0.6,0.2
		c0.4,0,0.7-0.1,0.9-0.3C406.1,42.8,406.2,42.5,406.2,42.1z"/>
	<path d="M413.7,43.6c-0.2,0.3-0.5,0.5-0.8,0.7c-0.3,0.2-0.7,0.2-1.1,0.2c-0.8,0-1.4-0.2-1.9-0.7s-0.7-1.2-0.7-2.1
		c0-0.9,0.3-1.7,0.8-2.2c0.5-0.6,1.2-0.8,2-0.8c0.4,0,0.7,0.1,1,0.2s0.5,0.3,0.7,0.6h0v-3.1h1.8v8h-1.8L413.7,43.6L413.7,43.6z
		 M411,41.7c0,0.5,0.1,0.9,0.4,1.2s0.6,0.4,1,0.4c0.4,0,0.7-0.1,1-0.4c0.3-0.3,0.4-0.7,0.4-1.1v-0.5c0-0.4-0.1-0.7-0.4-0.9
		c-0.2-0.2-0.6-0.4-0.9-0.4c-0.4,0-0.8,0.2-1,0.5S411,41.1,411,41.7z"/>
	<path d="M422.6,42h-4c0,0.4,0.2,0.7,0.5,1c0.3,0.2,0.7,0.3,1.1,0.3c0.2,0,0.4,0,0.7-0.1s0.6-0.2,0.9-0.4l0.8,0.9
		c-0.4,0.3-0.8,0.5-1.3,0.6s-0.9,0.2-1.4,0.2c-1,0-1.7-0.2-2.3-0.7c-0.5-0.5-0.8-1.2-0.8-2.1c0-0.9,0.3-1.6,0.9-2.2
		c0.6-0.6,1.3-0.8,2.2-0.8c0.9,0,1.5,0.2,2,0.7c0.5,0.5,0.8,1.1,0.8,2V42z M421,41c0-0.4-0.1-0.8-0.3-1s-0.5-0.3-0.8-0.3
		c-0.3,0-0.6,0.1-0.8,0.3c-0.2,0.2-0.4,0.5-0.4,0.9H421z"/>
	<path d="M423.3,43.9l0.7-1.1c0.2,0.1,0.5,0.3,0.7,0.4s0.6,0.2,0.9,0.2c0.3,0,0.5,0,0.6-0.1c0.2-0.1,0.2-0.2,0.2-0.4
		c0-0.1-0.1-0.3-0.2-0.3c-0.1-0.1-0.4-0.2-0.7-0.2c-0.8-0.1-1.3-0.4-1.6-0.6c-0.3-0.3-0.5-0.6-0.5-1.1c0-0.6,0.2-1,0.7-1.3
		c0.5-0.3,1.1-0.5,1.8-0.5c0.4,0,0.7,0,1,0.1s0.6,0.2,0.9,0.4l-0.7,1.1c-0.3-0.1-0.5-0.2-0.7-0.3s-0.4-0.1-0.7-0.1
		c-0.3,0-0.5,0-0.6,0.1s-0.2,0.2-0.2,0.4c0,0.2,0.1,0.3,0.2,0.4c0.1,0.1,0.4,0.2,0.8,0.2c0.7,0.1,1.2,0.3,1.5,0.6s0.5,0.6,0.5,1.1
		c0,0.6-0.2,1-0.7,1.4c-0.5,0.3-1.1,0.5-1.9,0.5c-0.4,0-0.8,0-1.2-0.1S423.7,44.1,423.3,43.9z"/>
	<path d="M359.5,51.2h-2.4v6.3h-1.8v-6.3h-2.4v-1.4h6.6V51.2z"/>
	<path d="M362.3,57.6c-1,0-1.8-0.3-2.4-0.8s-0.9-1.2-0.9-2.1c0-0.9,0.3-1.6,0.9-2.2c0.6-0.5,1.4-0.8,2.4-0.8c1,0,1.8,0.3,2.4,0.8
		s0.9,1.2,0.9,2.1c0,0.9-0.3,1.6-0.9,2.2C364.1,57.3,363.3,57.6,362.3,57.6z M362.4,56.3c0.5,0,0.8-0.1,1.1-0.4s0.4-0.7,0.4-1.3
		c0-0.5-0.1-0.9-0.4-1.2s-0.6-0.4-1.1-0.4c-0.5,0-0.8,0.1-1.1,0.4s-0.4,0.7-0.4,1.2c0,0.6,0.1,1,0.4,1.2S361.9,56.3,362.4,56.3z"/>
	<path d="M370.8,57.3c-0.2,0.1-0.4,0.1-0.6,0.2s-0.5,0.1-0.7,0.1c-0.7,0-1.2-0.1-1.5-0.4s-0.5-0.7-0.5-1.3v-2.7h-1v-1.3h1v-1.3
		l1.9-0.5v1.8h1.4v1.3h-1.4v2.5c0,0.2,0,0.4,0.1,0.5c0.1,0.1,0.2,0.1,0.4,0.1c0.1,0,0.2,0,0.3,0c0.1,0,0.2-0.1,0.3-0.1L370.8,57.3z"
		/>
	<path d="M376.8,57.4h-1.7v-0.8h0c-0.2,0.3-0.5,0.5-0.8,0.7s-0.7,0.2-1,0.2c-0.5,0-1-0.1-1.4-0.4s-0.6-0.7-0.6-1.2
		c0-0.5,0.2-0.9,0.6-1.3c0.4-0.3,1-0.5,1.7-0.6l1.5-0.2v-0.1c0-0.3-0.1-0.5-0.3-0.6c-0.2-0.1-0.5-0.2-0.8-0.2c-0.3,0-0.5,0-0.8,0.1
		c-0.3,0.1-0.6,0.2-0.9,0.4l-0.6-1c0.4-0.2,0.8-0.4,1.2-0.5c0.4-0.1,0.9-0.2,1.3-0.2c0.9,0,1.6,0.2,2,0.6c0.4,0.4,0.6,1,0.6,1.8
		V57.4z M375.2,55.2v-0.4l-1.2,0.1c-0.3,0-0.6,0.1-0.7,0.3s-0.2,0.3-0.2,0.5c0,0.2,0.1,0.4,0.2,0.5s0.4,0.2,0.6,0.2
		c0.4,0,0.7-0.1,0.9-0.3S375.2,55.5,375.2,55.2z"/>
	<path d="M378.4,57.4v-8h1.8v8H378.4z"/>
	<path d="M387.4,55.1h-4c0,0.4,0.2,0.7,0.5,1s0.7,0.3,1.1,0.3c0.2,0,0.4,0,0.7-0.1c0.3-0.1,0.6-0.2,0.9-0.4l0.8,0.9
		c-0.4,0.3-0.8,0.5-1.3,0.6s-0.9,0.2-1.4,0.2c-1,0-1.7-0.2-2.3-0.7c-0.5-0.5-0.8-1.2-0.8-2.1c0-0.9,0.3-1.6,0.9-2.2s1.3-0.8,2.2-0.8
		c0.9,0,1.5,0.2,2,0.7s0.8,1.1,0.8,2V55.1z M385.7,54.1c0-0.4-0.1-0.8-0.3-1c-0.2-0.2-0.5-0.3-0.8-0.3c-0.3,0-0.6,0.1-0.8,0.3
		c-0.2,0.2-0.4,0.5-0.4,0.9H385.7z"/>
	<path d="M388.1,57l0.7-1.1c0.2,0.1,0.5,0.3,0.7,0.4c0.3,0.1,0.6,0.2,0.9,0.2c0.3,0,0.5,0,0.6-0.1c0.2-0.1,0.2-0.2,0.2-0.4
		c0-0.1-0.1-0.3-0.2-0.3c-0.1-0.1-0.4-0.2-0.7-0.2c-0.8-0.1-1.3-0.4-1.6-0.6s-0.5-0.6-0.5-1.1c0-0.6,0.2-1,0.7-1.3s1.1-0.5,1.8-0.5
		c0.4,0,0.7,0,1,0.1c0.3,0.1,0.6,0.2,0.9,0.4l-0.7,1.1c-0.3-0.1-0.5-0.2-0.7-0.3s-0.4-0.1-0.7-0.1c-0.3,0-0.5,0-0.6,0.1
		c-0.2,0.1-0.2,0.2-0.2,0.4c0,0.2,0.1,0.3,0.2,0.4s0.4,0.2,0.8,0.2c0.7,0.1,1.2,0.3,1.5,0.6s0.5,0.6,0.5,1.1c0,0.6-0.2,1-0.7,1.4
		s-1.1,0.5-1.9,0.5c-0.4,0-0.8,0-1.2-0.1S388.4,57.2,388.1,57z"/>
	<path d="M405.1,57.4h-1.9l-3.5-4.9c-0.1-0.1-0.2-0.3-0.3-0.4s-0.1-0.2-0.2-0.3h0c0,0.1,0,0.3,0,0.5c0,0.2,0,0.4,0,0.7v4.3h-1.7
		v-7.6h2l3.4,4.7c0.1,0.1,0.1,0.2,0.2,0.3s0.1,0.2,0.2,0.3h0c0-0.1,0-0.2,0-0.4s0-0.4,0-0.7v-4.3h1.7V57.4z"/>
	<path d="M411.7,49.8l-4.1,8.9H406l4.1-8.9H411.7z"/>
	<path d="M414.4,54.9v2.5h-1.8v-7.6h2.9c1.1,0,1.8,0.2,2.4,0.6s0.8,1,0.8,1.9c0,0.8-0.3,1.4-0.9,1.9s-1.4,0.7-2.4,0.7H414.4z
		 M414.4,51.1v2.5h0.8c0.5,0,0.9-0.1,1.2-0.3c0.3-0.2,0.4-0.5,0.4-1c0-0.4-0.1-0.7-0.4-0.9s-0.6-0.3-1.2-0.3H414.4z"/>
	<path d="M424.5,49.8l-4.1,8.9h-1.6l4.1-8.9H424.5z"/>
	<path d="M432.3,57.4H430l-2.5-3.3c0,0-0.1-0.1-0.1-0.2s-0.1-0.2-0.1-0.3h0v3.7h-1.8v-7.6h1.8v3.5h0c0,0,0.1-0.1,0.1-0.2
		s0.1-0.1,0.1-0.2l2.4-3.1h2.1l-2.9,3.6L432.3,57.4z"/>
</g>
<g>
	<path d="M193.7,37.4h-5v-7.6h4.8v1.4h-3v1.8h2.8v1.4h-2.8V36h3.2V37.4z"/>
	<path d="M200.7,31.8l-2,2.7l2,2.9h-2.1l-0.9-1.5c0-0.1-0.1-0.1-0.1-0.2s-0.1-0.2-0.1-0.3h0c0,0.1-0.1,0.1-0.1,0.2
		c0,0.1-0.1,0.2-0.1,0.3l-0.9,1.6h-2.1l2.1-2.8l-2-2.8h2.1l0.9,1.6c0.1,0.1,0.1,0.2,0.1,0.3c0,0.1,0.1,0.2,0.1,0.2h0
		c0-0.1,0.1-0.2,0.1-0.3c0-0.1,0.1-0.2,0.1-0.3l0.9-1.6H200.7z"/>
	<path d="M205.6,37.3c-0.2,0.1-0.4,0.1-0.6,0.2s-0.5,0.1-0.7,0.1c-0.7,0-1.2-0.1-1.5-0.4s-0.5-0.7-0.5-1.3v-2.7h-1v-1.3h1v-1.3
		l1.9-0.5v1.8h1.4v1.3h-1.4v2.5c0,0.2,0,0.4,0.1,0.5c0.1,0.1,0.2,0.1,0.4,0.1c0.1,0,0.2,0,0.3,0s0.2-0.1,0.3-0.1L205.6,37.3z"/>
	<path d="M210.3,33.2c-0.1,0-0.2,0-0.2,0s-0.2,0-0.3,0c-0.5,0-0.9,0.1-1.1,0.4s-0.4,0.7-0.4,1.2v2.7h-1.8v-5.6h1.8v1h0
		c0.1-0.4,0.4-0.7,0.6-0.9c0.3-0.2,0.6-0.3,1-0.3c0.1,0,0.2,0,0.3,0c0.1,0,0.2,0,0.3,0L210.3,33.2z"/>
	<path d="M216.5,37.4h-1.7v-0.8h0c-0.2,0.3-0.5,0.5-0.8,0.7c-0.3,0.2-0.7,0.2-1,0.2c-0.5,0-1-0.1-1.4-0.4s-0.6-0.7-0.6-1.2
		c0-0.5,0.2-0.9,0.6-1.3c0.4-0.3,1-0.5,1.7-0.6l1.5-0.2v-0.1c0-0.3-0.1-0.5-0.3-0.6c-0.2-0.1-0.5-0.2-0.8-0.2c-0.3,0-0.5,0-0.8,0.1
		s-0.6,0.2-0.9,0.4l-0.6-1c0.4-0.2,0.8-0.4,1.2-0.5s0.9-0.2,1.3-0.2c0.9,0,1.6,0.2,2,0.6c0.4,0.4,0.6,1,0.6,1.8V37.4z M214.8,35.1
		v-0.4l-1.2,0.1c-0.3,0-0.6,0.1-0.7,0.3s-0.2,0.3-0.2,0.5c0,0.2,0.1,0.4,0.2,0.5c0.2,0.1,0.4,0.2,0.6,0.2c0.4,0,0.7-0.1,0.9-0.3
		S214.8,35.5,214.8,35.1z"/>
	<path d="M223,37c-0.3,0.2-0.6,0.3-1,0.4c-0.3,0.1-0.7,0.1-1,0.1c-1,0-1.8-0.3-2.4-0.8c-0.6-0.5-0.9-1.2-0.9-2
		c0-0.9,0.3-1.7,0.9-2.2c0.6-0.5,1.4-0.8,2.4-0.8c0.4,0,0.7,0,1,0.1s0.6,0.2,0.9,0.3l-0.7,1.1c-0.2-0.1-0.4-0.2-0.5-0.2
		s-0.4-0.1-0.6-0.1c-0.5,0-0.9,0.1-1.2,0.4c-0.3,0.3-0.4,0.7-0.4,1.3c0,0.5,0.2,0.9,0.5,1.2c0.3,0.3,0.7,0.4,1.1,0.4
		c0.1,0,0.3,0,0.5-0.1c0.2-0.1,0.4-0.1,0.6-0.3L223,37z"/>
	<path d="M229,37c-0.3,0.2-0.6,0.3-1,0.4c-0.3,0.1-0.7,0.1-1,0.1c-1,0-1.8-0.3-2.4-0.8c-0.6-0.5-0.9-1.2-0.9-2
		c0-0.9,0.3-1.7,0.9-2.2c0.6-0.5,1.4-0.8,2.4-0.8c0.4,0,0.7,0,1,0.1s0.6,0.2,0.9,0.3l-0.7,1.1c-0.2-0.1-0.4-0.2-0.5-0.2
		s-0.4-0.1-0.6-0.1c-0.5,0-0.9,0.1-1.2,0.4c-0.3,0.3-0.4,0.7-0.4,1.3c0,0.5,0.2,0.9,0.5,1.2c0.3,0.3,0.7,0.4,1.1,0.4
		c0.1,0,0.3,0,0.5-0.1c0.2-0.1,0.4-0.1,0.6-0.3L229,37z"/>
	<path d="M231.1,31c-0.3,0-0.6-0.1-0.8-0.3s-0.3-0.4-0.3-0.6c0-0.3,0.1-0.5,0.3-0.6c0.2-0.2,0.5-0.2,0.8-0.2s0.6,0.1,0.8,0.2
		c0.2,0.2,0.3,0.4,0.3,0.6c0,0.3-0.1,0.5-0.3,0.6S231.4,31,231.1,31z M231.9,37.4h-1.8v-5.6h1.8V37.4z"/>
	<path d="M236.6,37.5c-1,0-1.8-0.3-2.4-0.8c-0.6-0.5-0.9-1.2-0.9-2.1c0-0.9,0.3-1.6,0.9-2.2c0.6-0.5,1.4-0.8,2.4-0.8
		c1,0,1.8,0.3,2.4,0.8c0.6,0.5,0.9,1.2,0.9,2.1c0,0.9-0.3,1.6-0.9,2.2C238.5,37.2,237.6,37.5,236.6,37.5z M236.7,36.3
		c0.5,0,0.8-0.1,1.1-0.4s0.4-0.7,0.4-1.3c0-0.5-0.1-0.9-0.4-1.2s-0.6-0.4-1.1-0.4c-0.5,0-0.8,0.1-1.1,0.4c-0.3,0.3-0.4,0.7-0.4,1.2
		c0,0.6,0.1,1,0.4,1.2C235.8,36.1,236.2,36.3,236.7,36.3z"/>
	<path d="M247.1,37.4h-1.8v-3.1c0-0.4-0.1-0.8-0.3-1c-0.2-0.2-0.4-0.3-0.8-0.3c-0.3,0-0.6,0.1-0.9,0.4s-0.3,0.5-0.3,0.9v3.2h-1.8
		v-5.6h1.8v0.9h0c0.2-0.3,0.5-0.6,0.8-0.8s0.7-0.3,1.1-0.3c0.7,0,1.2,0.2,1.5,0.6c0.3,0.4,0.5,1,0.5,1.7V37.4z"/>
	<path d="M254.2,35h-4c0,0.4,0.2,0.7,0.5,1c0.3,0.2,0.7,0.3,1.1,0.3c0.2,0,0.4,0,0.7-0.1c0.3-0.1,0.6-0.2,0.9-0.4l0.8,0.9
		c-0.4,0.3-0.8,0.5-1.3,0.6s-0.9,0.2-1.4,0.2c-1,0-1.7-0.2-2.3-0.7c-0.5-0.5-0.8-1.2-0.8-2.1c0-0.9,0.3-1.6,0.9-2.2s1.3-0.8,2.2-0.8
		c0.9,0,1.5,0.2,2,0.7c0.5,0.5,0.8,1.1,0.8,2V35z M252.5,34c0-0.4-0.1-0.8-0.3-1c-0.2-0.2-0.5-0.3-0.8-0.3c-0.3,0-0.6,0.1-0.8,0.3
		c-0.2,0.2-0.4,0.5-0.4,0.9H252.5z"/>
	<path d="M254.9,36.9l0.7-1.1c0.2,0.1,0.5,0.3,0.7,0.4c0.3,0.1,0.6,0.2,0.9,0.2c0.3,0,0.5,0,0.6-0.1c0.2-0.1,0.2-0.2,0.2-0.4
		c0-0.1-0.1-0.3-0.2-0.3c-0.1-0.1-0.4-0.2-0.7-0.2c-0.8-0.1-1.3-0.4-1.6-0.6s-0.5-0.6-0.5-1.1c0-0.6,0.2-1,0.7-1.3
		c0.5-0.3,1.1-0.5,1.8-0.5c0.4,0,0.7,0,1,0.1s0.6,0.2,0.9,0.4l-0.7,1.1c-0.3-0.1-0.5-0.2-0.7-0.3s-0.4-0.1-0.7-0.1
		c-0.3,0-0.5,0-0.6,0.1c-0.2,0.1-0.2,0.2-0.2,0.4c0,0.2,0.1,0.3,0.2,0.4s0.4,0.2,0.8,0.2c0.7,0.1,1.2,0.3,1.5,0.6s0.5,0.6,0.5,1.1
		c0,0.6-0.2,1-0.7,1.4s-1.1,0.5-1.9,0.5c-0.4,0-0.8,0-1.2-0.1S255.2,37.1,254.9,36.9z"/>
	<path d="M271.9,37.4h-1.9l-3.5-4.9c-0.1-0.1-0.2-0.3-0.3-0.4s-0.1-0.2-0.2-0.3h0c0,0.1,0,0.3,0,0.5c0,0.2,0,0.4,0,0.7v4.3h-1.7
		v-7.6h2l3.4,4.7c0.1,0.1,0.1,0.2,0.2,0.3s0.1,0.2,0.2,0.3h0c0-0.1,0-0.2,0-0.4s0-0.4,0-0.7v-4.3h1.7V37.4z"/>
	<path d="M279.3,35h-4c0,0.4,0.2,0.7,0.5,1c0.3,0.2,0.7,0.3,1.1,0.3c0.2,0,0.4,0,0.7-0.1c0.3-0.1,0.6-0.2,0.9-0.4l0.8,0.9
		c-0.4,0.3-0.8,0.5-1.3,0.6s-0.9,0.2-1.4,0.2c-1,0-1.7-0.2-2.3-0.7c-0.5-0.5-0.8-1.2-0.8-2.1c0-0.9,0.3-1.6,0.9-2.2s1.3-0.8,2.2-0.8
		c0.9,0,1.5,0.2,2,0.7c0.5,0.5,0.8,1.1,0.8,2V35z M277.6,34c0-0.4-0.1-0.8-0.3-1c-0.2-0.2-0.5-0.3-0.8-0.3c-0.3,0-0.6,0.1-0.8,0.3
		c-0.2,0.2-0.4,0.5-0.4,0.9H277.6z"/>
	<path d="M284.4,37.3c-0.2,0.1-0.4,0.1-0.6,0.2s-0.5,0.1-0.7,0.1c-0.7,0-1.2-0.1-1.5-0.4s-0.5-0.7-0.5-1.3v-2.7h-1v-1.3h1v-1.3
		l1.9-0.5v1.8h1.4v1.3h-1.4v2.5c0,0.2,0,0.4,0.1,0.5c0.1,0.1,0.2,0.1,0.4,0.1c0.1,0,0.2,0,0.3,0s0.2-0.1,0.3-0.1L284.4,37.3z"/>
	<path d="M290.4,37.4h-1.7v-0.8h0c-0.2,0.3-0.5,0.5-0.8,0.7c-0.3,0.2-0.7,0.2-1,0.2c-0.5,0-1-0.1-1.4-0.4s-0.6-0.7-0.6-1.2
		c0-0.5,0.2-0.9,0.6-1.3c0.4-0.3,1-0.5,1.7-0.6l1.5-0.2v-0.1c0-0.3-0.1-0.5-0.3-0.6c-0.2-0.1-0.5-0.2-0.8-0.2c-0.3,0-0.5,0-0.8,0.1
		s-0.6,0.2-0.9,0.4l-0.6-1c0.4-0.2,0.8-0.4,1.2-0.5s0.9-0.2,1.3-0.2c0.9,0,1.6,0.2,2,0.6c0.4,0.4,0.6,1,0.6,1.8V37.4z M288.7,35.1
		v-0.4l-1.2,0.1c-0.3,0-0.6,0.1-0.7,0.3s-0.2,0.3-0.2,0.5c0,0.2,0.1,0.4,0.2,0.5c0.2,0.1,0.4,0.2,0.6,0.2c0.4,0,0.7-0.1,0.9-0.3
		S288.7,35.5,288.7,35.1z"/>
	<path d="M291.4,36.9l0.7-1.1c0.2,0.1,0.5,0.3,0.7,0.4c0.3,0.1,0.6,0.2,0.9,0.2c0.3,0,0.5,0,0.6-0.1c0.2-0.1,0.2-0.2,0.2-0.4
		c0-0.1-0.1-0.3-0.2-0.3c-0.1-0.1-0.4-0.2-0.7-0.2c-0.8-0.1-1.3-0.4-1.6-0.6s-0.5-0.6-0.5-1.1c0-0.6,0.2-1,0.7-1.3
		c0.5-0.3,1.1-0.5,1.8-0.5c0.4,0,0.7,0,1,0.1s0.6,0.2,0.9,0.4l-0.7,1.1c-0.3-0.1-0.5-0.2-0.7-0.3s-0.4-0.1-0.7-0.1
		c-0.3,0-0.5,0-0.6,0.1c-0.2,0.1-0.2,0.2-0.2,0.4c0,0.2,0.1,0.3,0.2,0.4s0.4,0.2,0.8,0.2c0.7,0.1,1.2,0.3,1.5,0.6s0.5,0.6,0.5,1.1
		c0,0.6-0.2,1-0.7,1.4s-1.1,0.5-1.9,0.5c-0.4,0-0.8,0-1.2-0.1S291.8,37.1,291.4,36.9z"/>
	<path d="M232.8,50.4H231l-3.5-4.9c-0.1-0.1-0.2-0.3-0.3-0.4s-0.1-0.2-0.2-0.3h0c0,0.1,0,0.3,0,0.5s0,0.4,0,0.7v4.3h-1.7v-7.6h2
		l3.4,4.7c0.1,0.1,0.1,0.2,0.2,0.3s0.1,0.2,0.2,0.3h0c0-0.1,0-0.2,0-0.4s0-0.4,0-0.7v-4.3h1.7V50.4z"/>
	<path d="M239.4,42.8l-4.1,8.9h-1.6l4.1-8.9H239.4z"/>
	<path d="M242.1,47.9v2.5h-1.8v-7.6h2.9c1.1,0,1.8,0.2,2.4,0.6s0.8,1,0.8,1.9c0,0.8-0.3,1.4-0.9,1.9s-1.4,0.7-2.4,0.7H242.1z
		 M242.1,44.1v2.5h0.8c0.5,0,0.9-0.1,1.2-0.3s0.4-0.5,0.4-1c0-0.4-0.1-0.7-0.4-0.9s-0.6-0.3-1.2-0.3H242.1z"/>
	<path d="M252.2,42.8l-4.1,8.9h-1.6l4.1-8.9H252.2z"/>
	<path d="M260,50.4h-2.3l-2.5-3.3c0,0-0.1-0.1-0.1-0.2s-0.1-0.2-0.1-0.3h0v3.7h-1.8v-7.6h1.8v3.5h0c0,0,0.1-0.1,0.1-0.2
		c0-0.1,0.1-0.1,0.1-0.2l2.4-3.1h2.1l-2.9,3.6L260,50.4z"/>
</g>
<g>
	<path d="M168.1,69.5c-0.4,0.2-0.9,0.3-1.3,0.4c-0.4,0.1-0.9,0.1-1.4,0.1c-1.3,0-2.3-0.3-3.1-1c-0.7-0.7-1.1-1.6-1.1-2.8
		c0-1.2,0.4-2.1,1.2-2.9s1.9-1.1,3.2-1.1c0.5,0,0.9,0,1.2,0.1c0.4,0.1,0.7,0.2,1.1,0.3l-0.6,1.3c-0.3-0.1-0.6-0.2-0.8-0.2
		c-0.3,0-0.6-0.1-0.9-0.1c-0.7,0-1.3,0.2-1.8,0.7c-0.5,0.4-0.8,1.1-0.8,1.8c0,0.8,0.2,1.4,0.7,1.8c0.4,0.4,1.1,0.7,1.8,0.7
		c0.2,0,0.5,0,0.8-0.1s0.6-0.2,0.9-0.3L168.1,69.5z"/>
	<path d="M172.6,70c-1.2,0-2.2-0.4-2.9-1.1c-0.8-0.7-1.1-1.6-1.1-2.8c0-1.2,0.4-2.2,1.2-2.9c0.8-0.7,1.8-1.1,3.1-1.1
		c1.2,0,2.2,0.4,2.9,1.1s1.1,1.6,1.1,2.8c0,1.2-0.4,2.2-1.1,2.9C174.9,69.6,173.9,70,172.6,70z M172.7,68.6c0.7,0,1.2-0.2,1.6-0.6
		s0.6-1,0.6-1.8c0-0.8-0.2-1.4-0.6-1.9c-0.4-0.4-0.9-0.7-1.6-0.7c-0.7,0-1.2,0.2-1.6,0.7c-0.4,0.5-0.6,1.1-0.6,1.8
		c0,0.8,0.2,1.4,0.6,1.8C171.5,68.3,172,68.6,172.7,68.6z"/>
	<path d="M177.6,69.3l0.8-1.3c0.4,0.2,0.8,0.4,1.1,0.5s0.6,0.1,1,0.1c0.4,0,0.8-0.1,1-0.2s0.3-0.4,0.3-0.7c0-0.3-0.1-0.5-0.3-0.6
		s-0.5-0.3-1-0.4c-0.9-0.2-1.6-0.5-2-0.8c-0.4-0.4-0.6-0.9-0.6-1.5c0-0.6,0.3-1.2,0.8-1.6c0.5-0.4,1.3-0.7,2.3-0.7
		c0.4,0,0.8,0,1.2,0.1c0.4,0.1,0.8,0.2,1.1,0.4l-0.7,1.3c-0.3-0.2-0.6-0.3-0.9-0.4c-0.3-0.1-0.6-0.1-0.8-0.1c-0.4,0-0.7,0.1-0.9,0.2
		s-0.3,0.3-0.3,0.6c0,0.2,0.1,0.4,0.3,0.5s0.6,0.2,1.1,0.4c0.9,0.2,1.6,0.5,2,0.8c0.4,0.4,0.6,0.9,0.6,1.6c0,0.7-0.3,1.3-0.8,1.7
		c-0.6,0.4-1.4,0.7-2.4,0.7c-0.5,0-1-0.1-1.5-0.2C178.5,69.7,178,69.5,177.6,69.3z"/>
	<path d="M190.2,69.9h-5v-7.6h4.8v1.4h-3v1.8h2.8v1.4H187v1.8h3.2V69.9z"/>
	<path d="M198,69.5c-0.4,0.2-0.9,0.3-1.3,0.4c-0.4,0.1-0.9,0.1-1.4,0.1c-1.3,0-2.3-0.3-3.1-1c-0.7-0.7-1.1-1.6-1.1-2.8
		c0-1.2,0.4-2.1,1.2-2.9s1.9-1.1,3.2-1.1c0.5,0,0.9,0,1.2,0.1c0.4,0.1,0.7,0.2,1.1,0.3l-0.6,1.3c-0.3-0.1-0.6-0.2-0.8-0.2
		c-0.3,0-0.6-0.1-0.9-0.1c-0.7,0-1.3,0.2-1.8,0.7c-0.5,0.4-0.8,1.1-0.8,1.8c0,0.8,0.2,1.4,0.7,1.8c0.4,0.4,1.1,0.7,1.8,0.7
		c0.2,0,0.5,0,0.8-0.1s0.6-0.2,0.9-0.3L198,69.5z"/>
	<path d="M206.5,69.9h-1.8v-3.1h-3.5v3.1h-1.8v-7.6h1.8v3.1h3.5v-3.1h1.8V69.9z"/>
	<path d="M207.7,69.9l3.1-7.6h2.2l3,7.6h-2l-0.6-1.6h-3.1l-0.6,1.6H207.7z M210.6,66.9h2.3l-0.9-2.7c0-0.1-0.1-0.2-0.1-0.3
		c0-0.1,0-0.2-0.1-0.3h0c0,0.1,0,0.2-0.1,0.3c0,0.1,0,0.2-0.1,0.3L210.6,66.9z"/>
	<path d="M223.7,71.6h-1.5c-0.6-0.6-1.1-1.3-1.4-2.1s-0.5-1.6-0.5-2.5c0-0.9,0.2-1.7,0.5-2.5c0.3-0.8,0.8-1.5,1.4-2.2h1.5
		c-0.6,0.7-1,1.5-1.3,2.2c-0.3,0.8-0.4,1.6-0.4,2.5c0,0.9,0.1,1.7,0.4,2.4C222.6,70.2,223.1,70.9,223.7,71.6z"/>
	<path d="M227.8,69.9H226V64c-0.2,0.1-0.5,0.2-0.7,0.3s-0.6,0.2-0.9,0.3l-0.5-1.3c0.5-0.1,1-0.3,1.5-0.5c0.5-0.2,0.9-0.5,1.3-0.7
		h1.1V69.9z"/>
	<path d="M230.8,71.6h-1.5c0.6-0.7,1-1.4,1.3-2.2c0.3-0.8,0.5-1.6,0.5-2.5c0-0.9-0.2-1.7-0.5-2.5c-0.3-0.8-0.8-1.5-1.3-2.2h1.5
		c0.6,0.7,1.1,1.4,1.4,2.2c0.3,0.8,0.5,1.6,0.5,2.5c0,0.9-0.2,1.8-0.5,2.5C231.9,70.2,231.4,71,230.8,71.6z"/>
</g>
<g>
	<path d="M262.3,69h-2.1l-1.1-1.9c-0.2-0.3-0.4-0.5-0.6-0.7c-0.2-0.2-0.4-0.2-0.6-0.3h-0.5V69h-1.8v-7.6h3c1,0,1.8,0.2,2.3,0.5
		c0.5,0.4,0.8,0.9,0.8,1.6c0,0.5-0.2,0.9-0.5,1.3c-0.3,0.4-0.8,0.6-1.3,0.8v0c0.2,0.1,0.5,0.2,0.7,0.4s0.4,0.4,0.5,0.7L262.3,69z
		 M257.3,62.7v2.2h0.9c0.4,0,0.7-0.1,1-0.3c0.3-0.2,0.4-0.5,0.4-0.8c0-0.4-0.1-0.6-0.3-0.8s-0.6-0.3-1-0.3H257.3z"/>
	<path d="M268.4,69h-5v-7.6h4.8v1.4h-3v1.8h2.8v1.4h-2.8v1.8h3.2V69z"/>
	<path d="M269.2,68.5l0.8-1.3c0.4,0.2,0.8,0.4,1.1,0.5s0.6,0.1,1,0.1c0.4,0,0.8-0.1,1-0.2s0.3-0.4,0.3-0.7c0-0.3-0.1-0.5-0.3-0.6
		s-0.5-0.3-1-0.4c-0.9-0.2-1.6-0.5-2-0.8c-0.4-0.4-0.6-0.9-0.6-1.5c0-0.6,0.3-1.2,0.8-1.6c0.5-0.4,1.3-0.7,2.3-0.7
		c0.4,0,0.8,0,1.2,0.1c0.4,0.1,0.8,0.2,1.1,0.4l-0.7,1.3c-0.3-0.2-0.6-0.3-0.9-0.4s-0.6-0.1-0.8-0.1c-0.4,0-0.7,0.1-0.9,0.2
		s-0.3,0.3-0.3,0.6c0,0.2,0.1,0.4,0.3,0.5s0.6,0.2,1.1,0.4c0.9,0.2,1.6,0.5,2,0.8c0.4,0.4,0.6,0.9,0.6,1.6c0,0.7-0.3,1.3-0.8,1.7
		c-0.6,0.4-1.4,0.7-2.4,0.7c-0.5,0-1-0.1-1.5-0.2C270.1,68.9,269.6,68.7,269.2,68.5z"/>
	<path d="M278.5,69h-1.9v-7.6h1.9V69z"/>
	<path d="M280.6,69v-7.6h2.9c1.5,0,2.6,0.3,3.4,0.9s1.1,1.5,1.1,2.8c0,1.2-0.4,2.1-1.2,2.8c-0.8,0.7-1.9,1.1-3.3,1.1H280.6z
		 M282.4,62.8v4.9h1c0.8,0,1.5-0.2,2-0.7c0.5-0.5,0.7-1.1,0.7-1.9c0-0.7-0.2-1.3-0.7-1.7c-0.5-0.4-1.1-0.6-2-0.6H282.4z"/>
	<path d="M296.3,65.7c0,1.1-0.3,2-0.9,2.6c-0.6,0.6-1.5,0.9-2.6,0.9c-1.1,0-2-0.3-2.5-0.8s-0.8-1.4-0.8-2.5v-4.4h1.8v4.4
		c0,0.6,0.1,1.1,0.4,1.4c0.3,0.3,0.7,0.5,1.2,0.5s0.9-0.2,1.2-0.5c0.3-0.3,0.4-0.8,0.4-1.4v-4.5h1.8V65.7z"/>
	<path d="M301.8,69.2c-1.2,0-2.2-0.4-2.9-1.1c-0.8-0.7-1.1-1.6-1.1-2.8c0-1.2,0.4-2.2,1.2-2.9c0.8-0.7,1.8-1.1,3.1-1.1
		c1.2,0,2.2,0.4,2.9,1.1s1.1,1.6,1.1,2.8c0,1.2-0.4,2.2-1.1,2.9C304.1,68.8,303.1,69.2,301.8,69.2z M301.9,67.7
		c0.7,0,1.2-0.2,1.6-0.6s0.6-1,0.6-1.8c0-0.8-0.2-1.4-0.6-1.9s-0.9-0.7-1.6-0.7c-0.7,0-1.2,0.2-1.6,0.7c-0.4,0.5-0.6,1.1-0.6,1.8
		c0,0.8,0.2,1.4,0.6,1.8C300.7,67.5,301.2,67.7,301.9,67.7z"/>
	<path d="M314.1,70.8h-1.5c-0.6-0.6-1.1-1.3-1.4-2.1c-0.3-0.8-0.5-1.6-0.5-2.5c0-0.9,0.2-1.7,0.5-2.5s0.8-1.5,1.4-2.2h1.5
		c-0.6,0.7-1,1.5-1.3,2.2c-0.3,0.8-0.4,1.6-0.4,2.5c0,0.9,0.1,1.7,0.4,2.4C313.1,69.3,313.5,70.1,314.1,70.8z"/>
	<path d="M315.1,69v-0.6c0-0.4,0.1-0.7,0.2-1s0.3-0.6,0.5-0.8c0.2-0.2,0.4-0.5,0.7-0.7c0.3-0.2,0.5-0.4,0.8-0.5
		c0.3-0.2,0.5-0.3,0.6-0.5s0.3-0.3,0.5-0.4c0.1-0.1,0.2-0.3,0.3-0.5c0.1-0.2,0.1-0.3,0.1-0.6c0-0.3-0.1-0.5-0.3-0.7
		c-0.2-0.2-0.5-0.3-0.8-0.3c-0.2,0-0.5,0.1-0.9,0.2c-0.3,0.1-0.7,0.3-1,0.5l-0.9-1c0.5-0.3,0.9-0.6,1.4-0.8s1-0.2,1.6-0.2
		c0.8,0,1.4,0.2,1.9,0.6c0.5,0.4,0.7,0.9,0.7,1.4c0,0.4-0.1,0.8-0.2,1.1c-0.1,0.3-0.3,0.5-0.5,0.7c-0.2,0.2-0.4,0.4-0.7,0.6
		s-0.5,0.4-0.8,0.5c-0.2,0.1-0.4,0.3-0.6,0.4c-0.2,0.1-0.3,0.2-0.5,0.4c-0.1,0.1-0.2,0.2-0.3,0.4c-0.1,0.1-0.1,0.2-0.1,0.3h3.6V69
		H315.1z"/>
	<path d="M322.9,70.8h-1.5c0.6-0.7,1-1.4,1.3-2.2c0.3-0.8,0.5-1.6,0.5-2.5c0-0.9-0.2-1.7-0.5-2.5c-0.3-0.8-0.8-1.5-1.3-2.2h1.5
		c0.6,0.7,1.1,1.4,1.4,2.2s0.5,1.6,0.5,2.5c0,0.9-0.2,1.8-0.5,2.5C324,69.4,323.5,70.1,322.9,70.8z"/>
</g>
<line class="st0" x1="40.2" y1="81.9" x2="514.9" y2="81.9"/>
<line class="st0" x1="140.9" y1="20.6" x2="340.7" y2="20.4"/>
</svg>
