<?xml version="1.0" encoding="utf-8"?>
<!-- Generator: Adobe Illustrator 22.0.1, SVG Export Plug-In . SVG Version: 6.00 Build 0)  -->
<svg version="1.1" id="Capa_1" xmlns="http://www.w3.org/2000/svg" xmlns:xlink="http://www.w3.org/1999/xlink" x="0px" y="0px"
	 viewBox="0 0 512 512" style="enable-background:new 0 0 512 512;" xml:space="preserve">
<style type="text/css">
	.st0{fill:#528C00;}
</style>
<path class="st0" d="M258.5,293.9h-69v105.3c0,14.9-3.6,26.5-10.5,34.1c-7.3,7.6-16,11.6-26.9,11.6c-11.3,0-20.3-4-27.2-11.6
	c-6.9-7.6-10.5-18.9-10.5-33.8V113.1c0-16.7,3.6-28.3,11.3-35.6C133.3,70.3,145.3,67,162,67h96.6c28.7,0,50.5,2.2,65.7,6.5
	c15.3,4.4,28.3,11.3,39.6,21.1c10.9,9.8,19.6,21.8,25.1,35.9c5.8,14.2,8.7,30.1,8.7,47.9c0,37.8-11.6,66.4-34.9,86.1
	C339.5,284.1,304.7,293.9,258.5,293.9z M240.4,123.6h-50.8v113.7h50.8c17.8,0,32.7-1.8,44.3-5.4c12-3.6,21.1-9.8,27.2-18.2
	c6.2-8.4,9.4-19.6,9.4-33c0-16.3-4.7-29.8-14.5-39.9C296.3,129.1,273.8,123.6,240.4,123.6z"/>
<path class="st0" d="M501.7,386.4c0,8.1-6.6,14.7-14.7,14.7h-66.2v66.2c0,8.1-6.6,14.7-14.7,14.7s-14.7-6.6-14.7-14.7v-66.2h-66.2
	c-8.1,0-14.7-6.6-14.7-14.7s6.6-14.7,14.7-14.7h66.2v-66.2c0-8.1,6.6-14.7,14.7-14.7s14.7,6.6,14.7,14.7v66.2h66.2
	C495.1,371.6,501.7,378.2,501.7,386.4z"/>
</svg>
