<?xml version="1.0" encoding="utf-8"?>
<!-- Generator: Adobe Illustrator 24.3.0, SVG Export Plug-In . SVG Version: 6.00 Build 0)  -->
<svg version="1.1" id="Capa_1" xmlns="http://www.w3.org/2000/svg" xmlns:xlink="http://www.w3.org/1999/xlink" x="0px" y="0px"
	 viewBox="0 0 512 512" style="enable-background:new 0 0 512 512;" xml:space="preserve">
<style type="text/css">
	.st0{fill:#FFFFFF;}
</style>
<path d="M734.1,193"/>
<g>
	<path d="M282.8,326.3c-7.4-10-11.5-21.6-12.3-33.4C271.3,304.7,275.4,316.4,282.8,326.3c0.5,0.7,1,1.3,1.5,1.9
		C283.7,327.6,283.2,327,282.8,326.3z M272.6,271.3c-0.7,2.7-1.3,5.4-1.7,8.1C271.3,276.7,271.8,274,272.6,271.3L272.6,271.3z
		 M334.5,379c2.1,2.1,4.3,4.1,6.6,5.8C338.8,383,336.6,381.1,334.5,379z M402.7,310.9c2.1,2.2,4.2,4.1,6.6,5.8
		C407,315,404.8,313,402.7,310.9z M425.4,348.7c-10.4-10.4-22.8-17.5-36-21.6c-0.2-0.1-0.5-0.1-0.7-0.2c-4.9-1.5-9.9-2.6-15-3.3
		c0,0-0.1,0-0.1,0l-0.5,0.5C391.7,325.9,410.8,334.1,425.4,348.7l2,2.1L425.4,348.7z M508.6,295.8l-14.3-14.3l10.2,10.6l3.6,3.8
		l-11.8,12.3L508.6,295.8z M373.4,323.3l-0.3,0.3c0.1,0,0.2,0,0.3,0.1c0.1,0,0.1,0,0.2,0c0,0,0.1,0,0.1,0l0.1-0.1l20.7-20.7
		L373.4,323.3z M419.6,323.2c0.9,0.5,1.9,0.9,2.8,1.3C421.5,324.1,420.6,323.6,419.6,323.2z M440.6,363.9l-9.6-9.5l-3.6-3.6l12.4,13
		l0.1,0.1L425.4,379L440.6,363.9z M363.5,395.7c16.2,4.3,33.7,2.2,48.5-6.4C397.2,397.8,379.7,399.9,363.5,395.7z M482.4,271.3
		l0.1,0.1c3.8,2.7,7.5,5.9,11,9.3C490,277.2,486.3,274.1,482.4,271.3z M460.5,328.6c-7.5,1.5-15.3,1.6-22.8,0.4
		c1.1,0.2,2.3,0.3,3.4,0.5c0.5,0.1,0.9,0.1,1.4,0.1c0.7,0.1,1.4,0.1,2.1,0.1c2.2,0.1,4.3,0.1,6.5,0c0.9,0,1.9-0.1,2.8-0.2
		c0.2,0,0.4,0,0.6,0c0,0,0,0,0.1,0c0.2,0,0.5,0,0.7-0.1c0.9-0.1,1.8-0.2,2.6-0.4c1.3-0.2,2.7-0.5,4-0.8
		C461.5,328.4,461,328.5,460.5,328.6z"/>
	<path d="M373.7,323.4l-0.3,0.3c-0.1,0-0.2-0.1-0.3-0.1l0.3-0.3C373.5,323.4,373.6,323.4,373.7,323.4z"/>
	<path d="M439.9,363.7l-0.1,0.1l-12.4-13l-2-2c-14.6-14.7-33.7-22.9-52.2-24.7l0.2-0.2c5.1,0.5,10.3,1.5,15.4,3
		c0.2,0.1,0.5,0.1,0.7,0.2c13,3.9,25.6,11.1,36,21.5l2,2l3.6,3.8L439.9,363.7z"/>
	<path d="M460.5,328.6c-0.9,0.2-1.7,0.3-2.6,0.5c-0.9,0.1-1.8,0.3-2.6,0.4c-0.5,0.1-0.9,0.1-1.4,0.1c-0.9,0.1-1.9,0.2-2.8,0.2
		c-2.2,0.1-4.3,0.1-6.5,0c-0.7,0-1.4-0.1-2.1-0.1c-0.5,0-1-0.1-1.4-0.1c-1.1-0.1-2.3-0.3-3.4-0.5C445.3,330.2,453,330,460.5,328.6z"
		/>
	<path d="M493.5,280.7c-3.5-3.4-7.2-6.6-11-9.3l-0.1-0.1C486.3,274.1,490,277.2,493.5,280.7z"/>
	<polygon points="504.5,292.1 494.3,281.5 498.4,285.6 	"/>
	<path d="M467.4,236.6c-3.1,1.9-6.5,3.4-10,4.7c-4.5,1.6-9.4,2.6-14.4,2.9l-18.3,1.3l-0.9-18.1c0-0.5-0.1-0.9-0.1-1.4l-0.7-0.3
		l-0.6-8.4c-1.5-21.4,9.5-40.8,26.8-51.1c3.1-1.9,6.5-3.4,10-4.7c4.5-1.6,9.4-2.6,14.4-2.9l18.3-1.3l0.9,18.1c0,0.5,0.1,0.9,0.1,1.4
		l0.7,0.3l0.6,8.4C495.6,206.9,484.6,226.3,467.4,236.6z"/>
</g>
<g id="path1014">
	<path d="M287.9,233.3L218,259.9l25.2,42.9l1.7,2.9c15.2,26.6,8.5,50.6-17.7,65.7c-7.2,4.1-14.2,6.6-20.9,7.6
		c-2.1,0.3-4.1,0.5-6.1,0.5c-15.5,0-29-8.8-38.7-25.7L135,308l-58.8,47.7c-3.6,3-7.8,4.4-11.9,4.4c-8.8,0-17.2-6.4-18.4-16.3
		L17.7,44.1c-0.7-7.5,2.9-14.4,9.3-18.2c2.9-1.6,5.7-2.7,8.9-2.7c0.5,0,0.9,0,1.4,0.1c3.4,0,7,1.1,10,3.3l245.5,174.6
		C304.5,210,301.6,228.2,287.9,233.3z"/>
	<path class="st0" d="M270.5,292.9c0.8,11.8,4.9,23.5,12.3,33.5v0C275.4,316.3,271.3,304.7,270.5,292.9z"/>
	<path d="M504.5,292.1l-10.2-10.6l4.1,4.1l-4.1-4.4l-0.8-0.8c-3.5-3.4-7.2-6.5-11-9.2l-0.1-0.1c-9.7-6.9-20.5-11.6-31.7-14.1
		l0.3,0.4c-13.7-3.5-28.1-2.5-41.7,1.4c2.2-7.8,3.3-15.7,3.3-23.7c0-6.7-0.8-13.4-2.4-20c-3.7-14.9-11.6-29-23.2-40.5l-14.6-15.2
		l-15.1,15.2c-25.1,25.1-25.1,65.7,0,90.8l7,7L344,292.8v-0.1l-0.1,0.1c-0.1-0.6-0.2-1.1-0.2-1.7c-0.2-1.1-0.3-2.1-0.5-3.2
		c-0.1-0.5-0.2-1-0.3-1.5c-3.1-15.3-10.4-30-22-42.1c-0.1,0.1-0.1,0.2-0.2,0.3c0,0-0.1,0.1-0.1,0.1c-5.5,7.4-13.1,13.3-22,16.7
		l-25.8,9.8c-1.7,6.1-2.5,12.5-2.3,18.8c0.3,12.7,4.4,25.4,12.2,36.1c2,2.7,4.2,5.2,6.6,7.7l6.8,6.8l0,0L278,358.7
		c-6.4,15.6-18.6,28.9-35.7,38.8l0,0l0,0c-5.8,3.3-11.6,6-17.5,7.9l3.2,3.3l-46.1,46.1c-8.4,8.3-8.4,21.8,0,30.2
		c8.4,8.4,21.9,8.4,30.3,0l46.1-46.1l8.2,8.2c25.1,25.1,65.7,25.1,90.8,0l15.2-15.1l-15.2-15.1c-14.5-14.7-33.6-22.9-52.1-24.7
		c-0.1,0-0.1,0-0.1,0l21.5-21.7l8.2,8.2c2.1,2.1,4.3,4.1,6.6,5.8c0.3,0.2,0.7,0.4,1,0.7s0.7,0.5,1.1,0.8c0.4,0.3,0.8,0.6,1.3,0.9
		c2.3,1.5,4.7,2.8,7,4c0.6,0.3,1.2,0.5,1.7,0.8c0.5,0.2,1.1,0.5,1.6,0.7c0.5,0.3,1.1,0.5,1.6,0.7c0.5,0.2,1.1,0.4,1.6,0.6
		c0.4,0.2,0.8,0.4,1.3,0.5c1.3,0.5,2.7,0.9,4,1.2c21.4,5.7,45.1,0.1,61.9-16.6l14.4-15l-12.4-13l-2-2
		c-14.6-14.7-33.7-22.9-52.2-24.7l0.2-0.2c-0.1,0-0.1,0-0.2,0l0.2-0.2c-0.1,0-0.2-0.1-0.3-0.1l0.3-0.3c-0.1,0-0.2,0-0.3,0l21.3-20.7
		l0.1,0.1l8.2,8.2c2.1,2.1,4.3,4.1,6.6,5.8c0.3,0.2,0.7,0.4,1,0.7c0.4,0.3,0.7,0.5,1.1,0.8c0.4,0.3,0.8,0.6,1.3,0.9
		c0.5,0.3,0.9,0.6,1.4,0.9c0.4,0.3,0.8,0.5,1.3,0.8c1.3,0.8,2.7,1.6,4.1,2.3c0.9,0.4,1.9,0.9,2.8,1.3c1.6,0.7,3.2,1.3,4.7,1.8
		c0.4,0.1,0.9,0.3,1.3,0.4c0.3,0.1,0.6,0.2,0.9,0.3c1,0.4,2,0.6,3,0.9c0.6,0.2,1.2,0.4,1.9,0.5c2.3,0.5,4.7,0.9,7,1.1
		c-1.1-0.1-2.3-0.3-3.4-0.5c7.6,1.2,15.3,1.1,22.8-0.4c0.5-0.1,0.9-0.2,1.4-0.3c0.1,0,0.2-0.1,0.4-0.1c0.8-0.2,1.7-0.4,2.5-0.6
		c2-0.5,3.9-1.2,5.9-1.9c0.5-0.2,1-0.4,1.5-0.6c0,0,0,0,0.1,0c7.7-3.1,14.9-7.8,21.2-14.1l2.8-2.8l11.8-12.3L504.5,292.1z
		 M482.5,271.4l-0.1-0.1c3.9,2.8,7.6,5.9,11.1,9.4C490,277.3,486.3,274.1,482.5,271.4z"/>
</g>
</svg>
