<?xml version="1.0" encoding="utf-8"?>
<!-- Generator: Adobe Illustrator 24.3.0, SVG Export Plug-In . SVG Version: 6.00 Build 0)  -->
<svg version="1.1" id="Capa_1" xmlns="http://www.w3.org/2000/svg" xmlns:xlink="http://www.w3.org/1999/xlink" x="0px" y="0px"
	 viewBox="0 0 512 512" style="enable-background:new 0 0 512 512;" xml:space="preserve">
<path d="M734.1,193"/>
<g>
	<path d="M493.5,311c-16.1,16.1-38.6,21.9-59.3,17.3C454.9,332.8,477.4,327.1,493.5,311l2.8-2.8L493.5,311z M493.5,280.7l0.8,0.8
		L493.5,280.7c-3.5-3.5-7.2-6.6-11.1-9.4l0.1,0.1C486.3,274.1,490,277.3,493.5,280.7z M439.9,363.9l-14.5,15.1
		c-16.8,16.8-40.5,22.3-61.9,16.7c21.4,5.7,45.1,0.1,61.9-16.7l15.2-15.1l-13.2-13.1L439.9,363.9z M419.6,323.2
		c0.9,0.5,1.9,0.9,2.8,1.3C421.5,324.1,420.6,323.6,419.6,323.2z M394.5,302.9L394.5,302.9l-21.4,20.7c0.2,0,0.4,0.1,0.6,0.1
		L394.5,302.9z M363.4,395.7c-1.3-0.3-2.7-0.7-4-1.2C360.7,395,362.1,395.4,363.4,395.7z M304.3,227.7L304.3,227.7l14.5,15.2
		c14,14,22.7,31.7,25,50l0.1-0.1c-2.3-18.3-10.4-35.9-24.5-50L304.3,227.7z M305.1,392.2L305.1,392.2l21.3-21.3l4.1,4.1l-4.1-4.1
		L305.1,392.2z M296.1,340.6L296.1,340.6l-4.5-4.6L296.1,340.6z M508.6,295.8l-14.3-14.3l13.8,14.4l-11.8,12.3L508.6,295.8z
		 M373.7,323.6l-0.5,0.5c18.5,1.8,37.6,10,52.2,24.7l2,2l-2-2.1C410.9,334.3,392.6,326.2,373.7,323.6z M409.3,316.7
		c-2.3-1.7-4.5-3.7-6.6-5.8l-8.2-8.2l0,0l8.1,8.1C404.7,313,406.9,315,409.3,316.7z M330.5,375l4,4c2.1,2.1,4.3,4,6.6,5.8
		c-2.3-1.7-4.5-3.7-6.6-5.8L330.5,375z M304.3,227.8L304.3,227.8l-15.2,15.1c-25.1,25-25.1,65.7,0,90.8l2.3,2.3l-2.3-2.3
		c-25.1-25-25.1-65.7,0-90.8L304.3,227.8z"/>
	<path d="M508,295.9l-11.8,12.3l-2.8,2.8c-16.1,16.1-38.6,21.9-59.3,17.3l0,0c-0.7-0.1-1.3-0.3-1.9-0.5c-1-0.3-2-0.5-3-0.9
		c-0.3-0.1-0.6-0.2-0.9-0.3c-0.4-0.1-0.9-0.3-1.3-0.4c-1.5-0.5-3.1-1.1-4.7-1.8c-0.9-0.4-1.9-0.9-2.8-1.3c-1.4-0.7-2.8-1.5-4.1-2.3
		c-0.5-0.3-0.9-0.5-1.3-0.8c-0.5-0.3-0.9-0.6-1.4-0.9c-0.5-0.3-0.9-0.6-1.3-0.9c-0.4-0.3-0.7-0.5-1.1-0.8c-0.3-0.3-0.7-0.5-1-0.7
		c-2.3-1.7-4.5-3.7-6.6-5.8l-8.2-8.2l0,0l-0.1-0.1l-21.3,20.7c0.2,0,0.4,0.1,0.6,0.1l-0.5,0.5c18.5,1.8,37.6,10,52.2,24.7l2,2
		l12.5,13.1l-14.5,15.1c-16.8,16.7-40.5,22.3-61.9,16.6l0,0c-1.3-0.3-2.7-0.7-4-1.2c-0.5-0.1-0.9-0.3-1.3-0.5l0,0
		c-0.5-0.2-1.1-0.4-1.6-0.6c-0.5-0.2-1.1-0.4-1.6-0.7c-0.5-0.2-1.1-0.5-1.6-0.7c-0.5-0.3-1.1-0.5-1.7-0.8c-2.3-1.2-4.7-2.5-7-4
		c-0.5-0.3-0.9-0.6-1.3-0.9c-0.4-0.3-0.8-0.5-1.1-0.8c-0.3-0.3-0.7-0.5-1-0.7c-2.3-1.7-4.5-3.7-6.6-5.8l-4.1-4.1l-4.1-4.1L305,392.2
		c0,0,0,0,0.1,0c18.5,1.8,37.6,10,52.1,24.7l15.2,15.1l-15.2,15.1c-25.1,25.1-65.7,25.1-90.8,0l-8.2-8.2l-46.1,46.1
		c-8.4,8.4-21.9,8.4-30.3,0c-8.4-8.4-8.4-21.9,0-30.2l46.1-46.1l-6.8-7c-25.1-25-25.1-65.7,0-90.8l15.1-15.2l15.1,15.2
		c14,14,22.2,31.7,24.5,50l20.3-20.4l0,0l-4.5-4.5l-2.3-2.3c-25.1-25-25.1-65.7,0-90.8l15.1-15.2l14.5,15.1c14,14,22.7,31.7,25,50
		l0.1-0.1v0.1l20.3-20.4l-7-7c-25.1-25.1-25.1-65.7,0-90.8l15.1-15.2l14.6,15.2c11.6,11.5,19.5,25.6,23.2,40.5l0,0
		c3.5,14.4,3.1,29.4-0.9,43.7c13.6-3.9,28-4.9,41.7-1.4l-0.3-0.4c11.2,2.5,22,7.2,31.7,14.1l0.1,0.1c3.8,2.7,7.5,5.8,11,9.2l0.8,0.8
		L508,295.9z"/>
	<path d="M467.4,236.6c-3.1,1.9-6.5,3.4-10,4.7c-4.5,1.6-9.4,2.6-14.4,2.9l-18.3,1.3l-0.9-18.1c0-0.5-0.1-0.9-0.1-1.4l-0.7-0.3
		l-0.6-8.4c-1.5-21.4,9.5-40.8,26.8-51.1c3.1-1.9,6.5-3.4,10-4.7c4.5-1.6,9.4-2.6,14.4-2.9l18.3-1.3l0.9,18.1c0,0.5,0.1,0.9,0.1,1.4
		l0.7,0.3l0.6,8.4C495.6,206.9,484.6,226.3,467.4,236.6z"/>
</g>
<path id="path1014" d="M43.7,10.5c-3.2-0.3-6,0.6-8.8,2.2c-5.4,3.2-8.5,9.1-7.9,15.5L51,284c1.6,12.3,16.1,18.3,25.9,10.1l50.2-40.7
	l22.7,39.1c12.9,22.4,33.4,28.1,56.1,15.1c22.4-12.9,28.1-33.4,15.1-56.1l-23-39.1l59.6-22.7c11.7-4.4,14.2-19.9,4.1-27.4L52.2,13.3
	C49.7,11.4,46.6,10.5,43.7,10.5z"/>
</svg>
