<?xml version="1.0" encoding="utf-8"?>
<!-- Generator: Adobe Illustrator 22.0.1, SVG Export Plug-In . SVG Version: 6.00 Build 0)  -->
<svg version="1.1" id="Capa_1" xmlns="http://www.w3.org/2000/svg" xmlns:xlink="http://www.w3.org/1999/xlink" x="0px" y="0px"
	 viewBox="0 0 448 512" style="enable-background:new 0 0 448 512;" xml:space="preserve">
<style type="text/css">
	.st0{fill:#CC9900;}
	.st1{fill:#FFFFFF;}
</style>
<g>
	<g>
		<rect x="82.2" y="41.8" class="st0" width="283.5" height="218.3"/>
		<rect x="173.4" y="41.8" class="st1" width="101.3" height="101.3"/>
		<g>
			<path d="M154.4,210.6l11.4,3.6c-1.7,6.3-4.6,11-8.7,14.1c-4.1,3-9.2,4.6-15.4,4.6c-7.7,0-14.1-2.6-19-7.9
				c-5-5.3-7.4-12.5-7.4-21.6c0-9.7,2.5-17.1,7.4-22.5c5-5.4,11.6-8,19.7-8c7.1,0,12.8,2.1,17.3,6.3c2.6,2.5,4.6,6.1,6,10.7
				l-11.6,2.8c-0.7-3-2.1-5.4-4.3-7.1s-4.8-2.6-7.9-2.6c-4.3,0-7.8,1.6-10.5,4.6c-2.7,3-4.1,8.1-4.1,15c0,7.3,1.4,12.6,3.9,15.6
				c2.6,3.2,6.1,4.6,10.2,4.6c3.2,0,5.7-1,8-2.9C151.8,218.1,153.5,214.9,154.4,210.6z"/>
			<path d="M175.8,232v-57.9h43v9.8h-31.3v12.8h29.1v9.8h-29.1v15.8h32.4v9.8L175.8,232L175.8,232z"/>
			<path d="M282.2,232h-12.7l-5.1-13.2h-23.2l-4.8,13.2H224l22.6-57.9H259L282.2,232z M260.6,209.1l-8-21.5l-7.9,21.5H260.6z"/>
			<path d="M288.4,232v-57.9h18.8c7.1,0,11.8,0.3,14,0.9c3.4,0.9,6.1,2.8,8.3,5.6c2.3,2.9,3.4,6.6,3.4,11.3c0,3.6-0.7,6.5-1.9,9
				c-1.2,2.5-2.9,4.3-5,5.7c-2,1.5-4.1,2.3-6.1,2.7c-2.8,0.6-6.9,0.8-12.2,0.8h-7.7v21.8h-11.7V232z M300.1,183.9v16.4h6.4
				c4.6,0,7.7-0.3,9.2-0.9c1.6-0.6,2.8-1.6,3.7-2.8s1.4-2.8,1.4-4.5c0-2.1-0.7-3.8-1.9-5.2c-1.2-1.4-2.8-2.3-4.7-2.6
				c-1.4-0.2-4.2-0.5-8.4-0.5H300.1z"/>
		</g>
	</g>
	<g>
		<path class="st0" d="M365.8,143c0,0,47.9,11.3,47.9,33.3c0,22.5-9.2,168.8,15.2,168.8v16.5h-31.5c0,0-3.8-177-31.5-177V143H365.8z
			"/>
		<rect x="428.9" y="296.8" width="20.1" height="108.8"/>
	</g>
	<g>
		<path class="st0" d="M82.2,143c0,0-47.9,11.3-47.9,33.3c0,22.5,9.2,168.8-15.2,168.8v16.5h31.5c0,0,3.8-177,31.5-177V143H82.2z"/>
		<rect x="-1" y="296.7" width="20.1" height="108.8"/>
	</g>
	<g>
		<ellipse cx="121.3" cy="351.2" rx="10.1" ry="54.3"/>
		<ellipse cx="190" cy="351.2" rx="10.1" ry="54.3"/>
		<ellipse cx="258.7" cy="351.2" rx="10.1" ry="54.3"/>
		<ellipse cx="326.7" cy="351.2" rx="10.1" ry="54.3"/>
	</g>
</g>
</svg>
