<?xml version="1.0" encoding="utf-8"?>
<!-- Generator: Adobe Illustrator 24.3.0, SVG Export Plug-In . SVG Version: 6.00 Build 0)  -->
<svg version="1.1" id="Capa_1" xmlns="http://www.w3.org/2000/svg" xmlns:xlink="http://www.w3.org/1999/xlink" x="0px" y="0px"
	 viewBox="0 0 512 512" style="enable-background:new 0 0 512 512;" xml:space="preserve">
<path d="M734.1,193"/>
<g>
	<path d="M482.4,236.1c-24.1,24-57.7,32.7-88.6,25.9C424.8,268.8,458.4,260.2,482.4,236.1l4.2-4.2L482.4,236.1z M482.4,190.8
		l1.2,1.2L482.4,190.8c-5.2-5.2-10.8-9.9-16.6-14l0.2,0.2C471.7,181,477.2,185.7,482.4,190.8z M402.3,315.3l-21.7,22.6
		C355.5,363,320,371.3,288,362.8c32,8.5,67.5,0.2,92.6-24.9l22.7-22.6l-19.7-19.6L402.3,315.3z M372,254.4c1.4,0.7,2.8,1.3,4.2,1.9
		C374.8,255.7,373.4,255,372,254.4z M334.5,224L334.5,224l-32,30.9c0.3,0,0.6,0.1,0.9,0.1L334.5,224z M288,362.8c-2-0.5-4-1.1-6-1.8
		C283.9,361.7,286,362.3,288,362.8z M199.6,111.6L199.6,111.6l21.7,22.7c21,20.9,34,47.4,37.4,74.8l0.1-0.1
		c-3.4-27.3-15.6-53.7-36.6-74.7L199.6,111.6z M200.7,357.6L200.7,357.6l31.9-31.8l6.2,6.1l-6.2-6.1L200.7,357.6z M187.3,280.4
		L187.3,280.4l-6.8-6.9L187.3,280.4z M505,213.4L483.6,192l20.6,21.6L486.6,232L505,213.4z M303.4,255l-0.8,0.8
		c27.6,2.7,56.2,15,78,36.9l3,3l-3-3.1C358.9,271,331.6,258.8,303.4,255z M356.5,244.7c-3.4-2.6-6.7-5.5-9.8-8.6l-12.2-12.2l0,0
		l12.1,12.1C349.7,239.2,353,242.1,356.5,244.7z M238.8,331.8l6,6c3.1,3.1,6.4,6,9.9,8.6c-3.4-2.6-6.7-5.5-9.8-8.6L238.8,331.8z
		 M199.6,111.7L199.6,111.7l-22.7,22.6c-37.5,37.4-37.5,98.2,0,135.7l3.5,3.5l-3.5-3.5c-37.5-37.4-37.5-98.2,0-135.7L199.6,111.7z"
		/>
	<path d="M504.2,213.6L486.6,232l-4.2,4.2c-24.1,24-57.7,32.7-88.6,25.9l0,0c-1-0.2-1.9-0.5-2.9-0.7c-1.5-0.4-3-0.8-4.5-1.3
		c-0.4-0.1-0.9-0.3-1.3-0.4c-0.6-0.2-1.3-0.4-1.9-0.6c-2.3-0.8-4.7-1.7-7-2.7c-1.4-0.6-2.8-1.3-4.2-1.9c-2.1-1-4.2-2.2-6.2-3.4
		c-0.7-0.4-1.4-0.8-2-1.2c-0.7-0.5-1.4-0.9-2.1-1.4c-0.7-0.4-1.3-0.9-2-1.3c-0.6-0.4-1.1-0.8-1.7-1.2c-0.5-0.4-1-0.7-1.5-1.1
		c-3.4-2.6-6.7-5.5-9.8-8.6l-12.2-12.2l0,0l-0.1-0.1l-31.9,31c0.3,0,0.6,0.1,0.9,0.1l-0.8,0.8c27.6,2.7,56.2,15,78,36.9l3,3
		l18.7,19.6L380.6,338c-25.1,25-60.6,33.3-92.6,24.8l0,0c-2-0.5-4-1.1-6-1.8c-0.7-0.2-1.3-0.5-2-0.7l0,0c-0.8-0.3-1.6-0.6-2.4-0.9
		s-1.6-0.6-2.4-1c-0.8-0.3-1.6-0.7-2.4-1.1s-1.7-0.8-2.5-1.2c-3.5-1.8-7-3.8-10.4-6c-0.7-0.4-1.3-0.9-2-1.3
		c-0.6-0.4-1.2-0.8-1.7-1.2c-0.5-0.4-1-0.7-1.5-1.1c-3.4-2.6-6.7-5.5-9.8-8.6l-6.2-6.1l-6.2-6.1l-31.9,31.9c0,0,0,0,0.1,0
		c27.6,2.7,56.2,15,77.9,36.9l22.7,22.6l-22.7,22.6c-37.5,37.5-98.2,37.5-135.7,0l-12.3-12.2l-68.9,68.9
		c-12.5,12.5-32.8,12.5-45.3,0s-12.5-32.7,0-45.2l68.9-68.9l-10.2-10.5c-37.5-37.4-37.5-98.2,0-135.7l22.6-22.7l22.6,22.7
		c21,21,33.2,47.4,36.6,74.8l30.4-30.5l0,0l-6.8-6.8l-3.5-3.5c-37.5-37.4-37.5-98.2,0-135.7l22.6-22.7l21.7,22.6
		c21,20.9,34,47.4,37.4,74.8l0.1-0.1v0.1l30.4-30.5l-10.4-10.4c-37.5-37.5-37.5-98.3,0-135.7l22.6-22.7l21.8,22.7
		c17.3,17.2,29.2,38.3,34.7,60.5l0,0c5.2,21.5,4.7,44-1.4,65.3c20.3-5.8,41.8-7.4,62.4-2.1l-0.5-0.6c16.7,3.8,32.9,10.8,47.4,21.1
		l0.2,0.2c5.7,4,11.2,8.7,16.4,13.8l1.2,1.2L504.2,213.6z"/>
	<path d="M443.4,124.9c-4.7,2.8-9.7,5.1-14.9,7c-6.8,2.4-14,3.9-21.6,4.4l-27.4,1.9l-1.3-27c0-0.7-0.1-1.4-0.1-2.1l-1.1-0.5
		L376.1,96c-2.2-32,14.2-61,40-76.4c4.7-2.8,9.7-5.1,14.9-7c6.8-2.4,14-3.9,21.6-4.4L480,6.3l1.3,27c0,0.7,0.1,1.4,0.1,2.1l1.1,0.5
		l0.9,12.6C485.6,80.5,469.2,109.5,443.4,124.9z"/>
</g>
</svg>
