<?xml version="1.0" encoding="utf-8"?>
<!-- Generator: Adobe Illustrator 22.0.1, SVG Export Plug-In . SVG Version: 6.00 Build 0)  -->
<svg version="1.1" id="Capa_1" xmlns="http://www.w3.org/2000/svg" xmlns:xlink="http://www.w3.org/1999/xlink" x="0px" y="0px"
	 viewBox="0 0 448 512" style="enable-background:new 0 0 448 512;" xml:space="preserve">
<style type="text/css">
	.st0{fill:#CC9900;}
</style>
<g>
	<path class="st0" d="M265.9,330.9h-88.3c-83.4,0-150.9,67.6-150.9,150.9c0,16.7,13.6,30.2,30.2,30.2h329.8
		c16.7,0,30.2-13.5,30.2-30.2C416.8,398.5,349.3,330.9,265.9,330.9z"/>
	<path class="st0" d="M331,192.1c1.5,7.3,2.3,14.9,2.3,22.6c0,61.5-49.8,111.5-111.5,111.5s-111.5-49.9-111.5-111.5
		c0-7.8,0.8-15.3,2.3-22.6C58.3,181.4,22.5,163,22.5,142c0-24.3,48.3-45.3,117.6-54.7V87c0-45.5,36.6-82.4,81.7-82.4
		s81.7,36.9,81.7,82.4v0.3c69.3,9.4,117.6,30.4,117.6,54.7C421.1,163,385.3,181.4,331,192.1z"/>
</g>
</svg>
