<?xml version="1.0" encoding="utf-8"?>
<!-- Generator: Adobe Illustrator 22.0.1, SVG Export Plug-In . SVG Version: 6.00 Build 0)  -->
<svg version="1.1" id="Capa_1" xmlns="http://www.w3.org/2000/svg" xmlns:xlink="http://www.w3.org/1999/xlink" x="0px" y="0px"
	 viewBox="0 0 448 512" style="enable-background:new 0 0 448 512;" xml:space="preserve">
<g>
	<path d="M268.6,328.9h-89.3c-84.3,0-152.6,68.3-152.6,152.6c0,16.9,13.7,30.5,30.5,30.5h333.4c16.9,0,30.5-13.6,30.5-30.5
		C421.2,397.2,352.9,328.9,268.6,328.9z"/>
	<path d="M334.4,188.6c1.5,7.4,2.3,15,2.3,22.9c0,62.2-50.4,112.7-112.7,112.7s-112.7-50.5-112.7-112.7c0-7.8,0.8-15.5,2.3-22.9
		c-54.9-10.8-91.1-29.5-91.1-50.7c0-24.6,48.8-45.8,118.9-55.3v-0.3c0-46,37-83.3,82.6-83.3s82.6,37.3,82.6,83.3v0.3
		c70.1,9.5,118.9,30.7,118.9,55.3C425.5,159.1,389.3,177.8,334.4,188.6z"/>
</g>
</svg>
