<?xml version="1.0" encoding="utf-8"?>
<!-- Generator: Adobe Illustrator 24.3.0, SVG Export Plug-In . SVG Version: 6.00 Build 0)  -->
<svg version="1.1" id="Capa_1" xmlns="http://www.w3.org/2000/svg" xmlns:xlink="http://www.w3.org/1999/xlink" x="0px" y="0px"
	 viewBox="0 0 640 512" style="enable-background:new 0 0 640 512;" xml:space="preserve">
<g>
	<path d="M370.9,391.2h-3.6c-3.6,0.1-7.1,0.7-10.6,2c-3.1,1.1-6.2,2.8-9.2,4.9c-6.3,4.4-11.5,10.5-15.4,18.3v-22h-32.4v114.3h35.2
		v-69.4c1.2-2.1,2.7-3.9,4.5-5.6c2.8-2.6,6.3-4.8,10.5-6.4c2.6-1,5.2-1.8,8-2.5c4.7-1.1,9.8-1.6,15.1-1.6v-31.7
		C372.4,391.3,371.7,391.2,370.9,391.2z M457.8,394.3v19.1c-3.5-6.4-8.6-11.4-15.1-15.2c-6.5-3.8-13.9-5.6-22.1-5.6
		c-5.6,0-11,0.9-15.9,2.7c-1.5,0.5-3,1.2-4.4,1.9c-4.2,2-8,4.6-11.4,7.6c-1.7,1.5-3.3,3.2-4.8,4.9c-4.5,5.4-8.1,11.6-10.7,18.8
		c-1.2,3.4-2.2,6.9-2.8,10.6c-0.7,4-1.1,8.2-1.1,12.5c0,1.1,0,2.3,0.1,3.4c0.3,7.1,1.6,13.9,3.9,20.2c2.6,7.3,6.4,13.6,11.4,18.9
		c4.9,5.3,10.7,9.4,17.4,12.4c6.7,3,14,4.4,21.9,4.4c8.1,0,14.9-1.6,20.4-4.9c5.5-3.2,10-8,13.5-14.2v16.9h35V394.3H457.8z
		 M458,465.7c-1.9,3.2-4.1,6-6.5,8.2s-5.2,4-8.3,5.3c-3.1,1.3-6.4,1.9-9.9,1.9c-5.3,0-10-1.3-14.2-3.9c-4.2-2.6-7.5-6-9.8-10.3
		c-2.4-4.3-3.5-9.2-3.5-14.8c0-3.8,0.6-7.5,1.9-11.1s3-6.8,5.4-9.6c2.3-2.8,5.1-5,8.4-6.6c3.2-1.6,6.7-2.4,10.4-2.4
		c3.7,0,7.2,0.8,10.6,2.4c3.4,1.6,6.4,3.9,9.1,6.8c2.7,2.9,4.9,6.3,6.5,10.3V465.7z M512,214.9V64c17.7,0,32-14.3,32-32
		S529.7,0,512,0H320c-17.7,0-32,14.3-32,32s14.3,32,32,32v150.9l-66.8,108.5c7.3,2,14.3,4.9,20.9,8.5c13.6,7.5,24.8,17.8,33.3,30.8
		H332c3.8,0,7.5,0.7,10.9,1.9c7.6-3.1,15.5-4.8,23.7-5h4.3c3.3,0,6.6,0.4,9.6,1.1c4.3,1,8.1,2.9,11.5,5.5c9-3.5,18.5-5.3,28.5-5.3
		c8.9,0,17.3,1.4,25.3,4.1c3.7-1.5,7.7-2.3,12-2.3H493c8.7,0,16.5,3.5,22.2,9.1c13.4-7.2,29-10.9,46.3-10.9
		c17.8,0,33.7,3.8,47.3,11.4L512,214.9z M330.5,320l48.8-79.2c3.1-5.1,4.7-10.9,4.7-16.8V64h64v160c0,6,1.6,11.8,4.7,16.8l48.8,79.2
		H330.5z M616,422.3c-4.9-8.9-11.9-16.1-21-21.6c-9.2-5.5-20.3-8.2-33.4-8.2s-24.2,2.8-33.5,8.3c-1.2,0.7-2.3,1.4-3.4,2.2
		c-6.5,4.4-11.8,9.8-15.8,16.2c-0.7,1.1-1.4,2.3-2.1,3.5c-4.9,9-7.4,19-7.4,30c0,7.7,1.4,15.1,4.2,22.1c1.4,3.6,3.2,7,5.2,10.1
		c2,3,4.3,5.9,7,8.5c2.7,2.7,5.6,5.1,8.9,7.2c3.3,2.1,6.8,4,10.6,5.6c7.6,3.1,16.4,4.7,26.2,4.7c8.8,0,16.9-1.3,24.1-4
		c7.3-2.6,13.6-6.3,18.9-10.9c5.4-4.6,9.5-9.9,12.5-16l-30-8.4c-1.8,4.3-5,7.6-9.6,10.1c-4.6,2.5-9.6,3.7-14.9,3.7
		c-4.3,0-8.3-0.9-12.1-2.7c-3.8-1.8-6.9-4.4-9.4-7.8c-2.4-3.4-3.9-7.6-4.3-12.6h85.5c0.1-1.4,0.3-3.1,0.5-5.1c0.2-2,0.3-3.9,0.3-6
		C623.2,440.9,620.8,431.2,616,422.3z M536,440.8c0.6-4.6,2-8.7,4.2-12.1c2.2-3.4,5.1-6.1,8.7-8c3.6-1.9,7.7-2.8,12.2-2.8
		c4.4,0,8.4,0.9,12.1,2.8c3.7,1.9,6.6,4.5,8.8,8c2.2,3.4,3.6,7.5,4.2,12.1H536z M224,0H32C14.3,0,0,14.3,0,32s14.3,32,32,32v288
		c0,5.7,0.5,11.3,1.5,16.7c0.1,0,0.1-0.1,0.2-0.1c10.6-5.2,22.1-7.8,34.2-7.8c8.9,0,17.3,1.4,25.3,4.1c3.7-1.5,7.7-2.3,12-2.3h31.5
		c2.2-3,4.5-5.9,7-8.7c9.5-10.7,21.2-19.2,34.8-25.3c12.1-5.4,25.4-8.5,39.7-9.1l6-9.7V64c17.7,0,32-14.3,32-32S241.7,0,224,0z
		 M160,160H96V64h64V160z"/>
	<g>
		<g>
			<path d="M105.1,394.3v19.1c-3.5-6.4-8.6-11.4-15.1-15.2c-6.5-3.8-13.9-5.6-22.1-5.6c-7.4,0-14.1,1.5-20.4,4.5
				c-1.1,0.5-2.2,1.1-3.3,1.8c-4.9,2.8-9.2,6.4-12.9,10.8c-4.6,5.4-8.1,11.6-10.7,18.8c-2.6,7.2-3.9,14.9-3.9,23.1
				c0,8.4,1.3,16.3,4,23.6c2.6,7.3,6.4,13.6,11.3,18.9c4.9,5.3,10.7,9.4,17.4,12.4c6.7,3,14,4.4,21.9,4.4c8.1,0,14.9-1.6,20.4-4.9
				c5.5-3.2,10-8,13.6-14.2v16.9h35V394.3H105.1z M105.3,465.7c-1.9,3.2-4.1,6-6.5,8.2c-2.4,2.2-5.2,4-8.3,5.3
				c-3.1,1.3-6.4,1.9-9.9,1.9c-5.3,0-10-1.3-14.2-3.9c-4.2-2.6-7.5-6-9.8-10.3c-2.4-4.3-3.5-9.2-3.5-14.8c0-3.8,0.6-7.5,1.9-11.1
				s3-6.8,5.4-9.6c0.2-0.3,0.4-0.5,0.7-0.8c0.1-0.1,0.2-0.3,0.3-0.4c0.5-0.5,1-1.1,1.6-1.5c0.3-0.2,0.5-0.5,0.8-0.7
				c0.1-0.1,0.1-0.1,0.2-0.2c0.2-0.1,0.3-0.2,0.5-0.4c0.2-0.1,0.3-0.3,0.5-0.4c0.3-0.2,0.6-0.4,0.9-0.6s0.6-0.4,0.9-0.6
				c0.3-0.2,0.6-0.4,1-0.6c0.3-0.2,0.7-0.4,1-0.5c3.2-1.6,6.7-2.4,10.3-2.4s7.2,0.8,10.6,2.4c3.4,1.6,6.4,3.9,9.2,6.8
				c2.7,2.9,4.9,6.3,6.5,10.3V465.7z"/>
		</g>
		<g>
			<path d="M293.9,423.6v17c-0.3,9.4-2.2,18.2-5.6,26.5c-1.3,3.1-2.8,6.1-4.5,8.9c-2.8,4.8-6.3,9.2-10.3,13.2
				c-1.8,1.8-3.6,3.5-5.6,5c-5.1,4.1-10.8,7.5-17.1,10.1c-4,1.6-8.1,2.9-12.4,3.8c-5.2,1.1-10.8,1.6-16.5,1.6
				c-11.9,0-22.5-2.2-31.8-6.6c-6.8-3.2-12.8-7.2-18-12.1c-2-1.8-3.9-3.8-5.7-5.9c-4-4.7-7.4-9.7-10.2-15c-1.8-3.4-3.3-6.9-4.6-10.5
				c-1.6-4.5-2.8-9.1-3.7-13.7c-0.9-5.1-1.4-10.4-1.4-15.7c0-10.3,1.8-20.2,5.4-29.7c1.2-3.1,2.5-6.1,4-9
				c2.9-5.5,6.3-10.7,10.4-15.4c0.3-0.4,0.6-0.7,1-1.1c6.6-7.4,14.6-13.2,24.1-17.5c1.5-0.7,2.9-1.3,4.5-1.8
				c8.3-3.1,17.4-4.6,27.4-4.6c4.3,0,8.5,0.3,12.5,0.9c8.5,1.2,16.2,3.8,23.2,7.6c6.6,3.6,12.3,8.2,17.1,13.7
				c2.7,3.1,5.1,6.5,7.2,10.2L268,395.3L254.5,406c-0.7-1.5-1.9-3.5-3.6-6c-1.7-2.5-3.9-5-6.6-7.6c-2.7-2.6-6-4.7-9.8-6.5
				c-3.8-1.8-8.2-2.6-13.2-2.6c-1.7,0-3.4,0.1-5,0.3c-4.2,0.5-8,1.8-11.4,3.8c-4.8,2.7-8.7,6.3-11.9,10.8c-3.2,4.5-5.6,9.5-7.2,15.1
				c-1.6,5.6-2.4,11.3-2.4,17.2c0,5.3,0.7,10.8,2.2,16.4c1.5,5.7,3.8,10.8,6.9,15.5c1.2,1.9,2.6,3.6,4.2,5.2c2.3,2.4,5,4.5,8,6.3
				c4.9,3,10.7,4.4,17.3,4.4c4.4,0,8.5-0.7,12.3-2c3.8-1.3,7.2-3.1,10.1-5.4c2.9-2.3,5.5-4.9,7.6-7.8c2.1-2.9,3.6-6,4.5-9.2h-30.8
				l-0.4-30.2H293.9z"/>
		</g>
		<g>
			<path d="M373,391.4v31.7c-5.4,0-10.4,0.5-15.1,1.6c-2.8,0.6-5.4,1.5-8,2.5c-4.2,1.7-7.7,3.8-10.5,6.4c-1.8,1.7-3.3,3.5-4.5,5.6
				v69.4h-35.2V394.3H332v22c4-7.8,9.1-13.9,15.4-18.3c3-2.1,6.1-3.7,9.2-4.9c3.5-1.2,7-1.9,10.6-2h3.6
				C371.7,391.2,372.4,391.3,373,391.4z"/>
		</g>
		<g>
			<path d="M457.8,394.3v19.1c-3.5-6.4-8.6-11.4-15.1-15.2c-6.5-3.8-13.9-5.6-22.1-5.6c-5.6,0-11,0.9-15.9,2.7
				c-1.5,0.5-3,1.2-4.4,1.9c-4.2,2-8,4.6-11.4,7.6c-1.7,1.5-3.3,3.2-4.8,4.9c-4.5,5.4-8.1,11.6-10.7,18.8c-1.2,3.4-2.2,6.9-2.8,10.6
				c-0.7,4-1.1,8.2-1.1,12.5c0,1.1,0,2.3,0.1,3.4c0.3,7.1,1.6,13.9,3.9,20.2c2.6,7.3,6.4,13.6,11.4,18.9c4.9,5.3,10.7,9.4,17.4,12.4
				c6.7,3,14,4.4,21.9,4.4c8.1,0,14.9-1.6,20.4-4.9c5.5-3.2,10-8,13.5-14.2v16.9h35V394.3H457.8z M458,465.7c-1.9,3.2-4.1,6-6.5,8.2
				s-5.2,4-8.3,5.3c-3.1,1.3-6.4,1.9-9.9,1.9c-5.3,0-10-1.3-14.2-3.9c-4.2-2.6-7.5-6-9.8-10.3c-2.4-4.3-3.5-9.2-3.5-14.8
				c0-3.8,0.6-7.5,1.9-11.1s3-6.8,5.4-9.6c2.3-2.8,5.1-5,8.4-6.6c3.2-1.6,6.7-2.4,10.4-2.4c3.7,0,7.2,0.8,10.6,2.4
				c3.4,1.6,6.4,3.9,9.1,6.8c2.7,2.9,4.9,6.3,6.5,10.3V465.7z"/>
		</g>
		<g>
			<path d="M616,422.3c-4.9-8.9-11.9-16.1-21-21.6c-9.2-5.5-20.3-8.2-33.4-8.2s-24.2,2.8-33.5,8.3c-1.2,0.7-2.3,1.4-3.4,2.2
				c-6.5,4.4-11.8,9.8-15.8,16.2c-0.7,1.1-1.4,2.3-2.1,3.5c-4.9,9-7.4,19-7.4,30c0,7.7,1.4,15.1,4.2,22.1c1.4,3.6,3.2,7,5.2,10.1
				c2,3,4.3,5.9,7,8.5c2.7,2.7,5.6,5.1,8.9,7.2c3.3,2.1,6.8,4,10.6,5.6c7.6,3.1,16.4,4.7,26.2,4.7c8.8,0,16.9-1.3,24.1-4
				c7.3-2.6,13.6-6.3,18.9-10.9c5.4-4.6,9.5-9.9,12.5-16l-30-8.4c-1.8,4.3-5,7.6-9.6,10.1c-4.6,2.5-9.6,3.7-14.9,3.7
				c-4.3,0-8.3-0.9-12.1-2.7c-3.8-1.8-6.9-4.4-9.4-7.8c-2.4-3.4-3.9-7.6-4.3-12.6h85.5c0.1-1.4,0.3-3.1,0.5-5.1c0.2-2,0.3-3.9,0.3-6
				C623.2,440.9,620.8,431.2,616,422.3z M536,440.8c0.6-4.6,2-8.7,4.2-12.1c2.2-3.4,5.1-6.1,8.7-8c3.6-1.9,7.7-2.8,12.2-2.8
				c4.4,0,8.4,0.9,12.1,2.8c3.7,1.9,6.6,4.5,8.8,8c2.2,3.4,3.6,7.5,4.2,12.1H536z"/>
		</g>
	</g>
</g>
</svg>
