<?xml version="1.0" encoding="utf-8"?>
<!-- Generator: Adobe Illustrator 24.3.0, SVG Export Plug-In . SVG Version: 6.00 Build 0)  -->
<svg version="1.1" id="Capa_1" xmlns="http://www.w3.org/2000/svg" xmlns:xlink="http://www.w3.org/1999/xlink" x="0px" y="0px"
	 viewBox="0 0 512 512" style="enable-background:new 0 0 512 512;" xml:space="preserve">
<style type="text/css">
	.st0{fill:#990033;}
	.st1{fill:#4D001A;}
</style>
<path class="st0" d="M489.6,320.8l-43.3-39.4c1.1-8.3,1.7-16.8,1.7-25.4s-0.6-17.1-1.7-25.4l43.3-39.4c6.8-6.3,9.6-16,6.3-24.6
	c-4.4-11.9-9.7-23.4-15.7-34.3l-4.7-8.1c-6.6-11-14-21.4-22.1-31.2c-6-7.2-15.7-9.6-24.5-6.8L373.2,104
	c-13.4-10.3-29.1-18.9-44-25.5l-12.5-57.1c-2-9.1-9-16.3-18.2-17.8C284.7,1.2,270.5,0,256,0s-28.7,1.2-42.5,3.5
	c-9.2,1.5-16.2,8.7-18.2,17.8l-12.5,57.1c-15.8,6.5-30.6,15.1-44,25.5L83.1,86.1c-8.8-2.8-18.6-0.3-24.5,6.8
	c-8.1,9.8-15.5,20.2-22.1,31.2l-4.7,8.1c-6.1,10.9-11.4,22.4-15.8,34.3c-3.2,8.7-0.5,18.3,6.3,24.6l43.3,39.4
	c-1.1,8.3-1.7,16.8-1.7,25.4c0,8.6,0.6,17.1,1.7,25.4l-43.3,39.4c-6.9,6.3-9.6,16-6.3,24.6c4.4,11.9,9.7,23.4,15.8,34.3l4.7,8.1
	c6.6,11,14,21.4,22.1,31.3c5.9,7.1,15.7,9.6,24.5,6.8l55.7-17.8c13.4,10.3,28.2,18.9,44,25.5l12.5,57.1c2,9,9,15.4,18.2,17.8
	c13.8,2.3,28,3.5,41.6,3.5c15.4,0,29.6-1.2,43.4-3.5c9.2-2.4,16.2-8.8,18.2-17.8l12.5-57.1c14.9-6.6,30.6-15.2,44-25.5l55.7,17.8
	c8.8,2.8,18.5,0.3,24.5-6.8c8.1-9.9,15.5-20.3,22.1-31.3l4.7-8.1c6-10.9,11.3-22.4,15.7-34.3C499.2,336.8,496.4,327.1,489.6,320.8z
	 M256,361.2c-58,0-105.1-47-105.1-106.2c0-56.9,47-105.1,105.1-105.1S361.1,198.1,361.1,255C361.1,314.2,314,361.2,256,361.2z"/>
<path class="st1" d="M336,255.1c0,45.1-35.8,80.9-80,80.9s-80-35.8-80-80.9c0-43.3,35.8-80,80-80S336,211.8,336,255.1z"/>
</svg>
