<?xml version="1.0" encoding="utf-8"?>
<!-- Generator: Adobe Illustrator 22.0.1, SVG Export Plug-In . SVG Version: 6.00 Build 0)  -->
<svg version="1.1" id="Capa_1" xmlns="http://www.w3.org/2000/svg" xmlns:xlink="http://www.w3.org/1999/xlink" x="0px" y="0px"
	 viewBox="0 0 512 512" style="enable-background:new 0 0 512 512;" xml:space="preserve">
<style type="text/css">
	.st0{fill:#990033;}
</style>
<path class="st0" d="M370.7,272.4V301c0,8-6.4,14.3-14.3,14.3h-28.7c-8,0-14.3-6.4-14.3-14.3v-28.7H198.7V301
	c0,8-6.4,14.3-14.3,14.3h-28.7c-8,0-14.3-6.4-14.3-14.3v-28.7H26.6v100.3c0,2.7,0.4,5.3,1.1,7.8c6.1-1.2,12.6-1.8,19.8-1.8
	c14,0,25.2,1.9,34.4,5.6c3.1,1.3,5.9,2.8,8.6,4.5c3.9-7.6,8.8-14.5,14.7-20.4c8.4-8.3,18.5-14.8,30.2-19.1c11.1-4.1,23.5-6.2,37-6.2
	c11.4,0,21.9,1.6,31.2,4.8c9.6,3.3,17.7,7.8,24.2,13.3c6.6,5.5,11.7,11.7,15.3,18.4c0.4,0.8,0.8,1.6,1.2,2.4
	c4.8-2.2,10.1-3.2,15.4-3.2c5.6,0,10.8,1.1,15.3,3.1c4.6-1.8,10.3-3.1,17.1-3.1c9.2,0,18,2.3,26.4,6.7c1.7,0.9,3.4,1.9,4.9,3
	c2.7-1.5,5.5-2.9,8.6-4.2c9.4-3.9,20.3-5.7,33.1-5.7c14,0,25.3,1.9,34.4,5.6c7.5,3.1,13.8,7.6,18.7,13.2
	c6.1-5.8,13.4-10.4,21.6-13.7c8.8-3.5,18.5-5.2,28.8-5.2c5.4,0,10.6,0.5,15.5,1.5c0.7-2.4,1-4.9,1-7.5V272.4H370.7z M477,134.9
	l-40.5-40.5c-5.3-5.3-12.6-8.4-20.2-8.4h-45.5V43c0-23.7-19.3-43-43-43H184.3c-23.7,0-43,19.3-43,43v43H95.8c-7.6,0-14.9,3-20.3,8.4
	L35,134.9c-5.4,5.4-8.4,12.7-8.4,20.3v88.4h114.7V215c0-8,6.4-14.3,14.3-14.3h28.7c8,0,14.3,6.4,14.3,14.3v28.7h114.7V215
	c0-8,6.4-14.3,14.3-14.3h28.7c8,0,14.3,6.4,14.3,14.3v28.7h114.7v-88.4C485.4,147.7,482.3,140.3,477,134.9z M327.7,86H184.3V43
	h143.4V86z"/>
<g>
	<path d="M228.4,447v24.7c0,3.3-0.3,5.9-1,7.9c-0.7,2-1.8,3.7-3.6,5.3c-0.2,0.2-0.5,0.4-0.7,0.6c-1.6,1.4-3.6,2.7-6,4
		c-7.8,4.2-15.3,7.3-22.5,9.2c-7.2,1.9-15.1,2.9-23.6,2.9c-9.9,0-19-1.5-27.1-4.6c-8.1-3-15.1-7.5-20.8-13.3c-3.5-3.6-6.5-7.6-9-12
		c-1.6-2.8-3-5.9-4.2-9.1c-3.1-8.3-4.6-17.5-4.6-27.7c0-8.8,1.1-16.9,3.4-24.3c0.3-1.1,0.7-2.2,1.1-3.2c0.7-2.1,1.6-4.1,2.5-6
		c0,0,0,0,0,0c0.3-0.7,0.6-1.3,1-2c0.1-0.1,0.1-0.3,0.2-0.4c0.3-0.6,0.7-1.2,1-1.9c0,0,0,0,0,0c0.4-0.7,0.8-1.3,1.2-2c0,0,0,0,0,0
		c0.4-0.6,0.8-1.2,1.2-1.8c0.1-0.1,0.2-0.2,0.2-0.3c0.4-0.6,0.8-1.2,1.3-1.7c0.5-0.6,0.9-1.2,1.4-1.8c0.4-0.5,0.9-1,1.4-1.5
		c0.1-0.2,0.3-0.4,0.5-0.5c0.4-0.5,0.8-0.9,1.3-1.3c5.8-5.8,12.9-10.3,21.2-13.3c8.3-3.1,17.8-4.6,28.3-4.6c8.7,0,16.4,1.1,23,3.5
		c6.7,2.3,12.1,5.2,16.3,8.8c4.2,3.5,7.3,7.3,9.4,11.2c0.4,0.7,0.8,1.5,1.1,2.2c0.2,0.4,0.3,0.7,0.5,1.1c0.2,0.5,0.3,0.9,0.5,1.3
		c0.1,0.2,0.1,0.4,0.2,0.6s0.1,0.4,0.2,0.6c0.1,0.4,0.2,0.8,0.3,1.2c0,0.2,0.1,0.4,0.1,0.6c0.2,0.8,0.3,1.5,0.3,2.3
		c0,0.2,0,0.5,0,0.7c0,3.3-1.2,6.1-3.7,8.4c-2.4,2.3-5.4,3.5-8.8,3.5c-1.9,0-3.7-0.4-5.4-1.3c-1.7-0.9-3.2-2.1-4.4-3.7
		c-1.9-3-3.6-5.5-5.1-7.6c-0.3-0.4-0.6-0.7-0.8-1.1c-0.2-0.2-0.3-0.4-0.5-0.6c-0.6-0.8-1.2-1.5-1.8-2.2c-2.2-2.6-5.2-4.8-9-6.5
		c-3.8-1.8-8.6-2.6-14.5-2.6c-6,0-11.4,1-16.2,3.1c-4.8,2.1-8.8,5.1-12.2,9.1c-0.2,0.3-0.5,0.5-0.7,0.8c-3,3.8-5.4,8.4-7.1,13.7
		c-1.8,5.8-2.7,12.1-2.7,19.1c0,15.1,3.5,26.8,10.4,34.9c7,8.2,16.6,12.2,29.1,12.2c6,0,11.7-0.8,17-2.4c5.3-1.6,10.7-3.8,16.1-6.8
		v-20.9h-20.2c-4.9,0-8.5-0.7-11-2.2c-2.5-1.5-3.7-4-3.7-7.5c0-2.9,1-5.3,3.1-7.1c2.1-1.9,4.9-2.8,8.5-2.8h29.6c3.6,0,6.7,0.3,9.2,1
		c1.2,0.3,2.3,0.8,3.2,1.4c1.1,0.7,2.1,1.7,2.9,2.9C227.6,439.2,228.4,442.5,228.4,447z"/>
	<path d="M91,482.4c-0.2-0.6-0.4-1.2-0.5-1.8c0,0,0,0,0,0c-1.1-4.2-1.7-8.3-1.7-12.3c0.1-4.8,0.1-9.2,0.1-13.1
		c0-3.9,0.1-8.7,0.1-14.3c0-8.9-1.3-16.1-3.7-21.5c-0.8-1.8-1.9-3.5-3.1-4.9c-2.4-2.9-5.7-5.2-9.7-6.9c-6-2.5-14.3-3.7-24.9-3.7
		c-9.5,0-17.3,1.3-23.7,3.9c-6.3,2.6-11,5.9-14,9.9c-3,4-4.5,8.1-4.5,12.3c0,2.7,1,4.9,2.9,6.6c2,1.7,4.3,2.6,7,2.6
		c3,0,4.9-0.5,5.8-1.6c0.9-1.1,2.5-3.3,4.7-6.7c2.2-3.4,4.8-5.9,7.9-7.6s7.7-2.5,13.8-2.5c7.1,0,11.8,1.5,14,4.4
		c2.3,3,3.5,7.6,3.8,13.9c-5,1.5-9.7,2.7-14,3.7c-4.3,1-9.5,2.2-15.5,3.4c-6,1.2-9.8,2-11.3,2.4c-7.3,1.6-13,4.7-17.2,9.3
		c-4.2,4.6-6.2,10.2-6.2,16.8c0,4.9,1.3,9.4,3.8,13.6c2.5,4.2,6.1,7.5,10.8,9.9c4.7,2.4,10.1,3.7,16.2,3.7c6.7,0,12.8-1.1,18.3-3.4
		c5.4-2.3,11-5.6,16.8-10.2c2.7,4.4,5.2,7.8,7.7,10.1c2.4,2.3,4.8,3.5,7.3,3.5c2.9,0,5.6-1,7.9-3c2.3-2,3.5-4.3,3.5-6.7
		C93.3,490.4,92.5,487.3,91,482.4z M65.4,456.7c0,8.3-1.1,14.3-3.3,18c-1.9,3.3-4.8,6-8.8,8c-4,2.1-8.4,3.1-13.1,3.1
		c-4.5,0-8.1-1.3-10.8-3.8c-2.8-2.5-4.1-5.6-4.1-9.3c0-3.5,1.2-6.3,3.5-8.2c2.3-2,4.8-3.3,7.4-4c2.6-0.7,7.2-1.7,13.9-3.2
		c6.7-1.4,11.8-2.8,15.3-4.1V456.7z"/>
</g>
<g>
	<path d="M314.1,417.8c0,2.9-1,5.4-3,7.3c0,0,0,0-0.1,0.1c-2,1.9-4.2,2.8-6.5,2.8c-0.9,0-2.9-0.5-6.2-1.6c0,0-0.1,0-0.1,0
		c-3.4-1.1-6.4-1.6-8.9-1.6c-3.5,0-6.4,0.9-8.6,2.8c-2.2,1.9-4,4.6-5.2,8.2c-1.2,3.6-2.1,8-2.6,13c-0.5,5-0.7,11.1-0.7,18.3V487
		c0,4.9-1.1,8.5-3.4,11c-2.3,2.4-5.2,3.7-8.7,3.7c-3.5,0-6.3-1.2-8.5-3.7c-1.2-1.3-2.1-3-2.6-5.1c-0.5-1.7-0.7-3.7-0.7-5.8v-66.9
		c0-10.8,3.9-16.2,11.7-16.2c4,0,6.9,1.3,8.6,3.8c1.8,2.5,2.7,6.3,2.9,11.2c2.9-4.9,5.8-8.6,8.8-11.2c3-2.5,7-3.8,12.1-3.8
		c4.3,0,8.5,0.9,12.5,2.7c0.7,0.3,1.5,0.7,2.2,1.1c4,2.1,6.4,4.9,7,8.2C314,416.5,314.1,417.1,314.1,417.8z"/>
	<path d="M408.8,482.4c-1.5-4.9-2.2-9.6-2.2-14.1c0-4.8,0.1-9.2,0.1-13.1c0-3.9,0-8.7,0-14.3c0-8.6-1.2-15.6-3.5-21
		c-0.1-0.2-0.1-0.3-0.2-0.5c-2.5-5.4-6.8-9.3-12.8-11.8c-6-2.5-14.3-3.7-24.9-3.7c-9.4,0-17.3,1.3-23.7,3.9c-1.2,0.5-2.4,1-3.5,1.6
		c-4.6,2.3-8.1,5-10.5,8.3c-0.4,0.5-0.7,1-1,1.5c-2.3,3.5-3.5,7.1-3.5,10.8v0.1c0,2.7,1,4.8,3,6.5c1.7,1.5,3.7,2.4,5.9,2.5
		c0.3,0,0.7,0.1,1.1,0.1c3,0,4.9-0.5,5.8-1.6c0.9-1.1,2.5-3.3,4.7-6.7c2.2-3.4,4.8-5.9,7.9-7.6s7.7-2.5,13.8-2.5
		c7.1,0,11.8,1.5,14,4.4c2.3,3,3.5,7.6,3.8,13.9c-5,1.5-9.7,2.7-14,3.7c-4.3,1-9.5,2.2-15.5,3.4c-6,1.2-9.8,2-11.3,2.4
		c-7.3,1.6-13,4.7-17.2,9.3c-4.2,4.6-6.3,10.2-6.3,16.8c0,4.9,1.3,9.4,3.8,13.6c2.5,4.2,6.1,7.5,10.8,9.9c4.7,2.4,10.1,3.7,16.2,3.7
		c6.7,0,12.8-1.1,18.3-3.4c5.4-2.3,11-5.6,16.9-10.2c2.7,4.4,5.3,7.8,7.6,10.1c2.4,2.3,4.8,3.5,7.3,3.5c2.9,0,5.6-1,7.9-3
		c0.7-0.6,1.2-1.2,1.7-1.8c1.2-1.5,1.8-3.2,1.8-4.9C411,490.4,410.3,487.3,408.8,482.4z M383.1,456.7c0,8.3-1.1,14.3-3.3,18
		c-1.9,3.3-4.8,6-8.8,8c-4,2.1-8.4,3.1-13.2,3.1c-4.5,0-8.1-1.3-10.8-3.8s-4.1-5.6-4.1-9.3c0-3.5,1.2-6.3,3.5-8.2
		c2.4-2,4.8-3.3,7.4-4c2.6-0.7,7.2-1.7,14-3.2c6.7-1.4,11.8-2.8,15.3-4.1V456.7z"/>
</g>
<g>
	<path d="M509.4,470.6c-1.5-1.3-3.5-2-6-2c-2.3,0-4.1,0.5-5.3,1.6c-3,2.8-5.4,5.1-7.3,6.7c-1.9,1.6-3.9,3.2-6.2,4.6
		c-2.2,1.4-4.5,2.5-6.9,3.2c-2.4,0.7-5,1-7.9,1c-4.3,0-8.2-1-11.7-3.2c-3.5-2.1-6.4-5.3-8.5-9.4c-2.1-4.2-3.2-9-3.3-14.4h47
		c6.3,0,11.1-0.9,14.6-2.7c3.5-1.8,5.2-5.7,5.2-11.7c0-6.5-1.7-12.9-5-19.2c-3.3-6.3-8.4-11.4-15.1-15.4c-6.7-4-14.8-5.9-24.1-5.9
		c-7.2,0-13.8,1.2-19.7,3.5c-5.9,2.3-10.9,5.6-15,10c-1.5,1.6-2.9,3.4-4.1,5.3c-2.1,3.1-3.8,6.6-5.1,10.4
		c-2.1,6.1-3.2,12.6-3.2,19.8c0,15.1,4.3,27,12.8,35.8c0.4,0.4,0.9,0.9,1.3,1.3c8.5,7.9,20,11.9,34.7,11.9c6.7,0,12.7-0.9,17.9-2.6
		s9.5-4,12.9-6.6c3.4-2.7,6-5.5,7.7-8.4c1.7-2.9,2.5-5.4,2.5-7.6C511.7,473.9,510.9,472,509.4,470.6z M453.3,426.7
		c3.8-4.1,8.8-6.2,14.7-6.2c6.3,0,11.3,2,15.2,6.1c3.8,4.1,6.1,10.2,6.6,18.4h-43.5C447.1,436.9,449.5,430.8,453.3,426.7z"/>
</g>
</svg>
