<?xml version="1.0" encoding="utf-8"?>
<!-- Generator: Adobe Illustrator 22.0.1, SVG Export Plug-In . SVG Version: 6.00 Build 0)  -->
<svg version="1.1"
	 id="svg4460" inkscape:version="0.92.4 (5da689c313, 2019-01-14)" sodipodi:docname="uEA4C-layer-add-o.svg" xmlns:cc="http://creativecommons.org/ns#" xmlns:dc="http://purl.org/dc/elements/1.1/" xmlns:inkscape="http://www.inkscape.org/namespaces/inkscape" xmlns:rdf="http://www.w3.org/1999/02/22-rdf-syntax-ns#" xmlns:sodipodi="http://sodipodi.sourceforge.net/DTD/sodipodi-0.dtd" xmlns:svg="http://www.w3.org/2000/svg"
	 xmlns="http://www.w3.org/2000/svg" xmlns:xlink="http://www.w3.org/1999/xlink" x="0px" y="0px" viewBox="0 0 100 100"
	 style="enable-background:new 0 0 100 100;" xml:space="preserve">
<sodipodi:namedview  bordercolor="#666666" borderopacity="1" gridtolerance="10" guidetolerance="10" id="namedview11" inkscape:current-layer="svg4460" inkscape:cx="97.811792" inkscape:cy="67.711735" inkscape:document-rotation="0" inkscape:pageopacity="0" inkscape:pageshadow="2" inkscape:window-height="1177" inkscape:window-maximized="1" inkscape:window-width="1920" inkscape:window-x="1272" inkscape:window-y="-8" inkscape:zoom="10.762165" objecttolerance="10" pagecolor="#ffffff" showgrid="false">
	</sodipodi:namedview>
<path id="path951" d="M80.5,0c-7.1,0-13.3,4.2-16,10.4H28.1c-1,0-2,0.5-2.7,1.2l-24.6,29c-1.9,2.3-0.3,5.8,2.7,5.8l93-0.1
	c3,0,4.6-3.5,2.7-5.8l-7.9-9.3c4.1-3.2,6.7-8.2,6.7-13.8C98,7.8,90.2,0,80.5,0z M77,5h7v9h9v7h-9v9h-7v-9h-9v-7h9V5z M29.8,17.4H63
	c0,0,0,0.1,0,0.1C63,27.2,70.8,35,80.5,35c1.5,0,2.9-0.2,4.3-0.6l4.1,4.9l-77.9,0.1L29.8,17.4z M89.9,51.3l-9.2,0l8.2,9.7L11.1,61
	l8.2-9.7l-9.2,0L0.8,62.3c-1.9,2.3-0.3,5.8,2.7,5.8l93-0.1c3,0,4.6-3.5,2.7-5.8L89.9,51.3z M89.9,72.9l-9.2,0l8.2,9.7l-77.9,0.1
	l8.2-9.7l-9.2,0L0.8,83.9c-1.9,2.3-0.3,5.8,2.7,5.8l93-0.1c3,0,4.6-3.5,2.7-5.8L89.9,72.9z"/>
</svg>
