<?xml version="1.0" encoding="utf-8"?>
<!-- Generator: Adobe Illustrator 22.0.1, SVG Export Plug-In . SVG Version: 6.00 Build 0)  -->
<svg version="1.1"
	 id="svg4460" inkscape:version="0.92.4 (5da689c313, 2019-01-14)" sodipodi:docname="uEB2D-layer-edit.svg" xmlns:cc="http://creativecommons.org/ns#" xmlns:dc="http://purl.org/dc/elements/1.1/" xmlns:inkscape="http://www.inkscape.org/namespaces/inkscape" xmlns:rdf="http://www.w3.org/1999/02/22-rdf-syntax-ns#" xmlns:sodipodi="http://sodipodi.sourceforge.net/DTD/sodipodi-0.dtd" xmlns:svg="http://www.w3.org/2000/svg"
	 xmlns="http://www.w3.org/2000/svg" xmlns:xlink="http://www.w3.org/1999/xlink" x="0px" y="0px" viewBox="0 0 100 100"
	 style="enable-background:new 0 0 100 100;" xml:space="preserve">
<sodipodi:namedview  bordercolor="#666666" borderopacity="1" gridtolerance="10" guidetolerance="10" id="namedview11" inkscape:current-layer="svg4460" inkscape:cx="36.598457" inkscape:cy="19.23203" inkscape:document-rotation="0" inkscape:pageopacity="0" inkscape:pageshadow="2" inkscape:window-height="1177" inkscape:window-maximized="1" inkscape:window-width="1920" inkscape:window-x="1272" inkscape:window-y="-8" inkscape:zoom="6.9532167" objecttolerance="10" pagecolor="#ffffff" showgrid="false">
	</sodipodi:namedview>
<path id="path951" inkscape:connector-curvature="0" sodipodi:nodetypes="cccccccccccccccccccccccccc" d="M28.1,33.2
	c-1,0-2,0.5-2.7,1.2l-24.6,29c-1.9,2.3-0.3,5.8,2.7,5.8l93-0.1c3,0,4.6-3.5,2.7-5.8L78.9,39.4l-4.7,5.2l14.8,17.4l-77.9,0.1l18.7-22
	h16c0.4-1.3,0.8-2.5,1-3.8c0.7-1.1,1.4-2.2,2.2-3.2H28.1z M89.9,74.1l-9.2,0l8.2,9.7l-77.9,0.1l8.2-9.7l-9.2,0L0.8,85.1
	c-1.9,2.3-0.3,5.8,2.7,5.8l93-0.1c3,0,4.6-3.5,2.7-5.8L89.9,74.1z"/>
<path id="rect812" inkscape:connector-curvature="0" d="M90.4,0.9c-1.2-1.2-3-1.2-4.2,0L51.3,35.7c-0.3,0.3-0.5,0.6-0.7,1l-4.8,16.6
	c-0.2,0.7,0.1,1,0.9,0.8l16.5-4.7c0.4-0.1,0.7-0.4,1-0.7l34.8-34.8c1.2-1.2,1.2-3,0-4.2L90.4,0.9z M82.8,12.7l4.6,4.6L62.2,42.3
	l-4.6-4.6L82.8,12.7z"/>
</svg>
