<?xml version="1.0" encoding="utf-8"?>
<!-- Generator: Adobe Illustrator 22.0.1, SVG Export Plug-In . SVG Version: 6.00 Build 0)  -->
<svg version="1.1" id="Capa_1" xmlns="http://www.w3.org/2000/svg" xmlns:xlink="http://www.w3.org/1999/xlink" x="0px" y="0px"
	 viewBox="0 0 512 512" style="enable-background:new 0 0 512 512;" xml:space="preserve">
<style type="text/css">
	.st0{fill:#CC9900;}
	.st1{fill:#FFFFFF;}
</style>
<path class="st0" d="M512,97.8v211.5c0,15.7-12.8,28.5-28.5,28.5h-43.7l-55.7-56.1l-55.9,56.1H28.5C12.8,337.8,0,325.1,0,309.3V97.8
	c0-15.7,12.8-28.5,28.5-28.5h455C499.2,69.3,512,82.1,512,97.8z"/>
<path id="path951" class="st0" d="M510,496.9l-23.8-27.6h-23.5l21,24.8H284.6l21-24.8H282l-23.8,27.9c-3.3,3.8-2.8,9.5,1,12.5
	c1.8,1.5,3.8,2.3,5.9,2.3l238-0.3c4.9,0,9-4.1,9-9C512.1,500.7,511.3,498.7,510,496.9z M510,441.1l-63-74.2c-1.8-2-4.1-3.1-6.9-3.1
	h-18.7v17.9h14.3l47.6,56.3L284,438.3l47.9-56.3h14.3v-17.9l-18.2,0.3c-2.6,0-5.1,1.3-6.9,3.1l-62.9,74.2c-3.3,3.8-2.8,9.5,1,12.5
	c1.5,1.3,3.6,2,5.9,2l238-0.3c4.9,0,9-4.1,9-9C512.1,445,511.3,442.9,510,441.1z M439.8,337.8H328.2l-9.1,9.1h42.7v53h44.3v-53h42.7
	L439.8,337.8z"/>
<g>
	<path class="st1" d="M107,208.5c0,3.4-0.8,7.1-2.5,11.1c-1.7,4-4.3,7.9-7.9,11.7c-3.6,3.8-8.2,6.9-13.8,9.3
		c-5.6,2.4-12.2,3.6-19.6,3.6c-5.7,0-10.8-0.5-15.5-1.6c-4.6-1.1-8.9-2.7-12.6-5c-3.8-2.3-7.3-5.3-10.4-9c-2.8-3.4-5.2-7.1-7.3-11.3
		c-2-4.2-3.5-8.6-4.5-13.4c-1-4.7-1.5-9.8-1.5-15.1c0-8.6,1.3-16.4,3.8-23.2c2.5-6.8,6.1-12.7,10.8-17.5c4.7-4.9,10.2-8.6,16.5-11.1
		c6.3-2.5,13-3.8,20.1-3.8c8.7,0,16.4,1.7,23.2,5.2c6.8,3.5,12,7.8,15.6,12.9c3.6,5.1,5.4,9.9,5.4,14.5c0,2.5-0.9,4.7-2.6,6.6
		s-3.9,2.9-6.4,2.9c-2.8,0-4.9-0.7-6.3-2s-2.9-3.6-4.7-6.8c-2.8-5.3-6.2-9.3-10-11.9c-3.8-2.6-8.6-4-14.2-4
		c-8.9,0-16.1,3.4-21.4,10.2c-5.3,6.8-7.9,16.4-7.9,28.9c0,8.3,1.2,15.3,3.5,20.8c2.3,5.5,5.7,9.7,10,12.4c4.3,2.7,9.3,4.1,15.1,4.1
		c6.2,0,11.5-1.5,15.9-4.7c4.3-3.1,7.6-7.7,9.8-13.7c0.9-2.8,2.1-5.1,3.4-6.9c1.4-1.8,3.6-2.7,6.6-2.7c2.6,0,4.8,0.9,6.7,2.7
		C106.1,203.6,107,205.8,107,208.5z"/>
	<path class="st1" d="M171.5,233c-4.8,3.8-9.5,6.6-14,8.5c-4.5,1.9-9.6,2.8-15.2,2.8c-5.1,0-9.6-1-13.5-3s-6.9-4.8-9-8.2
		c-2.1-3.5-3.1-7.2-3.1-11.3c0-5.5,1.7-10.1,5.2-14c3.5-3.9,8.2-6.4,14.3-7.8c1.3-0.3,4.4-1,9.4-2c5-1,9.3-2,12.9-2.8
		c3.6-0.9,7.5-1.9,11.7-3.1c-0.2-5.3-1.3-9.1-3.2-11.6c-1.9-2.5-5.8-3.7-11.7-3.7c-5.1,0-8.9,0.7-11.5,2.1c-2.6,1.4-4.8,3.5-6.6,6.4
		c-1.8,2.8-3.1,4.7-3.9,5.6c-0.8,0.9-2.4,1.4-4.9,1.4c-2.2,0-4.2-0.7-5.8-2.2c-1.6-1.4-2.5-3.3-2.5-5.5c0-3.5,1.2-6.9,3.7-10.3
		c2.5-3.3,6.4-6.1,11.6-8.2c5.3-2.1,11.8-3.2,19.7-3.2c8.8,0,15.7,1,20.7,3.1c5,2.1,8.6,5.4,10.7,9.9c2.1,4.5,3.1,10.4,3.1,17.9
		c0,4.7,0,8.7,0,11.9c0,3.3-0.1,6.9-0.1,10.9c0,3.8,0.6,7.7,1.9,11.8c1.2,4.1,1.9,6.7,1.9,7.9c0,2.1-1,3.9-2.9,5.6
		c-1.9,1.7-4.1,2.5-6.6,2.5c-2.1,0-4.1-1-6.1-2.9C175.8,239.4,173.7,236.6,171.5,233z M170.2,204c-2.9,1.1-7.2,2.2-12.8,3.4
		c-5.6,1.2-9.5,2.1-11.6,2.6c-2.1,0.6-4.2,1.7-6.2,3.3c-2,1.6-2.9,3.9-2.9,6.8c0,3,1.1,5.6,3.4,7.7c2.3,2.1,5.3,3.2,9,3.2
		c4,0,7.6-0.9,10.9-2.6c3.3-1.7,5.8-4,7.4-6.7c1.8-3,2.7-8,2.7-14.9V204z"/>
	<path class="st1" d="M226.6,215.4v16.7c0,4.1-1,7.1-2.9,9.1s-4.3,3-7.3,3c-2.9,0-5.2-1-7.1-3.1c-1.9-2.1-2.8-5.1-2.8-9.1v-55.7
		c0-9,3.2-13.5,9.7-13.5c3.3,0,5.7,1.1,7.2,3.1c1.5,2.1,2.3,5.2,2.4,9.3c2.4-4.1,4.8-7.2,7.4-9.3c2.5-2.1,5.9-3.1,10.1-3.1
		c4.2,0,8.3,1.1,12.2,3.1c4,2.1,5.9,4.9,5.9,8.3c0,2.4-0.8,4.5-2.5,6c-1.7,1.6-3.5,2.4-5.5,2.4c-0.7,0-2.5-0.5-5.3-1.4
		c-2.8-0.9-5.3-1.4-7.4-1.4c-2.9,0-5.3,0.8-7.2,2.3c-1.9,1.5-3.3,3.8-4.3,6.8c-1,3-1.7,6.6-2.1,10.8
		C226.8,204.3,226.6,209.4,226.6,215.4z"/>
	<path class="st1" d="M343.2,177.6v58.1c0,6.6-0.7,12.4-2.1,17.1c-1.4,4.8-3.7,8.7-6.8,11.9c-3.1,3.1-7.2,5.4-12.3,7
		c-5.1,1.5-11.3,2.3-18.9,2.3c-6.9,0-13-1-18.5-2.9c-5.4-1.9-9.6-4.4-12.5-7.5c-2.9-3.1-4.4-6.2-4.4-9.4c0-2.4,0.8-4.4,2.5-6
		c1.7-1.5,3.7-2.3,6-2.3c2.9,0,5.5,1.3,7.7,3.9c1.1,1.3,2.2,2.6,3.3,4c1.1,1.3,2.4,2.5,3.8,3.4c1.4,1,3.1,1.7,5,2.1
		c2,0.5,4.2,0.7,6.7,0.7c5.2,0,9.2-0.7,12-2.2c2.9-1.4,4.9-3.5,6-6c1.1-2.6,1.8-5.4,2-8.3c0.2-3,0.3-7.7,0.4-14.2
		c-3.1,4.3-6.6,7.6-10.7,9.8c-4,2.2-8.8,3.4-14.4,3.4c-6.7,0-12.5-1.7-17.5-5.1c-5-3.4-8.9-8.2-11.5-14.4c-2.7-6.2-4-13.3-4-21.3
		c0-6,0.8-11.4,2.5-16.3c1.6-4.8,4-8.9,7-12.2c3-3.3,6.5-5.8,10.5-7.5s8.3-2.5,13-2.5c5.7,0,10.6,1.1,14.7,3.3
		c4.1,2.2,8,5.6,11.6,10.2v-2.7c0-3.5,0.9-6.2,2.6-8.1c1.7-1.9,3.9-2.9,6.6-2.9c3.9,0,6.4,1.3,7.7,3.8
		C342.6,169.2,343.2,172.8,343.2,177.6z M285.3,202.9c0,8.1,1.8,14.2,5.3,18.4c3.5,4.2,8.1,6.2,13.7,6.2c3.3,0,6.5-0.9,9.4-2.7
		c3-1.8,5.4-4.5,7.2-8.1c1.9-3.6,2.8-7.9,2.8-13.1c0-8.2-1.8-14.5-5.4-19s-8.3-6.8-14.2-6.8c-5.7,0-10.3,2.2-13.7,6.5
		C287,188.7,285.3,194.9,285.3,202.9z"/>
	<path class="st1" d="M410.7,233c-4.8,3.8-9.5,6.6-14,8.5c-4.5,1.9-9.6,2.8-15.2,2.8c-5.1,0-9.6-1-13.5-3s-6.9-4.8-9-8.2
		c-2.1-3.5-3.1-7.2-3.1-11.3c0-5.5,1.7-10.1,5.2-14c3.5-3.9,8.2-6.4,14.3-7.8c1.3-0.3,4.4-1,9.4-2c5-1,9.3-2,12.9-2.8
		c3.6-0.9,7.5-1.9,11.7-3.1c-0.2-5.3-1.3-9.1-3.2-11.6c-1.9-2.5-5.8-3.7-11.7-3.7c-5.1,0-8.9,0.7-11.5,2.1c-2.6,1.4-4.8,3.5-6.6,6.4
		c-1.8,2.8-3.1,4.7-3.9,5.6c-0.8,0.9-2.4,1.4-4.9,1.4c-2.2,0-4.2-0.7-5.8-2.2c-1.6-1.4-2.5-3.3-2.5-5.5c0-3.5,1.2-6.9,3.7-10.3
		c2.5-3.3,6.4-6.1,11.6-8.2c5.3-2.1,11.8-3.2,19.7-3.2c8.8,0,15.7,1,20.7,3.1c5,2.1,8.6,5.4,10.7,9.9c2.1,4.5,3.1,10.4,3.1,17.9
		c0,4.7,0,8.7,0,11.9c0,3.3-0.1,6.9-0.1,10.9c0,3.8,0.6,7.7,1.9,11.8c1.2,4.1,1.9,6.7,1.9,7.9c0,2.1-1,3.9-2.9,5.6
		c-1.9,1.7-4.1,2.5-6.6,2.5c-2.1,0-4.1-1-6.1-2.9C415.1,239.4,412.9,236.6,410.7,233z M409.4,204c-2.9,1.1-7.2,2.2-12.8,3.4
		c-5.6,1.2-9.5,2.1-11.6,2.6c-2.1,0.6-4.2,1.7-6.2,3.3c-2,1.6-2.9,3.9-2.9,6.8c0,3,1.1,5.6,3.4,7.7c2.3,2.1,5.3,3.2,9,3.2
		c4,0,7.6-0.9,11-2.6c3.3-1.7,5.8-4,7.4-6.7c1.8-3,2.7-8,2.7-14.9V204z"/>
	<path class="st1" d="M465.8,215.4v16.7c0,4.1-1,7.1-2.9,9.1s-4.3,3-7.3,3c-2.9,0-5.3-1-7.1-3.1c-1.9-2.1-2.8-5.1-2.8-9.1v-55.7
		c0-9,3.2-13.5,9.7-13.5c3.3,0,5.7,1.1,7.2,3.1c1.5,2.1,2.3,5.2,2.4,9.3c2.4-4.1,4.8-7.2,7.4-9.3c2.5-2.1,5.9-3.1,10.1-3.1
		c4.2,0,8.3,1.1,12.2,3.1c4,2.1,5.9,4.9,5.9,8.3c0,2.4-0.8,4.5-2.5,6c-1.7,1.6-3.5,2.4-5.5,2.4c-0.7,0-2.5-0.5-5.3-1.4
		c-2.8-0.9-5.3-1.4-7.4-1.4c-2.9,0-5.3,0.8-7.2,2.3c-1.9,1.5-3.3,3.8-4.3,6.8c-1,3-1.7,6.6-2.1,10.8
		C466,204.3,465.8,209.4,465.8,215.4z"/>
</g>
</svg>
