<?xml version="1.0" encoding="utf-8"?>
<!-- Generator: Adobe Illustrator 22.0.1, SVG Export Plug-In . SVG Version: 6.00 Build 0)  -->
<svg version="1.1"
	 id="svg4460" inkscape:version="1.0 (4035a4fb49, 2020-05-01)" sodipodi:docname="uEA98-layer-upload.svg" xmlns:cc="http://creativecommons.org/ns#" xmlns:dc="http://purl.org/dc/elements/1.1/" xmlns:inkscape="http://www.inkscape.org/namespaces/inkscape" xmlns:rdf="http://www.w3.org/1999/02/22-rdf-syntax-ns#" xmlns:sodipodi="http://sodipodi.sourceforge.net/DTD/sodipodi-0.dtd" xmlns:svg="http://www.w3.org/2000/svg"
	 xmlns="http://www.w3.org/2000/svg" xmlns:xlink="http://www.w3.org/1999/xlink" x="0px" y="0px" viewBox="0 0 100 100"
	 style="enable-background:new 0 0 100 100;" xml:space="preserve">
<sodipodi:namedview  bordercolor="#666666" borderopacity="1" gridtolerance="10" guidetolerance="10" id="namedview11" inkscape:current-layer="svg4460" inkscape:cx="15.277046" inkscape:cy="56.779614" inkscape:document-rotation="0" inkscape:pageopacity="0" inkscape:pageshadow="2" inkscape:window-height="1017" inkscape:window-maximized="1" inkscape:window-width="1920" inkscape:window-x="-8" inkscape:window-y="-8" inkscape:zoom="4.9166667" objecttolerance="10" pagecolor="#ffffff" showgrid="false">
	</sodipodi:namedview>
<g id="g879" transform="matrix(0,-0.61438032,0.61438032,0,-192.38003,63.295285)">
</g>
<path id="path951" d="M50,5L24.6,30.5h16.7v20.7h17.3V30.5h16.7L50,5z M28.1,37.3c-1,0-2,0.5-2.7,1.2l-24.6,29
	c-1.3,1.5-1.1,3.7,0.4,4.9c0.6,0.5,1.4,0.8,2.3,0.8l93-0.1c1.9,0,3.5-1.6,3.5-3.5c0-0.8-0.3-1.6-0.8-2.3l-24.6-29
	c-0.7-0.8-1.6-1.2-2.7-1.2h-7.3c0,2.3,0,4.7,0,7h5.6l18.6,22l-77.9,0.1l18.7-22h5.6c0-2.3,0-4.7,0-7L28.1,37.3z M89.9,78.3l-9.2,0
	l8.2,9.7L11.1,88l8.2-9.7l-9.2,0L0.8,89.2c-1.3,1.5-1.1,3.7,0.4,4.9C1.9,94.7,2.7,95,3.5,95l93-0.1c1.9,0,3.5-1.6,3.5-3.5
	c0-0.8-0.3-1.6-0.8-2.3L89.9,78.3z"/>
</svg>
