<?xml version="1.0" encoding="utf-8"?>
<!-- Generator: Adobe Illustrator 22.0.1, SVG Export Plug-In . SVG Version: 6.00 Build 0)  -->
<svg version="1.1" id="Capa_1" xmlns="http://www.w3.org/2000/svg" xmlns:xlink="http://www.w3.org/1999/xlink" x="0px" y="0px"
	 viewBox="0 0 640 512" style="enable-background:new 0 0 640 512;" xml:space="preserve">
<style type="text/css">
	.st0{fill:#990033;}
</style>
<path class="st0" d="M185.7,120.3c56.8-44.5,139-40.6,190.4,10.8c44,44,54.8,108.5,30.6,162.4l31.9,24.9l95.9-95.9
	c31.5-31.5,31.5-83.4,0-114c-27.8-27.9-71.8-32.4-103.8-8.6l-1.6,1.1c-14.4,10.3-34.4,6.1-44.6-7.4c-10.3-14.4-7-34.4,7.4-44.6
	l1.6-1.1C451,6.7,529.8,13.3,579.8,63.2c56.5,56.5,56.5,148.1,0,204.5l-90.5,90.5l141.5,110.9c10.4,8.2,12.3,23.3,4.1,33.7
	c-8.2,10.4-23.3,12.3-33.7,4.1l-592-464C-1.2,34.7-3.1,19.6,5.1,9.2C13.3-1.2,28.4-3.1,38.8,5.1L185.7,120.3z M238.1,161.1
	l115.3,90.6c5.9-26.2-1.7-54.5-21.7-74.5C306.6,152.1,269.1,147,238.1,161.1L238.1,161.1z M263,380c-29.9-29.9-44.3-70.2-42.1-110
	l185.7,146.4C357.4,431,301.9,418.9,263,380L263,380z M116.6,187.9l50.6,39.9l-61.7,61.7c-31.5,30.6-31.5,82.5,0,114
	c27.8,27.9,71.8,31.5,103.8,8.6l1.6-2c14.4-9.4,34.4-6.1,44.6,8.3c10.3,14.4,7,34.4-7.4,44.7l-1.6,1.1
	c-58.4,41.1-136.3,34.5-186.3-15.4c-56.5-56.5-56.5-148.1,0-204.5L116.6,187.9z"/>
</svg>
