<?xml version="1.0" encoding="utf-8"?>
<!-- Generator: Adobe Illustrator 22.0.1, SVG Export Plug-In . SVG Version: 6.00 Build 0)  -->
<svg version="1.1" id="Capa_1" xmlns="http://www.w3.org/2000/svg" xmlns:xlink="http://www.w3.org/1999/xlink" x="0px" y="0px"
	 viewBox="0 0 512 512" style="enable-background:new 0 0 512 512;" xml:space="preserve">
<style type="text/css">
	.st0{fill:#CC9900;}
	.st1{fill:#669900;}
</style>
<g>
	<path class="st0" d="M274.5,37.2v81h-90.9c-35,0-63.5,28.5-63.5,63.5v92.7H37.2C16.7,274.5,0,257.8,0,237.2v-200
		C0,16.7,16.7,0,37.2,0h200C257.8,0,274.5,16.7,274.5,37.2z"/>
	<g>
		<path class="st0" d="M420.8,181.7v72.7c-8.3-11.2-21.6-18.4-36.6-18.4c-25.1,0-45.6,20.5-45.6,45.6v56.5H282
			c-25.1,0-45.6,20.5-45.6,45.6c0,14.2,6.5,26.8,16.7,35.2h-69.5c-20.6,0-37.2-16.7-37.2-37.2v-200c0-20.6,16.7-37.2,37.2-37.2h200
			C404.1,144.5,420.8,161.2,420.8,181.7z"/>
		<path class="st0" d="M409.8,358.1h11v23.6c0,20.6-16.7,37.2-37.2,37.2h-25v-9.6H282c-14.1,0-25.6-11.5-25.6-25.6
			c0-14.1,11.5-25.6,25.6-25.6h76.5v-76.5c0-14.1,11.5-25.6,25.6-25.6c14.1,0,25.6,11.5,25.6,25.6V358.1z"/>
	</g>
</g>
<g>
	<g>
		<path class="st1" d="M511.9,383.7c0,14.1-11.5,25.6-25.6,25.6h-76.5v76.5c0,14.1-11.5,25.6-25.6,25.6c-14.1,0-25.6-11.5-25.6-25.6
			v-76.5H282c-14.1,0-25.6-11.5-25.6-25.6c0-14.1,11.5-25.6,25.6-25.6h76.5v-76.5c0-14.1,11.5-25.6,25.6-25.6
			c14.1,0,25.6,11.5,25.6,25.6v76.5h76.5C500.4,358.1,511.9,369.6,511.9,383.7z"/>
	</g>
</g>
</svg>
