<?xml version="1.0" encoding="utf-8"?>
<!-- Generator: Adobe Illustrator 22.0.1, SVG Export Plug-In . SVG Version: 6.00 Build 0)  -->
<svg version="1.1" id="Capa_1" xmlns="http://www.w3.org/2000/svg" xmlns:xlink="http://www.w3.org/1999/xlink" x="0px" y="0px"
	 viewBox="0 0 448 512" style="enable-background:new 0 0 448 512;" xml:space="preserve">
<style type="text/css">
	.st0{fill:#FFFFFF;}
</style>
<g>
	<path d="M398.6,242.7l-3.5-4.1l3,3.7L224,242.5L398.6,242.7z M15.8,273.6c-8.8,0-14.9-6.7-15.7-14.2c0.6,7.7,6.7,14.6,15.7,14.6
		l208.2-0.2L15.8,273.6z M68.2,220.3l-15.3,18.3l15.6-18.2C68.3,220.4,68.3,220.4,68.2,220.3z"/>
	<path d="M402.7,296h-41.2l36.7,43.4H49.8L86.5,296H45.3L3.7,345.3c-8.5,10.3-1.3,26,12.1,26l416.5-0.4c13.4,0,20.6-15.7,12.1-26
		L402.7,296z"/>
	<path d="M402.7,392.8h-41.2l36.7,43.4l-348.8,0.4l36.7-43.4H44.9L3.7,442c-8.5,10.3-1.3,26,12.1,26l416.5-0.4
		c13.4,0,20.6-15.7,12.1-26L402.7,392.8z"/>
	<path d="M432.2,273.6L224,273.8l208.2,0.2c9,0,15.1-6.9,15.7-14.6C447.1,266.9,441,273.6,432.2,273.6z M379.8,220.3
		c-0.1,0-0.2,0-0.3,0l15.6,18.2L379.8,220.3z M49.8,242.3l3-3.7l-3.5,4.1l174.6-0.2L49.8,242.3z"/>
	<path d="M447.9,256.9c-0.3-3-1.4-6.1-3.6-8.8l-68.1-80.2l-33-38.9l-9.1-10.7c-3.1-3.1-7.6-5.4-12.1-5.4H125.9
		c-4.5,0-9,2.2-12.1,5.4l-9.1,10.7l-33,38.9L3.7,248.1c-2.2,2.7-3.4,5.7-3.6,8.8c0,0.4,0,0.7,0,1c0,0.5,0,1,0.1,1.5
		c0.8,7.5,6.9,14.2,15.7,14.2l208.2,0.2l208.2-0.2c8.8,0,14.9-6.7,15.7-14.2c0.1-0.5,0.1-1,0.1-1.5C448,257.6,448,257.2,447.9,256.9
		z M224,242.5l-174.6,0.2l3.5-4.1l15.3-18.3c0.1,0,0.2,0,0.3,0l16.9-19.7l17.8-20.8l16.7-19.5l13.8-16.1h180.9l13.8,16.1l16.7,19.5
		l17.8,20.8l16.9,19.7c0.1,0,0.2,0,0.3,0l15.3,18.3l3.5,4.1L224,242.5z"/>
</g>
<g>
	<circle cx="348.7" cy="130.7" r="89.6"/>
	<path class="st0" d="M374.3,60.2c-22.9-9-48.7,2.3-57.7,25.2l-21.3,54.4c-1.5,3.9,0.4,8.3,4.3,9.9c3.9,1.5,8.3-0.4,9.9-4.3
		L330.8,91c5.9-15.1,22.9-22.5,38-16.6c15.1,5.9,22.5,22.9,16.6,38l-25.8,65.9c0,0,0,0,0,0c-3.4,8.7-13.3,13-22,9.6
		c-8.7-3.4-13-13.3-9.6-22l24.7-63c0.9-2.4,3.7-3.6,6.1-2.7c2.4,0.9,3.6,3.7,2.7,6.1l-20.2,51.6c-1.5,3.9,0.4,8.3,4.3,9.9
		c3.9,1.5,8.3-0.4,9.9-4.3l20.2-51.6c4-10.2-1-21.8-11.3-25.8l0,0c-10.2-4-21.8,1-25.8,11.3l-24.7,63c-6.5,16.6,1.7,35.3,18.2,41.8
		l0,0c16.6,6.5,35.3-1.7,41.8-18.2l25.8-65.9C408.5,95.1,397.2,69.2,374.3,60.2z"/>
</g>
</svg>
