<?xml version="1.0" encoding="utf-8"?>
<!-- Generator: Adobe Illustrator 24.3.0, SVG Export Plug-In . SVG Version: 6.00 Build 0)  -->
<svg version="1.1"
	 id="svg4460" xmlns:cc="http://creativecommons.org/ns#" xmlns:dc="http://purl.org/dc/elements/1.1/" xmlns:inkscape="http://www.inkscape.org/namespaces/inkscape" xmlns:rdf="http://www.w3.org/1999/02/22-rdf-syntax-ns#" xmlns:sodipodi="http://sodipodi.sourceforge.net/DTD/sodipodi-0.dtd" xmlns:svg="http://www.w3.org/2000/svg"
	 xmlns="http://www.w3.org/2000/svg" xmlns:xlink="http://www.w3.org/1999/xlink" x="0px" y="0px" viewBox="0 0 100 100"
	 style="enable-background:new 0 0 100 100;" xml:space="preserve">
<style type="text/css">
	.st0{fill:#336699;}
</style>
<sodipodi:namedview  bordercolor="#666666" borderopacity="1" gridtolerance="10" guidetolerance="10" id="namedview11" inkscape:current-layer="svg4460" inkscape:cx="-10.096162" inkscape:cy="71.704083" inkscape:document-rotation="0" inkscape:pageopacity="0" inkscape:pageshadow="2" inkscape:window-height="1017" inkscape:window-maximized="1" inkscape:window-width="1920" inkscape:window-x="-8" inkscape:window-y="-8" inkscape:zoom="2.8567114" objecttolerance="10" pagecolor="#ffffff" showgrid="false">
	</sodipodi:namedview>
<path id="path834" d="M35.8,0C16.1,0,0,16.1,0,35.7C0,43.2,2.4,50.2,6.4,56L29.6,96l0.1,0.1c0.9,1.2,1.8,2.1,2.9,2.8s2.3,1.1,3.6,1
	c2.6-0.3,4.1-2.1,5.6-4.1l0.1-0.1l16.5-28.1L66.1,81l0.1,0.1c0.7,1,1.5,1.7,2.4,2.3s2.1,1,3.2,0.9c2.3-0.2,3.6-1.8,4.8-3.4l0.1-0.1
	l20.1-34.2l0,0c0.5-0.9,0.8-1.8,1.1-2.6c1.3-3.3,2.1-6.9,2.1-10.7c0-15.7-12.9-28.6-28.6-28.6c-4.7,0-9.2,1.2-13.2,3.2
	C52,3,44.2,0,35.8,0z M35.8,20.5c8.5,0,15.2,6.6,15.2,15.1s-6.6,15.1-15.2,15.1s-15.2-6.6-15.2-15.1S27.2,20.5,35.8,20.5z M71.4,22
	c6.4,0,11.4,5,11.4,11.3s-5,11.3-11.4,11.3c-0.4,0-0.7,0-1-0.1c0.8-2.9,1.2-5.9,1.2-8.9c0-4.7-1-9.3-2.7-13.4
	C69.7,22.1,70.5,22,71.4,22z"/>
<path id="path854" class="st0" d="M68.9,48.9l0,0.1C68.9,49,68.9,49,68.9,48.9C68.9,48.9,68.9,48.9,68.9,48.9L68.9,48.9z"/>
</svg>
