<?xml version="1.0" encoding="utf-8"?>
<!-- Generator: Adobe Illustrator 26.5.0, SVG Export Plug-In . SVG Version: 6.00 Build 0)  -->
<svg version="1.1" id="Capa_1" xmlns="http://www.w3.org/2000/svg" xmlns:xlink="http://www.w3.org/1999/xlink" x="0px" y="0px"
	 viewBox="0 0 512 512" style="enable-background:new 0 0 512 512;" xml:space="preserve">
<path d="M467,428.2H188.3c3.3-2.2,6.7-4.4,10.1-6.8c43.9-29.8,85.5-63.6,123.7-100.2c47.7-45.9,90.1-96.6,126-150.6
	c9.2-13.8,5.4-32.4-8.4-41.6c-13.8-9.2-32.4-5.4-41.6,8.4C322.6,251,230.4,327,166.2,370.7c-27.7,18.9-52.8,33.6-72.9,44.5V44.5
	C93.3,22.8,75.7,5.2,54,5.2S14.7,22.8,14.7,44.5v423c0,21.7,17.6,39.3,39.3,39.3h413c21.7,0,39.3-17.6,39.3-39.3
	S488.7,428.2,467,428.2z"/>
<path d="M172.8,312c13.3,0,24.2-10.8,24.2-24.2s-10.8-24.2-24.2-24.2s-24.2,10.8-24.2,24.2S159.5,312,172.8,312z"/>
<path d="M197,110.5c13.3,0,24.2-10.8,24.2-24.2S210.3,62.1,197,62.1S172.8,73,172.8,86.3S183.7,110.5,197,110.5z"/>
<path d="M245.4,233.5c13.3,0,24.2-10.8,24.2-24.2s-10.8-24.2-24.2-24.2s-24.2,10.8-24.2,24.2S232,233.5,245.4,233.5z"/>
<path d="M308.5,123.5c13.3,0,24.2-10.8,24.2-24.2s-10.8-24.2-24.2-24.2S284.4,86,284.4,99.3S295.2,123.5,308.5,123.5z"/>
<path d="M292.4,395.5c0,13.3,10.8,24.2,24.2,24.2s24.2-10.8,24.2-24.2s-10.8-24.2-24.2-24.2S292.4,382.2,292.4,395.5z"/>
<path d="M412.2,367c0,13.3,10.8,24.2,24.2,24.2s24.2-10.8,24.2-24.2s-10.8-24.2-24.2-24.2S412.2,353.7,412.2,367z"/>
<path d="M436.4,223c0,13.3,10.8,24.2,24.2,24.2s24.2-10.8,24.2-24.2s-10.8-24.2-24.2-24.2S436.4,209.7,436.4,223z"/>
</svg>
