<?xml version="1.0" encoding="utf-8"?>
<!-- Generator: Adobe Illustrator 22.0.1, SVG Export Plug-In . SVG Version: 6.00 Build 0)  -->
<svg version="1.1" id="Capa_1" xmlns="http://www.w3.org/2000/svg" xmlns:xlink="http://www.w3.org/1999/xlink" x="0px" y="0px"
	 viewBox="0 0 512 512" style="enable-background:new 0 0 512 512;" xml:space="preserve">
<style type="text/css">
	.st0{fill:#336600;}
	.st1{fill:#FFFFFF;}
</style>
<g>
	<path class="st0" d="M418.3,337.8h-85.5c10.5-11.8,25.8-19.2,42.8-19.2C392.5,318.6,407.8,326.1,418.3,337.8z"/>
	<path class="st0" d="M512,97.8v211.5c0,15.7-12.8,28.5-28.5,28.5h-22.6c-13.1-28.8-40.6-50.2-72.8-54.3
		c-42.9-5.4-81,18.4-97.1,54.3H28.5C12.8,337.8,0,325.1,0,309.3V97.8c0-15.7,12.8-28.5,28.5-28.5h455C499.2,69.3,512,82.1,512,97.8z
		"/>
</g>
<g>
	<path class="st1" d="M48.7,214.9h-19v29c0,4.1-1,7.3-2.9,9.4c-2,2.1-4.4,3.2-7.4,3.2c-3.1,0-5.6-1.1-7.5-3.2
		C10,251.2,9,248.1,9,244v-78.9c0-4.6,1-7.8,3.1-9.8c2.1-2,5.4-2.9,10-2.9h26.6c7.9,0,13.9,0.6,18.1,1.8c4.2,1.2,7.8,3.1,10.9,5.8
		c3,2.7,5.4,6,6.9,9.9c1.6,3.9,2.4,8.3,2.4,13.2c0,10.4-3.2,18.3-9.6,23.7C71,212.2,61.4,214.9,48.7,214.9z M43.7,168h-14v31.3h14
		c4.9,0,9-0.5,12.2-1.5c3.3-1,5.8-2.7,7.5-5c1.7-2.3,2.6-5.4,2.6-9.1c0-4.5-1.3-8.2-4-11C59.1,169.5,52.9,168,43.7,168z"/>
	<path class="st1" d="M145.5,245.7c-4.6,3.6-9.1,6.3-13.4,8.1c-4.3,1.8-9.1,2.7-14.5,2.7c-4.9,0-9.2-1-12.9-2.9
		c-3.7-1.9-6.5-4.5-8.5-7.9c-2-3.3-3-6.9-3-10.7c0-5.2,1.7-9.7,5-13.3c3.3-3.7,7.8-6.1,13.6-7.4c1.2-0.3,4.2-0.9,9-1.9
		c4.8-1,8.9-1.9,12.3-2.7c3.4-0.8,7.1-1.8,11.1-3c-0.2-5-1.2-8.7-3-11.1c-1.8-2.3-5.5-3.5-11.1-3.5c-4.8,0-8.5,0.7-10.9,2
		c-2.4,1.3-4.5,3.4-6.3,6.1c-1.7,2.7-3,4.5-3.7,5.3c-0.7,0.9-2.3,1.3-4.6,1.3c-2.1,0-4-0.7-5.5-2.1c-1.6-1.4-2.3-3.1-2.3-5.3
		c0-3.4,1.2-6.6,3.6-9.8c2.4-3.2,6.1-5.8,11.1-7.8c5-2,11.3-3.1,18.8-3.1c8.4,0,15,1,19.8,3c4.8,2,8.2,5.1,10.2,9.4c2,4.3,3,10,3,17
		c0,4.5,0,8.3,0,11.4c0,3.1-0.1,6.6-0.1,10.4c0,3.6,0.6,7.3,1.8,11.2c1.2,3.9,1.8,6.4,1.8,7.5c0,2-0.9,3.7-2.8,5.3
		c-1.8,1.6-3.9,2.4-6.2,2.4c-2,0-3.9-0.9-5.8-2.8C149.6,251.9,147.6,249.2,145.5,245.7z M144.2,218.1c-2.8,1-6.9,2.1-12.2,3.2
		c-5.3,1.1-9,2-11.1,2.5c-2,0.5-4,1.6-5.9,3.1c-1.9,1.6-2.8,3.7-2.8,6.5c0,2.9,1.1,5.3,3.3,7.4c2.2,2,5,3,8.6,3
		c3.8,0,7.2-0.8,10.4-2.5c3.2-1.7,5.5-3.8,7-6.4c1.7-2.9,2.6-7.6,2.6-14.2V218.1z"/>
	<path class="st1" d="M197.7,229v15.9c0,3.9-0.9,6.8-2.7,8.7c-1.8,1.9-4.1,2.9-6.9,2.9c-2.7,0-5-1-6.8-2.9c-1.8-2-2.7-4.8-2.7-8.7
		v-53c0-8.6,3.1-12.8,9.3-12.8c3.2,0,5.4,1,6.8,3c1.4,2,2.2,5,2.3,8.9c2.3-3.9,4.6-6.9,7-8.9c2.4-2,5.6-3,9.6-3c4,0,7.9,1,11.7,3
		c3.8,2,5.7,4.7,5.7,8c0,2.3-0.8,4.2-2.4,5.8c-1.6,1.5-3.3,2.3-5.2,2.3c-0.7,0-2.4-0.4-5.1-1.3c-2.7-0.9-5-1.3-7.1-1.3
		c-2.8,0-5.1,0.7-6.8,2.2c-1.8,1.5-3.1,3.6-4.1,6.5c-1,2.9-1.7,6.3-2,10.3C197.9,218.4,197.7,223.2,197.7,229z"/>
	<path class="st1" d="M305.8,232.9c0,2.4-0.7,4.9-2.1,7.6c-1.4,2.7-3.6,5.3-6.5,7.7c-2.9,2.4-6.6,4.4-11,5.9
		c-4.4,1.5-9.4,2.2-14.9,2.2c-11.8,0-21-3.4-27.6-10.3c-6.6-6.9-9.9-16.1-9.9-27.6c0-7.8,1.5-14.7,4.5-20.7c3-6,7.4-10.6,13.1-13.9
		c5.7-3.3,12.6-4.9,20.5-4.9c4.9,0,9.5,0.7,13.6,2.2c4.1,1.4,7.6,3.3,10.5,5.6c2.9,2.3,5,4.7,6.6,7.3c1.5,2.6,2.3,5,2.3,7.2
		c0,2.3-0.8,4.2-2.5,5.8c-1.7,1.6-3.8,2.4-6.2,2.4c-1.6,0-2.9-0.4-3.9-1.2c-1-0.8-2.2-2.1-3.5-3.9c-2.3-3.5-4.8-6.2-7.3-8
		c-2.5-1.8-5.8-2.7-9.7-2.7c-5.6,0-10.2,2.2-13.6,6.6c-3.4,4.4-5.2,10.4-5.2,18c0,3.6,0.4,6.9,1.3,9.9c0.9,3,2.2,5.6,3.8,7.7
		c1.7,2.1,3.7,3.7,6.1,4.8c2.4,1.1,5,1.6,7.8,1.6c3.8,0,7.1-0.9,9.8-2.7c2.7-1.8,5.1-4.5,7.2-8.1c1.2-2.1,2.4-3.8,3.8-5
		c1.3-1.2,3-1.8,5-1.8c2.3,0,4.3,0.9,5.8,2.7C305,229,305.8,230.9,305.8,232.9z"/>
	<path class="st1" d="M370.7,222.4h-37.3c0,4.3,0.9,8.1,2.6,11.4c1.7,3.3,4,5.8,6.8,7.5c2.8,1.7,5.9,2.5,9.3,2.5
		c2.3,0,4.4-0.3,6.2-0.8c1.9-0.5,3.7-1.4,5.5-2.5c1.8-1.1,3.4-2.4,4.9-3.7c1.5-1.3,3.4-3.1,5.8-5.3c1-0.8,2.4-1.3,4.2-1.3
		c2,0,3.5,0.5,4.7,1.6c1.2,1.1,1.8,2.6,1.8,4.5c0,1.7-0.7,3.7-2,6s-3.4,4.5-6.1,6.6c-2.7,2.1-6.1,3.9-10.3,5.3
		c-4.1,1.4-8.9,2.1-14.2,2.1c-12.2,0-21.8-3.5-28.5-10.5c-6.8-7-10.2-16.4-10.2-28.4c0-5.6,0.8-10.9,2.5-15.7
		c1.7-4.8,4.1-8.9,7.3-12.4c3.2-3.4,7.2-6.1,11.9-7.9c4.7-1.8,9.9-2.8,15.6-2.8c7.4,0,13.8,1.6,19.2,4.7c5.3,3.1,9.3,7.2,12,12.2
		c2.7,5,4,10.1,4,15.2c0,4.8-1.4,7.9-4.1,9.3C379.6,221.7,375.7,222.4,370.7,222.4z M333.5,211.6H368c-0.5-6.5-2.2-11.4-5.3-14.6
		c-3-3.2-7.1-4.9-12-4.9c-4.7,0-8.6,1.6-11.7,4.9C336,200.3,334.1,205.2,333.5,211.6z"/>
	<path class="st1" d="M398.9,244.9v-82.6c0-3.8,0.8-6.7,2.5-8.7c1.7-2,4-2.9,6.9-2.9c2.9,0,5.2,1,7,2.9c1.8,1.9,2.7,4.8,2.7,8.7
		v82.6c0,3.9-0.9,6.8-2.7,8.7c-1.8,1.9-4.1,2.9-6.9,2.9c-2.8,0-5.1-1-6.8-3C399.7,251.5,398.9,248.6,398.9,244.9z"/>
	<path class="st1" d="M482.1,245.7c-4.6,3.6-9.1,6.3-13.4,8.1c-4.3,1.8-9.1,2.7-14.5,2.7c-4.9,0-9.2-1-12.9-2.9
		c-3.7-1.9-6.6-4.5-8.5-7.9c-2-3.3-3-6.9-3-10.7c0-5.2,1.7-9.7,5-13.3c3.3-3.7,7.8-6.1,13.6-7.4c1.2-0.3,4.2-0.9,9-1.9
		c4.8-1,8.9-1.9,12.3-2.7c3.4-0.8,7.1-1.8,11.1-3c-0.2-5-1.2-8.7-3-11.1c-1.8-2.3-5.5-3.5-11.1-3.5c-4.8,0-8.5,0.7-10.9,2
		c-2.4,1.3-4.5,3.4-6.3,6.1c-1.7,2.7-3,4.5-3.7,5.3c-0.7,0.9-2.3,1.3-4.6,1.3c-2.1,0-4-0.7-5.5-2.1c-1.6-1.4-2.3-3.1-2.3-5.3
		c0-3.4,1.2-6.6,3.6-9.8c2.4-3.2,6.1-5.8,11.1-7.8c5-2,11.3-3.1,18.8-3.1c8.4,0,15,1,19.8,3c4.8,2,8.2,5.1,10.2,9.4c2,4.3,3,10,3,17
		c0,4.5,0,8.3,0,11.4c0,3.1-0.1,6.6-0.1,10.4c0,3.6,0.6,7.3,1.8,11.2c1.2,3.9,1.8,6.4,1.8,7.5c0,2-0.9,3.7-2.8,5.3
		c-1.8,1.6-3.9,2.4-6.2,2.4c-2,0-3.9-0.9-5.8-2.8C486.3,251.9,484.3,249.2,482.1,245.7z M480.9,218.1c-2.8,1-6.9,2.1-12.2,3.2
		c-5.3,1.1-9,2-11.1,2.5c-2,0.5-4,1.6-5.9,3.1c-1.9,1.6-2.8,3.7-2.8,6.5c0,2.9,1.1,5.3,3.3,7.4c2.2,2,5,3,8.6,3
		c3.8,0,7.2-0.8,10.4-2.5c3.2-1.7,5.5-3.8,7-6.4c1.7-2.9,2.6-7.6,2.6-14.2V218.1z"/>
</g>
<path class="st0" d="M506.8,481.4l-53.6-53.6c12.2-18.1,18.2-40.7,15-64.8c-1.2-8.8-3.7-17.3-7.3-25.2h-42.6
	c9,10.1,14.5,23.5,14.5,38.1c0,31.6-25.7,57.3-57.3,57.3s-57.3-25.7-57.3-57.3c0-14.6,5.5-28,14.5-38.1H291
	c-6.8,15-9.6,32.2-7.3,50.3c5.2,41,38.5,74.6,79.5,80.1c24.1,3.2,46.7-2.8,64.8-15l53.6,53.6c7,7,18.3,7,25.3,0
	C513.8,499.8,513.8,488.4,506.8,481.4z"/>
</svg>
