<?xml version="1.0" encoding="utf-8"?>
<!-- Generator: Adobe Illustrator 22.0.1, SVG Export Plug-In . SVG Version: 6.00 Build 0)  -->
<svg version="1.1" id="Capa_1" xmlns="http://www.w3.org/2000/svg" xmlns:xlink="http://www.w3.org/1999/xlink" x="0px" y="0px"
	 viewBox="0 0 512 512" style="enable-background:new 0 0 512 512;" xml:space="preserve">
<style type="text/css">
	.st0{fill:#000066;}
	.st1{fill:#FFFFFF;}
</style>
<g>
	<path class="st0" d="M418.3,337.8h-85.5c10.5-11.8,25.8-19.2,42.8-19.2C392.5,318.6,407.8,326.1,418.3,337.8z"/>
	<path class="st0" d="M512,97.8v211.5c0,15.7-12.8,28.5-28.5,28.5h-22.6c-13.1-28.8-40.6-50.2-72.8-54.3
		c-42.9-5.4-81,18.4-97.1,54.3H28.5C12.8,337.8,0,325.1,0,309.3V97.8c0-15.7,12.8-28.5,28.5-28.5h455C499.2,69.3,512,82.1,512,97.8z
		"/>
	<g>
		<path class="st1" d="M118.3,251.8c-2.4-2.2-5.8-3.2-10.2-3.2H52.7v-98.2c0-5.6-1.3-9.7-3.8-12.5s-5.9-4.1-10-4.1
			c-4,0-7.3,1.4-9.8,4.1c-2.5,2.8-3.7,6.9-3.7,12.4v103.9c0,5.9,1.3,10.2,3.9,12.8c2.6,2.6,6.9,4,12.8,4h66c4.5,0,7.9-1,10.2-3.1
			c2.3-2,3.5-4.7,3.5-8C121.8,256.7,120.6,254,118.3,251.8z"/>
		<path class="st1" d="M218.4,201.6c-2.3-6.3-5.7-11.7-10.1-16.2c-4.4-4.5-9.7-8-15.9-10.5s-13.1-3.7-20.7-3.7
			c-7.5,0-14.3,1.2-20.5,3.6c-6.2,2.4-11.5,5.9-15.8,10.4c-4.4,4.5-7.7,9.9-10,16.2s-3.5,13.3-3.5,20.9c0,7.6,1.1,14.4,3.5,20.7
			c2.3,6.2,5.7,11.6,10.1,16.2c4.5,4.6,9.7,8.1,15.8,10.5c6.1,2.5,12.9,3.7,20.5,3.7c7.7,0,14.6-1.2,20.7-3.6
			c6.1-2.4,11.4-5.9,15.8-10.4c4.4-4.5,7.8-10,10.1-16.3s3.5-13.2,3.5-20.7C221.9,214.7,220.7,207.8,218.4,201.6z M189.9,246.1
			c-4.5,5.7-10.6,8.6-18.2,8.6c-5,0-9.4-1.3-13.1-3.9c-3.7-2.6-6.6-6.4-8.6-11.3c-2-4.9-3-10.7-3-17.2c0-6.6,1-12.4,3-17.4
			s4.9-8.7,8.6-11.3c3.8-2.5,8.1-3.8,13-3.8c7.6,0,13.7,2.9,18.2,8.6c4.5,5.7,6.8,13.7,6.8,23.9
			C196.7,232.4,194.4,240.3,189.9,246.1z"/>
		<path class="st1" d="M290.3,254.8c-1.6-1.6-3.5-2.4-5.5-2.4c-1.4,0-3.4,0.3-5.9,0.8s-4.5,0.8-6,0.8c-2.7,0-4.6-0.7-5.8-2
			s-1.9-3-2.2-5.2c-0.3-2.1-0.4-5.1-0.4-9.1v-46.2h4.7c5,0,8.8-0.7,11.5-2s4-3.7,4-7.1c0-2.6-0.9-4.8-2.8-6.5s-4.6-2.5-8.2-2.5h-9.2
			v-17.1c0-4.2-0.2-7.5-0.7-9.8s-1.5-4.3-3.3-5.8c-2.6-2.4-5.5-3.6-8.7-3.6c-2.3,0-4.3,0.5-6.2,1.6c-1.8,1.1-3.3,2.5-4.2,4.2
			c-1,1.7-1.6,3.6-1.8,5.9c-0.2,2.3-0.3,5.5-0.3,9.5v15.1h-2.8c-3.8,0-6.7,0.8-8.7,2.5s-3,3.8-3,6.5s1,4.8,2.8,6.5
			c1.9,1.7,4.7,2.6,8.3,2.6h3.3v48.2c0,7.8,0.6,14,1.9,18.7c1.3,4.7,3.9,8.3,8,11s10,4,17.9,4c8.3,0,14.6-1.1,19.1-3.2
			c4.4-2.1,6.6-5.3,6.6-9.3C292.8,258.4,292,256.4,290.3,254.8z"/>
		<path class="st1" d="M385.5,241c-1.6-1.4-3.7-2.1-6.3-2.1c-2.4,0-4.2,0.5-5.5,1.7c-3.1,2.9-5.7,5.3-7.6,7c-2,1.7-4.1,3.3-6.4,4.8
			s-4.7,2.6-7.2,3.3s-5.2,1.1-8.2,1.1c-4.5,0-8.6-1.1-12.3-3.3c-3.7-2.2-6.7-5.5-8.9-9.8c-2.3-4.4-3.4-9.4-3.5-15.1h49.1
			c6.6,0,11.7-0.9,15.3-2.8c3.6-1.9,5.4-6,5.4-12.3c0-6.8-1.8-13.5-5.3-20.1s-8.8-11.9-15.8-16.1c-7-4.1-15.5-6.2-25.3-6.2
			c-7.5,0-14.4,1.2-20.6,3.6c-6.2,2.4-11.4,5.9-15.6,10.5c-4.2,4.5-7.5,10-9.7,16.3s-3.3,13.2-3.3,20.7c0,15.8,4.5,28.3,13.4,37.5
			c9,9.2,21.5,13.8,37.7,13.8c7,0,13.3-0.9,18.7-2.8s9.9-4.2,13.5-7s6.3-5.7,8-8.8c1.8-3,2.7-5.7,2.7-8
			C387.9,244.4,387.1,242.4,385.5,241z M326.8,195c4-4.3,9.2-6.5,15.4-6.5c6.6,0,11.9,2.1,15.9,6.4c4,4.3,6.3,10.7,6.9,19.3h-45.6
			C320.4,205.7,322.8,199.3,326.8,195z"/>
		<path class="st1" d="M482.8,228.2c-2.5-3.6-6.3-6.7-11.2-9.3c-4.9-2.6-11.3-4.9-19.1-6.8c-6.6-1.6-11.7-3-15.5-4.1
			c-3.7-1.1-6.7-2.5-8.9-4.2c-2.2-1.7-3.3-3.9-3.3-6.5c0-2.9,1.5-5.3,4.5-7.2s6.8-2.9,11.3-2.9c4.4,0,7.9,0.7,10.5,2.2
			s4.8,3.4,6.7,5.9c2.3,3,4.4,5.2,6.2,6.6c1.8,1.5,4,2.2,6.6,2.2c3.6,0,6.3-0.9,8.2-2.8c1.9-1.8,2.9-4.2,2.9-7.1
			c0-2.6-0.9-5.3-2.7-8.1c-1.8-2.8-4.5-5.3-7.9-7.6c-3.5-2.3-7.8-4.1-13-5.4c-5.2-1.3-11-2-17.5-2c-8.3,0-15.3,1.3-21.2,4
			c-5.9,2.7-10.3,6.3-13.3,10.7c-3,4.5-4.5,9.2-4.5,14.3c0,5.6,1.6,10.4,4.9,14.3c3.3,3.9,7.6,7,13,9.3c5.4,2.4,12.5,4.6,21.1,6.8
			c7.7,1.8,13.2,3.8,16.5,5.8s5,5.2,5,9.7c0,2.9-1.6,5.5-4.8,7.7c-3.2,2.2-7.4,3.4-12.4,3.4c-6.2,0-11.1-1.1-14.7-3.3
			s-6.7-5.6-9.3-10c-1.3-2.3-2.6-4.1-4.1-5.4c-1.4-1.3-3.4-1.9-6.1-1.9c-3,0-5.5,1-7.5,2.9c-2,2-3,4.3-3,7.1c0,4.2,1.5,8.3,4.6,12.5
			c3.1,4.1,7.8,7.6,14.3,10.4s14.2,4.1,23.2,4.1c9.5,0,17.5-1.3,24.1-3.8s11.6-6.3,15-11.2c3.4-4.9,5.1-10.9,5.1-17.8
			C486.7,235.9,485.4,231.8,482.8,228.2z"/>
	</g>
</g>
<path class="st0" d="M506.8,481.4l-53.6-53.6c12.2-18.1,18.2-40.7,15-64.8c-1.2-8.8-3.7-17.3-7.3-25.2h-42.6
	c9,10.1,14.5,23.5,14.5,38.1c0,31.6-25.7,57.3-57.3,57.3s-57.3-25.7-57.3-57.3c0-14.6,5.5-28,14.5-38.1H291
	c-6.8,15-9.6,32.2-7.3,50.3c5.2,41,38.5,74.6,79.5,80.1c24.1,3.2,46.7-2.8,64.8-15l53.6,53.6c7,7,18.3,7,25.3,0
	C513.8,499.8,513.8,488.4,506.8,481.4z"/>
</svg>
