<?xml version="1.0" encoding="utf-8"?>
<!-- Generator: Adobe Illustrator 22.0.1, SVG Export Plug-In . SVG Version: 6.00 Build 0)  -->
<svg version="1.1" id="Capa_1" xmlns="http://www.w3.org/2000/svg" xmlns:xlink="http://www.w3.org/1999/xlink" x="0px" y="0px"
	 viewBox="0 0 106 108.8" style="enable-background:new 0 0 106 108.8;" xml:space="preserve">
<style type="text/css">
	.st0{fill:#6EB253;}
</style>
<g>
	<path class="st0" d="M68.3,65.4c0,2.6-0.5,4.4-1.5,5.6c-0.4,0.4-0.8,0.8-1.3,1c-1.8-2.6-4.2-5.2-7.6-8c0.2-1.8,0.6-3.2,1.4-4.1
		c1-1,2.2-1.5,3.8-1.5c1.6,0,2.8,0.5,3.7,1.5S68.3,62.8,68.3,65.4z"/>
	<path class="st0" d="M51.8,53.1c-0.7,0.7-1.4,1.5-1.8,2.3c-0.6-1.2-1.4-2.2-2.2-3c-2.6-2.4-5.9-3.6-9.9-3.6c-3.3,0-6.1,0.8-8.5,2.4
		c-5.5-4.6-7.5-11.5-5.5-17.9c0.5-1.7,1.3-3.3,2.3-4.8c0.6-1,1.4-1.8,2.1-2.7c6.7-7.9,19.1-11.9,29.4-9.9c3.1,0.6,5.9,1.8,8.3,3.5
		c4.7,3.2,8.1,8.2,9.4,13.9c0.1,0.4,0.2,0.9,0.2,1.3c0.9,5.5,2.9,10.6,5.4,15.4c-1,0.4-1.9,0.9-2.8,1.5c-1,0.8-1.9,1.8-2.5,3.1
		c-0.3-0.5-0.7-0.9-1.1-1.3c-2.9-3-6.7-4.5-11.5-4.5c-2.6,0-4.9,0.4-6.9,1.3C54.6,50.7,53.1,51.7,51.8,53.1z"/>
	<path class="st0" d="M78.2,59.8l-1.4-0.2c0.1-1,0.2-1.8,0.5-2.5c0.5-1.6,1.3-2.9,2.4-3.8c0.7-0.6,1.5-1,2.5-1.3
		c0.7,1.4,1.5,2.7,2.3,3.9c-0.6,0.2-1,0.4-1.4,0.8c-0.6,0.6-1,1.8-1.1,3.3L78.2,59.8z"/>
	<path class="st0" d="M77.9,74c1-1.7,3-3.9,5.9-6.6c2.4-2.2,3.9-3.7,4.4-4.5c0.1-0.2,0.2-0.3,0.3-0.5c1,1.4,2,2.9,3,4.3
		c-0.6,0.8-1.8,1.8-3.1,3.1c-1.7,1.5-2.7,2.6-3.2,3.1c-0.5,0.5-0.8,1-1,1.4h10.5v4.9H76C76.3,77.4,76.9,75.6,77.9,74z"/>
	<path class="st0" d="M90,71.6c1.2-1.1,2.2-2.1,2.9-2.9c0.7,1.1,1.4,2.2,2.2,3.2h-5.5C89.8,71.8,89.9,71.7,90,71.6z"/>
	<path class="st0" d="M72.8,76c-1.1,1.1-2.4,2-3.9,2.7c-0.6-1.5-1.3-3.1-2.2-4.6c0.6-0.4,1.3-0.9,1.8-1.4c1.4-1.6,2.2-4,2.2-7.2
		c0-3.1-0.7-5.5-2.1-7.1c-1.4-1.5-3.2-2.3-5.5-2.3s-4.2,0.8-5.5,2.3c-0.9,1-1.5,2.3-1.8,4c-1.1-0.8-3-1.5-5.3-2.2
		c0.2-0.6,0.3-1,0.6-1.5c0-0.1,0.1-0.2,0.1-0.2c0.6-1.3,1.4-2.5,2.4-3.5c1.1-1.1,2.2-1.9,3.5-2.5c1.7-0.7,3.7-1.1,5.9-1.1
		c4.1,0,7.3,1.3,9.8,3.8c0.7,0.7,1.4,1.6,1.8,2.5c0.8,1.4,1.3,2.9,1.6,4.7c0.2,1,0.2,2.2,0.2,3.4C76.5,69.9,75.2,73.5,72.8,76z"/>
	<path class="st0" d="M99.3,99.7c-2.1,3-4.4,5.1-7.1,5.9c-3.2,1-6.9,0.3-11.2-2.6c-9.5-6.5-8.8-13.8-11.3-22.1
		c1.4-0.6,2.8-1.4,4-2.5c0,0.2-0.1,0.4-0.1,0.6l-0.3,2.7H97v-6.6C102.2,83.7,104.8,91.7,99.3,99.7z"/>
	<path class="st0" d="M4.8,22.1c2-3,6.4-4.7,10-2.2c3.9,2.7,7.3,7.6,4.7,11.5c-2.3,3.5-7.7,4-11.4,1.4c-2.2-1.5-4-3.8-4.3-6.3
		C3.4,24.9,3.9,23.3,4.8,22.1z"/>
	<path class="st0" d="M16.1,11.5c1.3-1.8,4.7-2,7.3-0.2c2.8,1.9,3.5,5.5,1.8,8.1c-1.3,1.8-3.2,2.7-5.7,1c-1.6-1.1-3-3.1-3.6-4.9
		C15.5,13.7,15.5,12.3,16.1,11.5z"/>
	<path class="st0" d="M26.8,8.1c0-2.5,2.4-4.7,4.8-4.7c2.6,0,4.2,3.1,4.1,5.6c0,3.2-2.2,5.1-3.7,5.1c-1.6,0-2.9-1.9-4-3.1
		C27.2,10,26.8,9,26.8,8.1z"/>
	<path class="st0" d="M38.3,7c0.2-0.9,0-1.7,0.2-2.6c0.3-1.5,1.5-1.9,3.1-1.6c2.8,0.6,4.3,4.1,3.7,6.9c-0.5,2.5-2.7,3.1-4.2,2.7
		C39.1,12,37.7,10.1,38.3,7z"/>
	<path class="st0" d="M48.8,7c0.2-0.2,0.4-0.5,0.5-0.6c0.2-0.2,0.5-0.7,0.6-1c1.4-0.2,3.2-1.1,4.7-0.2c0.8,0.6,1.2,3.7,0,5.4
		c-1,1.4-3.1,2-4.7,0.9C48.2,10.2,48.3,7.7,48.8,7z"/>
	<path d="M43.5,69.1l5.4,1.7c-0.8,3.1-2.2,5.2-4.1,6.7c-1.9,1.5-4.3,2.2-7.3,2.2c-3.7,0-6.7-1.3-9.1-3.8s-3.5-5.9-3.5-10.3
		c0-4.6,1.2-8.2,3.5-10.7c2.3-2.5,5.5-3.8,9.3-3.8c3.4,0,6.1,1,8.2,3c1.3,1.2,2.2,2.9,2.8,5.1l-5.5,1.3c-0.3-1.4-1-2.6-2-3.4
		c-1-0.8-2.3-1.2-3.8-1.2c-2,0-3.7,0.7-5,2.2c-1.3,1.4-1.9,3.9-1.9,7.1c0,3.5,0.6,5.9,1.8,7.5s2.9,2.2,4.9,2.2
		c1.4,0,2.7-0.5,3.9-1.4S43.1,71.1,43.5,69.1z"/>
	<path d="M49.7,65.6c0-2.8,0.4-5.1,1.3-7.1c0.6-1.4,1.4-2.7,2.6-3.8c1.1-1.1,2.2-1.9,3.5-2.5c1.7-0.7,3.7-1.1,5.9-1.1
		c4.1,0,7.3,1.3,9.8,3.8s3.7,6,3.7,10.5c0,4.4-1.2,8-3.6,10.4s-5.6,3.8-9.7,3.8s-7.4-1.3-9.8-3.8S49.7,70,49.7,65.6z M55.5,65.4
		c0,3.1,0.7,5.5,2.2,7.1c1.4,1.6,3.3,2.4,5.5,2.4c2.2,0,4-0.8,5.5-2.4c1.4-1.6,2.2-4,2.2-7.2c0-3.1-0.7-5.5-2.1-7.1
		c-1.4-1.5-3.2-2.3-5.5-2.3c-2.3,0-4.2,0.8-5.5,2.3C56.2,59.7,55.5,62.2,55.5,65.4z"/>
	<path d="M94.6,74.4v4.9H76c0.2-1.8,0.8-3.6,1.8-5.3c1-1.7,3-3.9,5.9-6.6c2.4-2.2,3.9-3.7,4.4-4.5c0.7-1.1,1.1-2.2,1.1-3.2
		c0-1.2-0.3-2.1-1-2.7s-1.5-1-2.7-1s-2,0.3-2.7,1c-0.6,0.6-1,1.8-1.1,3.3l-5.3-0.6c0.3-2.9,1.3-5,3-6.3c1.7-1.3,3.7-1.9,6.2-1.9
		c2.7,0,4.9,0.7,6.4,2.2c1.5,1.4,2.3,3.3,2.3,5.5c0,1.2-0.2,2.4-0.6,3.5s-1.1,2.3-2.1,3.5c-0.6,0.8-1.8,2-3.5,3.5
		c-1.7,1.5-2.7,2.6-3.1,3.1s-0.8,1-1,1.4h10.4V74.4z"/>
	<g>
		<path d="M48.9,59.3l-0.6,0.2c-0.1,0-0.1,0-0.2-0.1c-2.1-0.6-4.4-1.4-6.8-2.2l0,0c-1-0.7-2.1-1.1-3.4-1.2c-2.3-1-4.7-2-6.6-3.2
			c1.8-1,4-1.5,6.4-1.5c3.4,0,6.1,1,8.2,3c1,1,1.8,2.3,2.5,4C48.7,58.5,48.7,58.8,48.9,59.3z"/>
	</g>
	<g>
		<path class="st0" d="M95.1,71.9l2,3.1C96.5,74,95.7,73,95.1,71.9z"/>
		<path class="st0" d="M86.9,59.6c0,0.1,0,0.2,0,0.2c-0.1,0.5-0.3,1-0.6,1.6c-0.2,0.3-1,1.3-4,4.1c-1.4,1.3-2.7,2.5-3.6,3.6
			c0.2-1.2,0.3-2.4,0.3-3.7c0-1.1-0.1-2.2-0.2-3.1l5.5,0.6l0.2-2.5c0.1-1.4,0.4-1.8,0.5-1.8c0.1-0.1,0.2-0.3,0.9-0.3
			c0.1,0,0.1,0,0.2,0c0.3,0,0.6,0.1,0.7,0.2C86.9,58.8,86.9,59.3,86.9,59.6z"/>
	</g>
</g>
</svg>
